<svg width="55" height="55" viewBox="0 0 55 55" fill="none" xmlns="http://www.w3.org/2000/svg">
<path d="M20.7925 43.5419H15.1618C14.1352 43.5419 13.2613 43.1813 12.5402 42.4602C11.8191 41.7391 11.4585 40.8659 11.4585 39.8408V34.2079L7.35643 30.0921C6.99435 29.7208 6.72775 29.3098 6.55664 28.8591C6.38553 28.4084 6.30074 27.9555 6.30227 27.5002C6.30379 27.0449 6.38935 26.5919 6.55893 26.1412C6.72852 25.6905 6.99359 25.2796 7.35414 24.9083L11.4585 20.7925V15.1618C11.4585 14.1352 11.8191 13.2613 12.5402 12.5402C13.2613 11.8191 14.1352 11.4585 15.1618 11.4585H20.7925L24.9083 7.35643C25.2796 6.99435 25.6905 6.72775 26.1412 6.55664C26.5919 6.38553 27.0449 6.30074 27.5002 6.30227C27.9555 6.30379 28.4084 6.38935 28.8591 6.55893C29.3098 6.72852 29.7208 6.99359 30.0921 7.35414L34.2079 11.4585H39.8408C40.8644 11.4585 41.7375 11.8191 42.4602 12.5402C43.1813 13.2613 43.5419 14.1352 43.5419 15.1618V20.7925L47.6439 24.9083C48.006 25.2796 48.2726 25.6905 48.4437 26.1412C48.6148 26.5919 48.6996 27.0449 48.6981 27.5002C48.6966 27.9555 48.6118 28.4084 48.4437 28.8591C48.2757 29.3098 48.0098 29.7208 47.6462 30.0921L43.5419 34.2079V39.8408C43.5419 40.8644 43.1813 41.7375 42.4602 42.4602C41.7391 43.1813 40.8659 43.5419 39.8408 43.5419H34.2079L30.0921 47.6439C29.7208 48.006 29.3098 48.2726 28.8591 48.4437C28.4084 48.6148 27.9555 48.6996 27.5002 48.6981C27.0449 48.6966 26.5919 48.6118 26.1412 48.4437C25.6905 48.2757 25.2796 48.0098 24.9083 47.6462L20.7925 43.5419ZM21.771 41.2502L26.4873 45.9664C26.7516 46.2307 27.0892 46.3629 27.5002 46.3629C27.9112 46.3629 28.2488 46.2307 28.5131 45.9664L33.2293 41.2502H39.8408C40.2518 41.2502 40.5894 41.118 40.8537 40.8537C41.118 40.5894 41.2502 40.2518 41.2502 39.8408V33.2293L45.9664 28.5131C46.2307 28.2488 46.3629 27.9112 46.3629 27.5002C46.3629 27.0892 46.2307 26.7516 45.9664 26.4873L41.2502 21.771V15.1618C41.2502 14.7494 41.118 14.4109 40.8537 14.1466C40.5894 13.8823 40.2518 13.7502 39.8408 13.7502H33.2293L28.5131 9.03393C28.2503 8.77116 27.9127 8.63977 27.5002 8.63977C27.0877 8.63977 26.75 8.77192 26.4873 9.03622L21.771 13.7502H15.1618C14.7494 13.7502 14.4109 13.8823 14.1466 14.1466C13.8823 14.4109 13.7502 14.7494 13.7502 15.1618V21.771L9.03393 26.4873C8.76963 26.7516 8.63747 27.0892 8.63747 27.5002C8.63747 27.9112 8.76963 28.2488 9.03393 28.5131L13.7502 33.2293V39.8408C13.7502 40.2518 13.8823 40.5894 14.1466 40.8537C14.4109 41.118 14.7494 41.2502 15.1618 41.2502H21.771Z" fill="#00A991"/>
<path d="M35 23L25.6667 33L21 28" stroke="#00A991" stroke-width="2" stroke-linecap="round" stroke-linejoin="round"/>
</svg>
