<svg width="24" height="24" viewBox="0 0 24 24" fill="none" xmlns="http://www.w3.org/2000/svg">
<path d="M11.7031 5.616C11.7331 4.711 11.9811 3.379 12.8481 2.504C13.6531 1.691 14.6331 1.295 15.2431 1.114C15.2968 1.09718 15.3538 1.09368 15.4092 1.1038C15.4645 1.11393 15.5166 1.13738 15.5609 1.17212C15.6052 1.20687 15.6404 1.25187 15.6634 1.30324C15.6864 1.35461 15.6966 1.41082 15.6931 1.467C15.6531 2.333 15.4251 3.625 14.8371 4.317C14.2831 4.969 13.3931 5.833 12.0881 5.979C12.0381 5.98441 11.9875 5.97891 11.9398 5.96289C11.8921 5.94688 11.8485 5.92072 11.8119 5.88622C11.7753 5.85172 11.7466 5.8097 11.7278 5.76305C11.7091 5.7164 11.7006 5.66623 11.7031 5.616Z" fill="black"/>
<path d="M13.9372 22.1699C14.5642 22.4099 15.1972 22.6519 15.7702 22.6519C16.9972 22.6519 20.5682 19.8219 20.6962 16.8839C20.6972 16.8098 20.6776 16.737 20.6396 16.6734C20.6017 16.6099 20.5468 16.5581 20.4812 16.5239C19.5732 16.0159 18.0892 14.7499 18.0382 12.9089C17.9782 10.7629 19.0552 9.05886 19.8702 8.35386C20.0542 8.19486 20.1172 7.91486 19.9532 7.73686C19.2112 6.92686 17.7192 5.81186 16.3572 5.83886C15.3672 5.85886 14.4742 6.22886 13.7072 6.54486C13.1202 6.78786 12.6072 6.99986 12.1812 6.99986C11.7782 6.99986 11.2942 6.78986 10.7382 6.54686C9.9902 6.22086 9.1122 5.83886 8.1282 5.83886C6.3042 5.83886 2.7002 7.35186 2.7002 13.1909C2.7002 16.2859 5.8952 22.7339 8.5922 22.6519C9.1742 22.6519 9.7962 22.4119 10.4142 22.1719C11.0222 21.9359 11.6252 21.7019 12.1812 21.7019C12.7182 21.7019 13.3242 21.9349 13.9372 22.1699Z" fill="black"/>
</svg>
