<svg width="20" height="24" viewBox="0 0 20 24" fill="none" xmlns="http://www.w3.org/2000/svg">
<path d="M16.9664 1.8682C15.8779 0.606054 13.91 0.0649414 11.3926 0.0649414H4.08637C3.83728 0.0649023 3.59636 0.155276 3.40693 0.319806C3.2175 0.484337 3.092 0.712225 3.05301 0.962478L0.0108242 20.589C-0.0496445 20.976 0.244965 21.3265 0.63059 21.3265H5.14121L6.27403 14.0175L6.23887 14.2464C6.31957 13.7298 6.75395 13.3487 7.26832 13.3487H9.41176C13.6225 13.3487 16.9197 11.6089 17.8828 6.57617C17.9114 6.42733 17.9361 6.28245 17.9575 6.14092C17.836 6.07543 17.836 6.07543 17.9575 6.14092C18.2443 4.28076 17.9556 3.01456 16.9664 1.8682Z" fill="#27346A"/>
<path d="M7.99997 5.47082C8.12325 5.411 8.25814 5.38004 8.39473 5.38023H14.1227C14.801 5.38023 15.4336 5.42513 16.0118 5.51978C16.1735 5.54603 16.3345 5.57736 16.4943 5.61371C16.7209 5.66458 16.9449 5.72683 17.1654 5.80023C17.4497 5.89678 17.7143 6.00923 17.9576 6.14092C18.2443 4.28004 17.9556 3.01456 16.9664 1.8682C15.8772 0.606054 13.91 0.0649414 11.3926 0.0649414H4.08575C3.57129 0.0649414 3.13364 0.445922 3.05301 0.962478L0.0108246 20.5883C-0.0496441 20.9759 0.244965 21.3259 0.629965 21.3259H5.14122L7.49145 6.16539C7.51458 6.01638 7.57294 5.87532 7.66152 5.75433C7.7501 5.63334 7.86624 5.53605 7.99997 5.47082Z" fill="#27346A"/>
<path d="M17.8827 6.57588C16.9196 11.6079 13.6226 13.3484 9.41172 13.3484H7.26765C6.75328 13.3484 6.31883 13.7295 6.2389 14.2461L4.82961 23.3339C4.77695 23.6726 5.03445 23.9795 5.37133 23.9795H9.17367C9.39148 23.9795 9.60212 23.9004 9.76772 23.7564C9.93331 23.6125 10.043 23.4132 10.077 23.1944L10.1141 22.9973L10.8307 18.3772L10.8769 18.1219C10.9109 17.903 11.0206 17.7037 11.1862 17.5598C11.3517 17.4159 11.5624 17.3368 11.7802 17.3367H12.3492C16.0326 17.3367 18.9167 15.8145 19.7595 11.4122C20.1113 9.57247 19.9293 8.03647 18.9987 6.95758C18.7164 6.6308 18.3659 6.36092 17.9575 6.14062C17.9354 6.28288 17.9114 6.42704 17.8827 6.57588Z" fill="#2790C3"/>
<path d="M16.9493 5.73186C16.7992 5.68725 16.6476 5.64776 16.4948 5.61345C16.3349 5.57768 16.1739 5.54656 16.0122 5.52015C15.4335 5.42486 14.8013 5.37988 14.1224 5.37988H8.39512C8.25844 5.37965 8.12349 5.41087 8.00035 5.4712C7.86646 5.53619 7.75016 5.63341 7.66154 5.75444C7.57291 5.87547 7.51464 6.01666 7.49176 6.16576L6.27441 14.0173L6.23926 14.2461C6.31934 13.7295 6.75371 13.3484 7.26816 13.3484H9.41223C13.623 13.3484 16.92 11.6087 17.8832 6.57591C17.9118 6.42706 17.9359 6.28282 17.958 6.14065C17.7142 6.00979 17.4501 5.89644 17.1658 5.8006C17.0941 5.7764 17.0219 5.75349 16.9494 5.73186" fill="#1F264F"/>
</svg>
