<svg width="40" height="18" viewBox="0 0 40 18" fill="none" xmlns="http://www.w3.org/2000/svg">
<path d="M15.187 0.230526L9.95 12.8555H6.53344L3.95625 2.77958C3.8 2.16047 3.66422 1.93263 3.18875 1.67084C2.41156 1.24421 1.12812 0.84521 0 0.597L0.0760937 0.230526H5.57672C6.27672 0.230526 6.90703 0.701526 7.06734 1.51705L8.42906 8.82332L11.7909 0.230526H15.187ZM19.8058 0.230526L17.1334 12.8555H13.9009L16.5736 0.230526H19.8058ZM28.5739 8.73347C28.5873 5.40205 24.0155 5.21716 24.0453 3.72868C24.0562 3.27616 24.4828 2.79442 25.4166 2.67126C25.8791 2.61079 27.1569 2.56263 28.6042 3.23653L29.1705 0.557684C28.3928 0.273474 27.392 0 26.1472 0C22.9519 0 20.7042 1.71505 20.6862 4.17284C20.6653 5.99084 22.2917 7.00405 23.5148 7.60958C24.7747 8.22789 25.1972 8.62532 25.1914 9.17795C25.1823 10.0251 24.1852 10.4001 23.2581 10.4139C21.6325 10.44 20.6902 9.96995 19.9384 9.6161L19.3517 12.3837C20.108 12.7339 21.5017 13.0382 22.9453 13.0536C26.3422 13.0536 28.5639 11.3582 28.5739 8.73347ZM37.0114 12.8556H40L37.3891 0.230526H34.6317C34.0098 0.230526 33.4872 0.595263 33.2553 1.15595L28.4053 12.8555H31.7995L32.4728 10.9696H36.6197L37.0114 12.8556ZM33.4036 8.38263L35.1055 3.64153L36.0831 8.38263H33.4036ZM23.9427 16.3307H22.6292V17.5659H24.0983V17.9373H22.1867V14.5105H24.023V14.8819H22.6292V15.9646H23.9425L23.9427 16.3307ZM24.7769 14.3277H25.2194V17.9372H24.7769V14.3277ZM26.3359 16.7882C26.3459 17.3934 26.7234 17.6424 27.1709 17.6424C27.4881 17.6424 27.6842 17.5865 27.8455 17.5154L27.9258 17.8358C27.7698 17.9068 27.4983 17.9932 27.1106 17.9932C26.3612 17.9932 25.9136 17.49 25.9136 16.7476C25.9136 16.0055 26.3459 15.4257 27.0555 15.4257C27.8555 15.4257 28.0617 16.1275 28.0617 16.5799C28.0617 16.6713 28.0566 16.7373 28.0464 16.7883L26.3359 16.7882ZM27.6339 16.4679C27.6391 16.1885 27.5183 15.7461 27.0202 15.7461C26.5673 15.7461 26.3761 16.1578 26.3408 16.4679H27.6339ZM30.4705 17.8508C30.3548 17.9068 30.0981 17.9934 29.7712 17.9934C29.0367 17.9934 28.5588 17.49 28.5588 16.7375C28.5588 15.9799 29.0717 15.4258 29.8667 15.4258C30.1283 15.4258 30.3597 15.4917 30.4805 15.558L30.3802 15.8986C30.2741 15.8427 30.1081 15.7814 29.8667 15.7814C29.3081 15.7814 29.0066 16.2035 29.0066 16.7122C29.0066 17.2814 29.3687 17.6323 29.8517 17.6323C30.1033 17.6323 30.2692 17.5713 30.395 17.5154L30.4705 17.8508ZM31.7123 14.8868V15.4765H32.3461V15.8169H31.7123V17.1441C31.7123 17.4494 31.798 17.622 32.0444 17.622C32.165 17.622 32.2356 17.6121 32.3011 17.5914L32.3213 17.9324C32.2356 17.9627 32.0998 17.9932 31.9287 17.9932C31.7223 17.9932 31.5563 17.922 31.4508 17.8053C31.33 17.6678 31.2797 17.4494 31.2797 17.1595V15.8169H30.9022V15.4765H31.2797V15.0189L31.7123 14.8868ZM32.9644 16.2444C32.9644 15.9545 32.9591 15.7055 32.9442 15.4765H33.3317L33.352 15.9644H33.3667C33.4777 15.6343 33.7491 15.4257 34.0458 15.4257C34.0913 15.4257 34.1266 15.4309 34.1669 15.4358V15.858C34.1216 15.8476 34.0764 15.8476 34.0156 15.8476C33.7041 15.8476 33.4823 16.0814 33.4222 16.4173C33.4118 16.4862 33.4067 16.5559 33.407 16.6257V17.9375H32.9644V16.2444ZM36.888 16.6865C36.888 17.5966 36.2589 17.9932 35.6755 17.9932C35.0212 17.9932 34.5083 17.505 34.5083 16.7274C34.5083 15.9087 35.0466 15.4258 35.7158 15.4258C36.415 15.4258 36.888 15.9388 36.888 16.6865ZM34.9609 16.7122C34.9609 17.2511 35.2628 17.658 35.6955 17.658C36.1183 17.658 36.435 17.256 36.435 16.7019C36.435 16.2851 36.2287 15.7612 35.7055 15.7612C35.1875 15.7612 34.9609 16.2496 34.9609 16.7122ZM37.5664 16.1427C37.5664 15.8836 37.5611 15.6801 37.5461 15.4768H37.9386L37.9638 15.8836H37.9737C38.0945 15.6546 38.3763 15.426 38.7788 15.426C39.1156 15.426 39.6391 15.6294 39.6391 16.473V17.9375H39.1964V16.5189C39.1964 16.1226 39.0505 15.7918 38.633 15.7918C38.3461 15.7918 38.1195 16.0004 38.0394 16.2494C38.0191 16.3055 38.0091 16.3816 38.0091 16.458V17.9375H37.5664V16.1427Z" fill="#1A1F71"/>
</svg>
