<svg version="1.1" id="Layer_1" xmlns="http://www.w3.org/2000/svg" xmlns:xlink="http://www.w3.org/1999/xlink" x="0px" y="0px"
	 width="100%" viewBox="0 0 1024 544" enable-background="new 0 0 1024 544" xml:space="preserve">
<path fill="#000000" opacity="1.000000" stroke="none" 
	d="
M564.735046,137.323059 
	C586.916260,179.716461 608.945374,221.771088 630.915344,263.856537 
	C639.352600,280.018738 635.511047,296.251953 621.458740,304.431458 
	C607.723633,312.426270 591.001648,307.889893 582.750977,293.400726 
	C576.738586,282.842224 571.449524,271.871918 565.835632,261.086395 
	C565.133789,259.738007 564.264648,258.258148 565.255676,256.858002 
	C568.572021,252.172653 572.163208,247.682983 574.743347,241.832550 
	C579.300842,247.137238 581.160217,252.718796 583.903198,257.769897 
	C588.513611,266.259979 592.873169,274.886353 597.336365,283.456360 
	C600.831726,290.167938 606.074280,292.150391 612.085754,289.030121 
	C617.901001,286.011749 619.326477,280.287079 615.866028,273.629730 
	C593.358154,230.328613 570.845642,187.029892 548.320374,143.737808 
	C543.853821,135.153458 538.071960,132.093567 530.786560,134.402771 
	C528.183533,135.227844 525.685669,136.510391 524.387451,138.923523 
	C517.375916,151.955795 510.521301,165.072540 503.667633,178.055878 
	C511.369385,184.918259 512.539246,184.949341 522.012085,178.735840 
	C521.562561,173.145004 514.959229,169.103027 516.843811,163.246902 
	C518.640503,157.663773 522.033752,152.594391 525.138733,146.485428 
	C528.882202,150.795547 530.139771,155.370331 532.630493,159.166321 
	C533.171265,159.990524 533.434448,160.991943 533.876648,161.886490 
	C537.836243,169.897263 542.010559,176.213776 552.116943,179.361008 
	C571.702209,185.460052 580.382507,206.668549 574.682678,228.708206 
	C570.736267,243.967651 561.520264,255.846344 550.196289,266.254333 
	C540.227173,275.417053 529.238586,283.195465 517.372253,289.782288 
	C514.188171,291.549713 511.728699,291.605133 508.609863,289.850372 
	C493.381195,281.282379 479.730164,270.758209 467.943878,257.836304 
	C466.955841,256.753021 466.236298,255.331131 463.835815,254.684280 
	C460.464050,261.058746 456.995972,267.595032 453.547028,274.141388 
	C450.130707,280.625854 446.958344,287.250885 443.280457,293.582794 
	C436.100250,305.944275 423.466888,310.924469 410.460327,306.862000 
	C397.632599,302.855377 389.315521,290.563293 390.884216,276.730591 
	C392.001526,266.877991 397.895386,258.852325 402.789825,250.561813 
	C407.331573,242.868683 413.958313,237.396957 422.167236,233.903137 
	C428.207550,231.332275 434.522552,229.934998 441.114136,229.944855 
	C455.613464,229.966553 470.114563,229.879883 484.610962,230.099655 
	C488.591431,230.160034 490.733063,228.893158 491.843567,224.989304 
	C493.253235,220.033936 495.173828,215.222305 496.916840,210.364044 
	C497.731964,208.092117 498.816895,205.946152 501.676300,205.950134 
	C504.717804,205.954376 506.059418,208.111816 506.774109,210.636734 
	C508.722260,217.519577 510.503540,224.449677 512.455078,231.331497 
	C513.037842,233.386353 513.114990,235.635193 514.733582,237.761978 
	C517.383423,234.933792 517.252563,231.061874 518.846191,227.977280 
	C519.835938,226.061493 520.356812,223.902466 521.355713,221.992554 
	C523.459290,217.970322 528.462341,217.291702 529.916260,221.333847 
	C532.955505,229.783157 538.917236,230.894424 546.392456,230.102936 
	C547.367554,229.999695 548.386475,230.271042 549.383911,231.429352 
	C549.000549,235.029205 547.133728,239.135498 543.833435,239.678864 
	C538.088684,240.624756 531.454895,242.516388 526.480042,235.650696 
	C524.031982,242.248795 521.789978,248.277100 519.559509,254.309631 
	C518.555054,257.026306 517.481323,259.997864 514.045227,259.935272 
	C510.302490,259.867126 509.497711,256.677521 508.669495,253.698914 
	C506.404663,245.553589 504.060608,237.430267 501.777954,229.403870 
	C500.162201,229.433945 500.064972,230.452606 499.804657,231.148071 
	C496.392883,240.264038 496.405060,240.273041 486.808807,240.280869 
	C475.642578,240.289978 464.475830,240.221085 453.310272,240.310593 
	C436.252991,240.447311 422.923431,246.776016 415.612457,263.133026 
	C413.779724,267.233490 411.385162,271.081329 409.517487,275.168060 
	C406.925201,280.840240 408.924316,286.710785 414.062317,289.257050 
	C419.263245,291.834473 425.080841,290.002838 428.064758,284.472168 
	C434.233856,273.037567 440.343597,261.566254 446.190155,249.965073 
	C448.092957,246.189301 450.467743,244.535873 454.737366,244.720596 
	C461.391327,245.008469 468.071259,244.943451 474.731445,244.740967 
	C478.208557,244.635269 480.692322,245.831406 483.007690,248.376129 
	C490.678467,256.806885 499.574402,263.799835 509.170746,269.916962 
	C511.002228,271.084412 512.831604,272.483612 515.120972,270.995514 
	C531.460999,260.374512 546.766418,248.698318 555.658630,230.613281 
	C558.691467,224.445084 559.604248,217.826691 558.519409,211.121994 
	C556.000183,195.551315 538.344543,188.262833 525.338867,197.243256 
	C522.562683,199.160217 520.291504,201.584274 518.125549,204.121948 
	C513.091003,210.020508 513.100220,210.030212 507.762543,204.154236 
	C506.978241,203.290863 506.213806,202.409454 505.431976,201.543823 
	C498.431152,193.792892 489.356110,191.346344 480.638733,194.857178 
	C471.939484,198.360703 467.061890,206.375549 467.273438,216.818878 
	C467.457764,225.918121 467.457733,225.918121 458.085419,225.908798 
	C450.065521,225.900818 449.828186,225.662216 449.693359,217.473114 
	C449.345520,196.341599 461.101196,181.116501 481.372345,176.845108 
	C484.351074,176.217438 485.519409,174.370224 486.671906,172.161713 
	C492.914551,160.198853 499.219421,148.267014 505.315796,136.229752 
	C510.046875,126.888206 516.614197,119.782570 527.096069,117.088333 
	C540.917358,113.535721 554.398193,119.262024 561.678772,131.743500 
	C562.684631,133.467896 563.601379,135.244263 564.735046,137.323059 
z"/>
<path fill="#000000" opacity="1.000000" stroke="none" 
	d="
M649.699219,412.716400 
	C629.337585,431.618195 594.779236,428.154053 579.508606,412.583160 
	C565.749634,398.553741 562.257629,382.046478 567.848755,363.815430 
	C573.379578,345.780945 587.023682,336.348175 604.952637,332.847748 
	C619.359741,330.034912 632.994324,332.883789 644.895813,341.341614 
	C667.808594,357.624573 670.077942,392.252930 649.699219,412.716400 
M636.036499,356.448730 
	C629.524170,350.569061 621.849243,348.118744 613.125854,348.314911 
	C596.084717,348.698151 582.194153,363.549377 583.436646,380.608002 
	C584.774597,398.975739 598.719788,410.195709 616.565308,409.328979 
	C629.251526,408.712769 638.926758,402.226013 643.418823,390.164856 
	C647.947571,378.005188 645.811523,366.578400 636.036499,356.448730 
z"/>
<path fill="#000000" opacity="1.000000" stroke="none" 
	d="
M390.696655,356.752075 
	C393.262665,351.659882 395.377014,346.734894 398.095001,342.169250 
	C406.229889,328.504303 424.350250,328.794617 431.546021,342.967621 
	C443.075500,365.676422 454.133789,388.625519 465.274811,411.529663 
	C467.974945,417.080688 466.330475,422.079041 461.563995,424.294861 
	C456.984467,426.423767 452.318390,424.616425 449.583740,419.433167 
	C447.487213,415.459412 445.495819,411.417175 443.715637,407.294037 
	C442.489410,404.453918 440.668274,403.311005 437.565155,403.355133 
	C428.405060,403.485443 419.241364,403.429901 410.079742,403.361450 
	C404.517212,403.319885 400.860840,400.184326 400.913818,395.696960 
	C400.967285,391.168091 404.560822,387.997864 410.108643,387.915192 
	C417.704346,387.801971 425.303009,387.886871 433.346039,387.886871 
	C432.898163,383.960449 431.316467,381.404572 430.063690,378.749023 
	C426.085327,370.316376 422.090393,361.891418 418.062378,353.482422 
	C417.360596,352.017365 416.892365,350.024841 414.996033,349.850037 
	C412.671173,349.635712 412.165039,351.915558 411.418213,353.465179 
	C401.370483,374.313446 391.304260,395.153625 381.432983,416.085632 
	C377.684143,424.035034 373.638824,426.839111 368.099335,424.474426 
	C362.332092,422.012482 361.357086,416.747864 365.287781,408.682281 
	C373.675415,391.471283 382.107239,374.281860 390.696655,356.752075 
z"/>
<path fill="#000000" opacity="1.000000" stroke="none" 
	d="
M512.172668,109.380577 
	C503.609558,110.377007 496.312408,112.950333 490.897614,120.320152 
	C496.160187,121.842209 501.538025,121.504967 506.288452,124.928940 
	C503.878510,129.561340 501.551331,134.085571 499.172089,138.582245 
	C498.262665,140.301010 496.836945,139.856644 495.272430,139.552856 
	C485.243805,137.605606 480.048126,140.017761 475.277588,149.075912 
	C462.560272,173.223160 449.904144,197.402893 437.321350,221.620453 
	C435.908417,224.339813 434.327209,226.029282 431.067566,226.512375 
	C426.288239,227.220703 421.785522,229.045761 417.491913,231.344528 
	C415.954468,232.167679 414.525024,233.530334 412.412689,233.090866 
	C411.671967,230.835693 413.260223,229.276260 414.119720,227.626572 
	C431.499084,194.270706 448.958862,160.956726 466.349640,127.606796 
	C470.271088,120.086700 473.840118,112.430740 479.726746,106.070702 
	C499.378906,84.838104 536.955566,88.456322 551.995911,113.174767 
	C552.314514,113.698341 552.410889,114.357117 552.598328,114.915352 
	C550.981628,116.046341 549.909119,114.855270 548.721619,114.460091 
	C542.534119,112.401009 536.355103,110.498871 529.687866,112.156044 
	C526.973022,112.830818 524.484741,111.541275 521.936951,110.763176 
	C518.913574,109.839821 515.809448,109.182571 512.172668,109.380577 
z"/>
<path fill="#000000" opacity="1.000000" stroke="none" 
	d="
M505.707520,401.323334 
	C507.474609,403.804993 507.090179,408.129974 510.590149,407.940643 
	C513.792542,407.767456 514.082886,403.840820 515.187988,401.365631 
	C523.877014,381.904633 532.442505,362.388550 541.060669,342.895874 
	C541.800964,341.221497 542.568237,339.550110 543.457703,337.952332 
	C546.089844,333.224243 550.743286,331.558289 555.255005,333.653595 
	C559.605530,335.674011 561.412231,340.421936 559.247131,345.563446 
	C555.564819,354.307800 551.601501,362.935181 547.681091,371.577606 
	C541.283630,385.680328 534.790466,399.739685 528.407288,413.848846 
	C524.928345,421.538727 518.868286,425.144928 510.632294,425.270416 
	C502.267822,425.397919 496.293762,421.498718 492.825592,413.938965 
	C482.549622,391.539978 472.320801,369.119263 462.124298,346.683960 
	C459.438995,340.775482 460.949982,335.664764 465.822296,333.488892 
	C470.630188,331.341766 475.641907,333.500763 478.248138,339.327576 
	C487.425385,359.845245 496.453247,380.429779 505.707520,401.323334 
z"/>
<path fill="#000000" opacity="1.000000" stroke="none" 
	d="
M644.138672,444.200928 
	C644.118286,448.811768 644.068298,452.952393 644.083984,457.092834 
	C644.094360,459.813721 643.442139,461.651154 640.079041,461.111847 
	C638.822754,460.910400 637.470093,461.353577 636.157654,461.451752 
	C630.200073,461.897339 625.817200,458.097961 625.943848,452.616882 
	C626.059570,447.608368 630.720886,443.742645 636.224487,444.132416 
	C637.187988,444.200653 638.139282,444.441681 638.975098,444.582489 
	C640.681519,442.611755 638.044739,438.500305 641.621399,438.309174 
	C645.015198,438.127808 643.752258,441.654449 644.138672,444.200928 
M631.723328,450.191925 
	C629.995300,452.612610 630.043701,454.795349 632.608398,456.617859 
	C634.783325,458.163361 636.750305,457.485046 638.400696,455.809662 
	C640.015625,454.170197 640.100708,452.190674 638.618225,450.424072 
	C636.783813,448.238129 634.620422,447.498749 631.723328,450.191925 
z"/>
<path fill="#000000" opacity="1.000000" stroke="none" 
	d="
M393.243042,450.994781 
	C393.230743,453.644012 393.257263,455.809692 393.191589,457.972534 
	C393.149994,459.343292 392.922394,460.784546 391.189148,460.926758 
	C389.059052,461.101593 388.783020,459.477051 388.790741,457.922119 
	C388.806519,454.752777 388.888824,451.993805 384.253540,452.075928 
	C380.314636,452.145660 377.692261,452.650177 378.287201,457.471527 
	C378.482056,459.050781 378.445892,461.145752 375.937378,460.959381 
	C373.931702,460.810394 373.904114,459.036316 373.890259,457.537140 
	C373.845703,452.708862 373.841797,447.879761 373.875610,443.051361 
	C373.887817,441.311920 374.133179,439.462250 376.464264,439.622375 
	C378.599792,439.769104 378.442871,441.666962 378.301208,443.084839 
	C377.926483,446.835449 379.564484,448.099182 383.203522,448.005707 
	C386.590057,447.918762 389.227905,447.637207 388.777893,443.201843 
	C388.616516,441.610870 388.603424,439.517578 391.107574,439.684631 
	C393.506073,439.844604 393.160187,441.926483 393.219513,443.517365 
	C393.306335,445.845276 393.242462,448.178864 393.243042,450.994781 
z"/>
<path fill="#000000" opacity="1.000000" stroke="none" 
	d="
M617.030518,461.535828 
	C609.278503,460.086304 605.947998,454.571259 609.011536,448.792450 
	C610.618225,445.761749 613.214600,444.041260 616.645020,444.111633 
	C620.277893,444.186157 622.905762,446.100586 624.374329,449.434021 
	C625.964966,453.044617 624.877197,454.672913 620.956238,454.984009 
	C618.668640,455.165558 616.407898,453.933685 613.649292,455.047028 
	C614.808777,457.501129 616.605347,457.817200 618.853882,457.311707 
	C620.463806,456.949738 622.746277,455.145660 623.364319,457.939667 
	C623.921570,460.458557 621.318054,460.884552 619.379089,461.322052 
	C618.737244,461.466888 618.062988,461.468140 617.030518,461.535828 
z"/>
<path fill="#000000" opacity="1.000000" stroke="none" 
	d="
M574.290039,460.791229 
	C571.863403,461.576843 569.719788,461.776672 567.566650,461.273468 
	C563.547363,460.334198 560.697388,456.547363 560.880249,452.470276 
	C561.062439,448.408142 564.234985,444.770386 568.291870,444.237488 
	C572.674622,443.661774 575.690125,445.668579 577.336365,449.671967 
	C578.821106,453.282837 577.464600,455.080017 573.560608,454.867462 
	C571.909424,454.777588 570.260010,454.619507 568.608276,454.594696 
	C567.983887,454.585297 567.355286,454.864227 565.975586,455.188904 
	C568.047302,457.923187 570.168640,457.955597 572.592468,456.994690 
	C573.840027,456.500092 575.222717,455.785828 576.080200,457.403229 
	C576.886780,458.924469 575.800903,459.868927 574.290039,460.791229 
M567.170227,448.877319 
	C568.220276,452.664459 570.189758,450.472412 572.451782,449.927826 
	C570.846558,447.975067 569.277832,448.207947 567.170227,448.877319 
z"/>
<path fill="#000000" opacity="1.000000" stroke="none" 
	d="
M492.143158,461.625793 
	C483.669983,460.065155 479.767792,454.737732 481.499634,447.589722 
	C483.109009,440.947235 489.555573,437.379730 496.188721,439.624390 
	C498.083313,440.265533 501.176086,440.794830 500.214813,443.567017 
	C499.242371,446.371643 496.916870,444.250366 495.145691,443.735321 
	C491.791290,442.759888 488.826782,443.332550 486.775787,446.364105 
	C484.883331,449.161438 484.986053,452.067261 487.143860,454.669159 
	C489.367371,457.350311 492.187897,458.345886 495.596985,456.966400 
	C497.169983,456.329865 499.171783,454.399841 500.264343,456.921570 
	C501.387604,459.514221 498.539429,460.093292 496.906830,460.848236 
	C495.601624,461.451843 493.997742,461.409729 492.143158,461.625793 
z"/>
<path fill="#000000" opacity="1.000000" stroke="none" 
	d="
M469.387939,448.140076 
	C470.610626,451.606415 470.174866,454.791046 470.148621,457.940979 
	C470.137543,459.272583 470.031281,460.838928 468.256256,460.945099 
	C466.147522,461.071289 466.002869,459.353638 465.909515,457.835266 
	C465.797150,456.007568 465.842712,454.170532 465.748535,452.341217 
	C465.630341,450.045074 464.553192,448.453217 462.102661,448.463989 
	C459.696075,448.474579 458.518127,450.056976 458.336456,452.308228 
	C458.162567,454.462830 458.240936,456.636749 458.114502,458.796661 
	C458.039703,460.074158 457.449280,461.033630 455.974152,461.035950 
	C454.510101,461.038208 453.818756,460.091797 453.802124,458.820068 
	C453.723785,452.824646 453.710419,446.827881 453.738525,440.831909 
	C453.745239,439.394531 454.285156,438.141327 456.029388,438.170349 
	C457.458527,438.194061 457.998199,439.209106 458.162170,440.479065 
	C458.308533,441.612671 458.434479,442.748901 458.603607,444.171631 
	C462.513062,444.512878 466.950653,443.241852 469.387939,448.140076 
z"/>
<path fill="#000000" opacity="1.000000" stroke="none" 
	d="
M408.353516,454.649933 
	C405.909210,454.601440 403.737457,453.633850 401.708313,455.368652 
	C403.517212,458.711182 406.069153,457.540894 408.555359,456.758453 
	C409.768646,456.376617 410.931213,456.396027 411.397339,457.838562 
	C411.762848,458.969604 411.045776,459.848755 410.141785,460.266052 
	C406.466766,461.962463 402.683258,462.174805 399.325714,459.722473 
	C396.239471,457.468323 395.268127,454.133423 396.328033,450.452209 
	C397.461395,446.515808 400.291901,444.244965 404.334229,444.187988 
	C408.361633,444.131226 411.083252,446.253052 412.470947,450.211914 
	C413.814026,454.043579 412.285034,455.109497 408.353516,454.649933 
M404.474396,448.297699 
	C403.396820,448.479340 402.084991,448.345154 402.095612,450.281311 
	C403.994080,451.135468 405.807373,451.290344 407.711578,450.089691 
	C407.035889,448.732910 406.112000,448.466217 404.474396,448.297699 
z"/>
<path fill="#000000" opacity="1.000000" stroke="none" 
	d="
M429.293762,455.030579 
	C428.930939,457.570770 430.321747,460.914154 426.792694,460.977386 
	C422.590088,461.052643 417.594086,463.438202 414.473480,458.403442 
	C412.749481,455.621948 414.632416,452.296570 418.225708,451.157379 
	C420.062012,450.575165 422.220734,451.489502 424.116882,449.776703 
	C422.334381,447.628540 420.305756,448.254700 418.319550,448.921509 
	C416.916595,449.392517 415.569244,449.570953 415.086243,447.840271 
	C414.615356,446.153076 416.024811,445.500977 417.245300,444.983398 
	C422.459564,442.772034 430.583557,444.515625 429.293762,455.030579 
M421.689392,454.450500 
	C420.269257,454.663574 418.674866,454.688873 419.014465,456.933380 
	C420.890564,458.128052 422.832916,458.374420 424.088593,456.403198 
	C425.052673,454.889740 423.507111,454.619812 421.689392,454.450500 
z"/>
<path fill="#000000" opacity="1.000000" stroke="none" 
	d="
M518.469971,448.700989 
	C520.251282,455.551605 518.063599,460.263245 512.963928,461.264893 
	C508.149048,462.210602 503.843964,460.136841 502.229492,456.094025 
	C500.657318,452.157257 502.379913,447.365692 506.094696,445.342621 
	C510.474487,442.957428 514.696472,444.002319 518.469971,448.700989 
M506.652008,451.179688 
	C505.668610,454.290253 506.860596,456.445557 509.818268,457.392395 
	C511.756439,458.012878 513.464844,457.001770 514.348572,455.218445 
	C515.382874,453.131317 515.357117,450.888855 513.379089,449.366058 
	C510.986084,447.523804 508.754242,448.086914 506.652008,451.179688 
z"/>
<path fill="#000000" opacity="1.000000" stroke="none" 
	d="
M550.928223,448.541748 
	C546.021545,449.370178 546.422363,452.904327 546.258118,456.261963 
	C546.171143,458.038666 547.113647,460.955597 544.054565,460.839081 
	C541.244629,460.732117 542.088806,457.909058 541.879944,456.065613 
	C541.768372,455.080383 541.852478,454.072327 541.858093,453.074615 
	C541.905640,444.615967 544.651978,442.488434 553.046326,444.366669 
	C556.267212,445.087341 557.839722,447.318237 558.180054,450.350983 
	C558.456543,452.814667 558.324890,455.330780 558.276794,457.821777 
	C558.247864,459.322113 558.208984,461.073639 556.028992,460.924438 
	C554.316895,460.807312 554.102417,459.322968 554.028748,457.963409 
	C553.938965,456.303986 553.954407,454.639069 553.911560,452.976898 
	C553.861328,451.028320 553.337646,449.354950 550.928223,448.541748 
z"/>
<path fill="#000000" opacity="1.000000" stroke="none" 
	d="
M536.519165,446.754395 
	C539.264709,450.690582 538.078613,454.773376 538.180969,458.687744 
	C538.213440,459.931152 537.653381,460.986298 536.156311,460.991974 
	C534.685852,460.997528 534.111084,459.969604 534.010742,458.732819 
	C533.849792,456.749878 533.846069,454.754120 533.777405,452.763733 
	C533.700806,450.543091 532.900757,448.646973 530.459412,448.576721 
	C527.921570,448.503723 526.558411,450.234711 526.327942,452.679230 
	C526.141418,454.657684 526.223450,456.660004 526.113892,458.647736 
	C526.045288,459.892639 525.590881,460.966187 524.113831,461.017242 
	C522.655884,461.067596 521.958923,460.071655 521.928589,458.818665 
	C521.832275,454.838135 521.853821,450.854187 521.872681,446.871765 
	C521.877808,445.787720 522.476196,444.571777 523.489136,444.697723 
	C527.745422,445.227020 532.485840,442.415955 536.519165,446.754395 
z"/>
<path fill="#000000" opacity="1.000000" stroke="none" 
	d="
M587.231079,444.214783 
	C589.063416,444.470825 590.598694,444.572235 591.934692,445.141418 
	C593.431152,445.779022 595.235596,446.772980 594.206055,448.831329 
	C593.317017,450.608704 591.733337,449.978119 590.349365,449.154205 
	C587.870422,447.678467 585.908081,448.392273 584.382324,450.654449 
	C583.220642,452.376770 583.348572,454.109222 584.599182,455.730743 
	C586.148804,457.739960 588.068604,458.173218 590.287415,456.873322 
	C591.864075,455.949615 593.633545,455.301361 594.360962,457.530548 
	C595.027283,459.572632 593.077515,460.383606 591.564819,460.997620 
	C586.575928,463.022552 581.150024,460.492981 579.466553,455.450775 
	C577.733459,450.259827 580.400146,446.218262 587.231079,444.214783 
z"/>
<path fill="#000000" opacity="1.000000" stroke="none" 
	d="
M449.277283,461.400177 
	C443.762024,462.132812 442.151459,459.106750 441.895416,454.688843 
	C441.725677,451.759613 442.594971,448.508179 439.033630,447.030090 
	C443.972504,439.270905 444.936279,439.266479 450.812103,446.668060 
	C449.165497,448.541931 445.594574,448.943970 446.231110,452.768646 
	C446.625275,455.136871 446.349365,457.176117 449.596191,457.866913 
	C452.501434,458.485046 451.890106,460.123291 449.277283,461.400177 
z"/>
<path fill="#000000" opacity="1.000000" stroke="none" 
	d="
M600.244385,460.596252 
	C596.638550,457.138336 599.150146,452.392242 597.167175,449.115326 
	C595.567078,446.471130 596.401001,445.013702 597.705261,442.996918 
	C599.242371,440.619934 600.665833,439.771759 602.413574,442.683289 
	C603.086487,443.804352 604.332581,443.899628 605.285583,444.511536 
	C606.736572,445.443115 606.735840,446.578522 605.601318,447.797607 
	C600.575439,453.198120 600.893372,455.708405 607.269653,458.965698 
	C605.825806,462.634979 603.222290,461.843292 600.244385,460.596252 
z"/>
<path fill="#000000" opacity="1.000000" stroke="none" 
	d="
M433.013031,458.507080 
	C432.942139,452.748688 432.899048,447.435150 432.957520,442.122711 
	C432.975250,440.513367 432.816559,438.399445 435.092804,438.274963 
	C437.590027,438.138367 437.253723,440.352142 437.272644,441.910553 
	C437.337250,447.222961 437.307587,452.537018 437.257904,457.849915 
	C437.247406,458.973969 437.338318,460.307129 435.956573,460.802734 
	C434.282104,461.403381 433.530884,460.362335 433.013031,458.507080 
z"/>
<path fill="#000000" opacity="1.000000" stroke="none" 
	d="
M647.186523,460.349854 
	C646.102844,457.819427 646.927490,456.519531 649.306091,456.522766 
	C650.798828,456.524780 651.902222,457.567993 651.561951,459.092010 
	C651.031921,461.465637 649.373047,461.638458 647.186523,460.349854 
z"/>
</svg>