<svg width="343" height="335" viewBox="0 0 343 335" fill="none" xmlns="http://www.w3.org/2000/svg">
<path d="M171.5 335C266.217 335 343 293.766 343 242.901C343 192.037 266.217 150.803 171.5 150.803C76.7832 150.803 0 192.037 0 242.901C0 293.766 76.7832 335 171.5 335Z" fill="#FAFAFA"/>
<path d="M269.271 302.356C295.077 302.356 315.997 288.8 315.997 272.078C315.997 255.357 295.077 241.801 269.271 241.801C243.465 241.801 222.545 255.357 222.545 272.078C222.545 288.8 243.465 302.356 269.271 302.356Z" fill="#E0E0E0"/>
<path d="M158.351 217.749L128.409 199.622C127.912 199.355 127.362 199.215 126.804 199.215C126.245 199.215 125.695 199.355 125.198 199.622L25.9607 259.732C25.7662 259.8 25.5971 259.931 25.4773 260.105C25.3574 260.28 25.2929 260.489 25.2929 260.705C25.2929 260.92 25.3574 261.129 25.4773 261.304C25.5971 261.478 25.7662 261.609 25.9607 261.677L55.8949 279.812C56.3935 280.073 56.9433 280.209 57.5008 280.209C58.0582 280.209 58.608 280.073 59.1067 279.812L67.9519 274.453L149.498 225.196L158.358 219.732C158.558 219.664 158.733 219.531 158.856 219.352C158.98 219.174 159.046 218.958 159.045 218.738C159.044 218.517 158.977 218.302 158.852 218.125C158.727 217.947 158.552 217.815 158.351 217.749Z" fill="#E0E0E0"/>
<path d="M292.947 260.818L288.319 258.24C288.319 258.24 288.772 234.542 293.457 216.189C298.257 197.398 312.225 176.641 325.425 184.419C338.624 192.198 315.164 208.184 308.108 223.613C301.052 239.042 292.947 260.818 292.947 260.818Z" fill="#00A991"/>
<path opacity="0.15" d="M292.947 260.818L288.319 258.24C288.319 258.24 288.772 234.542 293.457 216.189C298.257 197.398 312.225 176.641 325.425 184.419C338.624 192.198 315.164 208.184 308.108 223.613C301.052 239.042 292.947 260.818 292.947 260.818Z" fill="black"/>
<path d="M292.336 255.195C292.275 255.193 292.214 255.178 292.158 255.152C292.102 255.125 292.052 255.087 292.01 255.041C291.968 254.994 291.935 254.939 291.913 254.878C291.892 254.818 291.881 254.754 291.883 254.69C292.875 217.915 308.201 195.461 321.027 187.411C321.134 187.344 321.262 187.325 321.382 187.357C321.503 187.388 321.606 187.469 321.67 187.581C321.734 187.693 321.753 187.827 321.723 187.953C321.692 188.08 321.615 188.189 321.509 188.256C308.884 196.177 293.802 218.337 292.818 254.712C292.817 254.777 292.803 254.841 292.779 254.901C292.754 254.961 292.718 255.014 292.673 255.059C292.628 255.104 292.575 255.139 292.518 255.162C292.46 255.186 292.398 255.197 292.336 255.195Z" fill="#FCFCFC" fill-opacity="0.988235"/>
<path d="M295.038 261.948L290.906 259.725C290.906 259.725 291.416 248.087 299.917 232.922C307.461 219.453 322.752 208.9 329.175 212.662C334.162 215.571 335.312 221.948 330.533 226.191C325.755 230.435 303.696 239.336 295.038 261.948Z" fill="#00A991"/>
<path d="M293.378 258.232C294.096 258.383 294.348 256.521 294.492 256.046C294.765 255.157 295.052 254.283 295.368 253.408C295.987 251.708 296.69 250.042 297.474 248.419C298.983 245.295 300.75 242.317 302.755 239.517C304.629 236.896 306.672 234.413 308.87 232.085C310.853 229.992 312.939 228.009 315.121 226.146C316.946 224.578 318.843 223.093 320.79 221.699C322.227 220.674 323.664 219.694 325.166 218.774C325.949 218.292 326.732 217.817 327.544 217.38L327.774 217.259C327.903 217.193 328.001 217.076 328.048 216.934C328.094 216.792 328.085 216.637 328.022 216.502C327.959 216.367 327.848 216.264 327.712 216.215C327.577 216.166 327.429 216.176 327.3 216.242C326.797 216.498 326.316 216.784 325.863 217.071C324.598 217.825 323.362 218.578 322.148 219.423C320.347 220.644 318.589 221.935 316.874 223.297C314.747 224.985 312.704 226.776 310.745 228.671C308.512 230.816 306.409 233.107 304.451 235.53C302.327 238.142 300.405 240.927 298.702 243.859C296.891 246.961 295.375 250.243 294.176 253.657C293.95 254.315 293.735 254.971 293.529 255.624C293.227 256.276 293.044 256.982 292.99 257.705C292.999 257.819 293.038 257.929 293.102 258.023C293.167 258.116 293.255 258.188 293.356 258.232H293.378Z" fill="#FCFCFC" fill-opacity="0.988235"/>
<path d="M58.8983 240.15C58.8983 240.15 59.0133 225.369 53.4734 213.136C47.9335 200.903 39.268 192.627 30.4803 190.735C21.6926 188.844 13.5875 196.456 22.3536 203.549C31.1198 210.641 47.2221 218.85 52.3669 241.823L58.8983 240.15Z" fill="#00A991"/>
<path opacity="0.15" d="M58.8983 240.15C58.8983 240.15 59.0133 225.369 53.4734 213.136C47.9335 200.903 39.268 192.627 30.4803 190.735C21.6926 188.844 13.5875 196.456 22.3536 203.549C31.1198 210.641 47.2221 218.85 52.3669 241.823L58.8983 240.15Z" fill="black"/>
<path d="M55.2338 237.595C55.1421 237.595 55.0539 237.559 54.9871 237.493C54.9203 237.427 54.88 237.337 54.8745 237.241C53.5237 213.581 34.9424 198.197 25.7595 195.574C25.6683 195.548 25.5907 195.485 25.5437 195.399C25.4966 195.313 25.4838 195.211 25.508 195.115C25.5333 195.017 25.5942 194.934 25.6776 194.883C25.761 194.832 25.8601 194.818 25.9535 194.843C35.2944 197.519 54.2207 213.159 55.5931 237.196C55.5953 237.295 55.5617 237.391 55.4991 237.465C55.4364 237.539 55.3494 237.586 55.2554 237.595H55.2338Z" fill="#FCFCFC" fill-opacity="0.988235"/>
<path d="M60.0336 260.441C61.8137 258.084 63.0081 255.301 63.5098 252.341C64.0114 249.381 63.8046 246.337 62.9078 243.482C62.3862 241.757 61.5517 240.155 60.4504 238.763C59.5666 237.67 58.2948 237.105 57.2601 236.193C55.0326 234.256 52.4459 232.198 51.6411 229.123C50.9944 226.673 51.131 224.352 49.8376 222.053C49.0756 220.613 47.862 219.495 46.403 218.887C44.4989 218.134 42.4008 218.631 40.3889 218.887C37.5147 219.227 35.3591 218.186 32.873 216.799C30.1354 215.292 26.9379 214.101 23.9703 215.028C23.0052 215.328 22.1109 215.838 21.3455 216.523C20.58 217.209 19.9604 218.056 19.5269 219.009C19.0933 219.962 18.8555 220.999 18.8287 222.055C18.802 223.11 18.987 224.16 19.3717 225.136C20.0328 226.824 21.2543 228.196 22.1524 229.764C23.0506 231.331 23.5248 233.125 22.871 234.836C22.368 236.103 21.4339 237.098 21.0603 238.386C19.9968 241.778 20.5932 244.793 23.8051 246.542C27.1606 248.343 32.4275 246.987 34.1089 251.411C34.7412 253.092 34.7627 254.953 35.1076 256.725C35.8156 260.289 37.7914 263.437 40.6332 265.528C44.4917 268.34 49.7298 267.654 53.7321 265.694C56.1909 264.477 58.3477 262.678 60.0336 260.441Z" fill="#00A991"/>
<path d="M29.7833 239.035C29.8618 239.049 29.9425 239.035 30.0132 238.997C32.8433 237.849 35.8804 237.373 38.9067 237.603C41.933 237.832 44.8733 238.761 47.5167 240.324C47.6073 240.374 47.7133 240.385 47.8117 240.354C47.91 240.323 47.9925 240.253 48.0413 240.158C48.0665 240.111 48.0826 240.06 48.0887 240.007C48.0947 239.954 48.0906 239.9 48.0765 239.849C48.0625 239.798 48.0387 239.75 48.0068 239.709C47.9748 239.667 47.9352 239.633 47.8904 239.607C45.144 237.99 42.09 237.03 38.948 236.798C35.8059 236.566 32.6539 237.067 29.7186 238.266C29.6496 238.306 29.5937 238.366 29.5584 238.44C29.5231 238.514 29.5101 238.597 29.521 238.679C29.5319 238.761 29.5663 238.837 29.6195 238.898C29.6728 238.959 29.7424 239.001 29.8192 239.02L29.7833 239.035Z" fill="#FCFCFC" fill-opacity="0.988235"/>
<path d="M54.8745 260.569C54.7805 260.571 54.6894 260.534 54.6208 260.466C54.5523 260.399 54.5118 260.306 54.5081 260.207C53.8398 243.173 37.5363 225.158 26.6074 220.259C26.5632 220.24 26.5231 220.212 26.4894 220.177C26.4557 220.141 26.429 220.099 26.411 220.053C26.3929 220.007 26.3838 219.957 26.3842 219.907C26.3846 219.857 26.3945 219.808 26.4134 219.762C26.4527 219.669 26.5254 219.596 26.6156 219.56C26.7058 219.523 26.8061 219.525 26.8948 219.566C37.9961 224.555 54.5512 242.871 55.2338 260.192C55.2357 260.242 55.2281 260.293 55.2115 260.34C55.1948 260.388 55.1694 260.431 55.1367 260.468C55.104 260.505 55.0647 260.535 55.0209 260.556C54.9772 260.578 54.9299 260.589 54.8817 260.591L54.8745 260.569Z" fill="#FCFCFC" fill-opacity="0.988235"/>
<path d="M144.864 17.1657L63.5401 66.3996C62.7348 66.951 62.0655 67.6949 61.5871 68.5701C61.1088 69.4452 60.8349 70.4269 60.7881 71.4345V272.327C60.7881 274.166 62.024 274.912 63.5401 273.985L144.864 224.736C145.664 224.186 146.33 223.447 146.807 222.577C147.285 221.708 147.562 220.733 147.616 219.732V18.8089C147.616 16.9698 146.38 16.216 144.864 17.1657ZM143.657 204.845C143.657 206.421 142.601 207.423 141.3 208.207L66.831 253.325C65.5376 254.079 64.4742 253.476 64.4742 251.893V84.8284C64.4745 83.9645 64.6918 83.116 65.1043 82.3684C65.5168 81.6207 66.1099 81.0004 66.8238 80.5698L141.293 35.4438C141.532 35.2982 141.803 35.2211 142.079 35.2204C142.356 35.2197 142.627 35.2954 142.867 35.4398C143.107 35.5842 143.306 35.7922 143.444 36.043C143.583 36.2938 143.656 36.5784 143.657 36.8683V204.845Z" fill="black"/>
<path d="M143.657 204.845C143.657 206.421 142.601 207.423 141.3 208.207L66.831 253.325C65.5376 254.079 64.4742 253.476 64.4742 251.893V84.8284C64.4745 83.9645 64.6918 83.116 65.1043 82.3684C65.5168 81.6208 66.1099 81.0004 66.8238 80.5698L141.293 35.4438C141.532 35.2982 141.803 35.2211 142.079 35.2204C142.356 35.2197 142.627 35.2954 142.867 35.4398C143.107 35.5842 143.306 35.7922 143.444 36.043C143.583 36.2938 143.656 36.5784 143.657 36.8683V204.845Z" fill="#263238"/>
<path d="M66.831 253.325L141.3 208.222C141.823 207.926 142.306 207.558 142.737 207.129L64.4742 160.895V251.893C64.4742 253.476 65.5376 254.109 66.831 253.325Z" fill="black"/>
<path d="M137.628 201.913V37.6673L66.8238 80.5698C66.1099 81.0004 65.5168 81.6207 65.1043 82.3684C64.6918 83.116 64.4745 83.9645 64.4742 84.8284V248.155L135.271 205.275C136.572 204.491 137.628 203.489 137.628 201.913Z" fill="#00A991"/>
<path d="M63.1952 274.189C62.374 274.552 61.4874 274.724 60.5967 274.693C59.706 274.662 58.8323 274.428 58.0361 274.008L54.8889 272.101C54.0858 271.555 53.4172 270.818 52.9376 269.95C52.4581 269.081 52.1812 268.106 52.1297 267.104V66.1584C52.1478 65.4137 52.3091 64.6805 52.604 64.0027C52.7046 63.7691 52.8123 63.5429 52.9345 63.3093L61.5569 68.5854C61.3757 68.9252 61.2172 69.2778 61.0827 69.6406C60.8734 70.2114 60.7591 70.8157 60.745 71.427V272.327C60.7881 274.023 61.8371 274.792 63.1952 274.189Z" fill="#263238"/>
<path d="M106.631 233.713C108.391 233.713 108.578 235.786 108.578 236.676C108.473 238.458 107.975 240.19 107.123 241.736C106.272 243.282 105.09 244.599 103.67 245.585C103.101 245.964 102.447 246.182 101.773 246.218C100.013 246.218 99.8261 244.145 99.8261 243.256C99.9322 241.474 100.43 239.741 101.28 238.195C102.13 236.648 103.31 235.328 104.727 234.339C105.301 233.965 105.956 233.75 106.631 233.713Z" fill="#00A991"/>
<path d="M104.144 44.986C104.863 44.5338 105.488 44.8955 105.488 45.8C105.462 46.289 105.327 46.7647 105.094 47.1889C104.86 47.6131 104.535 47.9738 104.144 48.2421C103.426 48.6868 102.794 48.325 102.794 47.4281C102.818 46.9379 102.954 46.4608 103.188 46.0362C103.423 45.6116 103.751 45.2517 104.144 44.986Z" fill="#263238"/>
<path d="M95.4646 56.8875C96.1256 56.488 96.6574 56.8121 96.6574 57.6412C96.6355 58.075 96.516 58.4971 96.3086 58.8731C96.1013 59.2491 95.8121 59.5682 95.4646 59.8044C94.8035 60.2039 94.2718 59.8798 94.2718 59.0507C94.2949 58.6172 94.4149 58.1956 94.6221 57.8197C94.8293 57.4439 95.1179 57.1246 95.4646 56.8875Z" fill="#263238"/>
<path d="M99.4525 54.4152L112.81 46.3277C113.529 45.883 114.132 46.1995 114.132 47.0286C114.097 47.4942 113.959 47.9449 113.73 48.3452C113.501 48.7454 113.186 49.0843 112.81 49.3351L99.4525 57.4226C98.7339 57.8673 98.1304 57.5508 98.1304 56.7216C98.1654 56.2561 98.303 55.8054 98.5325 55.4051C98.7619 55.0048 99.0769 54.666 99.4525 54.4152Z" fill="#263238"/>
<path d="M147.587 18.3491C147.386 16.8417 146.243 16.3065 144.871 17.1431L63.5329 66.3996C62.719 66.9296 62.0504 67.6725 61.5928 68.5553L52.9704 63.2792C53.4352 62.4034 54.1054 61.6666 54.9177 61.1386L136.206 11.8896C137.058 11.436 138.001 11.1997 138.958 11.1997C139.914 11.1997 140.857 11.436 141.71 11.8896L144.871 13.789C145.608 14.3017 146.231 14.974 146.7 15.7605C147.168 16.5471 147.471 17.4297 147.587 18.3491Z" fill="black"/>
<path d="M126.254 24.4468C125.832 24.6833 125.362 24.8114 124.884 24.8205C124.405 24.8297 123.932 24.7197 123.502 24.4996C123.358 24.4351 123.233 24.3311 123.141 24.1984C123.048 24.0657 122.992 23.9094 122.977 23.7458C122.977 23.5348 122.977 22.7509 122.977 22.5323C123 22.3442 123.069 22.1656 123.178 22.0137C123.286 21.8619 123.43 21.7419 123.595 21.6655L132.311 16.3894C132.735 16.1546 133.205 16.0275 133.685 16.0183C134.164 16.0092 134.639 16.1182 135.07 16.3366C135.212 16.4041 135.334 16.5091 135.425 16.6413C135.515 16.7735 135.571 16.9283 135.588 17.0904C135.588 17.309 135.588 18.123 135.588 18.334C135.565 18.5232 135.496 18.7031 135.388 18.8563C135.28 19.0094 135.136 19.1307 134.97 19.2084L126.254 24.4468Z" fill="#00A991"/>
<path opacity="0.25" d="M126.254 24.4468C125.832 24.6833 125.362 24.8114 124.884 24.8205C124.405 24.8297 123.932 24.7197 123.502 24.4996C123.358 24.4351 123.233 24.3311 123.141 24.1984C123.048 24.0657 122.992 23.9094 122.977 23.7458C122.977 23.5348 122.977 22.7509 122.977 22.5323C123 22.3442 123.069 22.1656 123.178 22.0137C123.286 21.8619 123.43 21.7419 123.595 21.6655L132.311 16.3894C132.735 16.1546 133.205 16.0275 133.685 16.0183C134.164 16.0092 134.639 16.1182 135.07 16.3366C135.212 16.4041 135.334 16.5091 135.425 16.6413C135.515 16.7735 135.571 16.9283 135.588 17.0904C135.588 17.309 135.588 18.123 135.588 18.334C135.565 18.5232 135.496 18.7031 135.388 18.8563C135.28 19.0094 135.136 19.1307 134.97 19.2084L126.254 24.4468Z" fill="black"/>
<path d="M126.254 23.2483L134.97 17.9722C135.76 17.4898 135.796 16.7436 135.063 16.2989C134.631 16.0805 134.157 15.9714 133.677 15.9806C133.198 15.9898 132.728 16.1169 132.304 16.3517L123.588 21.6278C122.805 22.1027 122.762 22.8489 123.502 23.2936C123.932 23.5131 124.405 23.6234 124.883 23.6155C125.361 23.6077 125.831 23.4819 126.254 23.2483Z" fill="#00A991"/>
<path opacity="0.3" d="M126.254 23.2483L134.97 17.9722C135.76 17.4898 135.796 16.7436 135.063 16.2989C134.631 16.0805 134.157 15.9714 133.677 15.9806C133.198 15.9898 132.728 16.1169 132.304 16.3517L123.588 21.6278C122.805 22.1027 122.762 22.8489 123.502 23.2936C123.932 23.5131 124.405 23.6234 124.883 23.6155C125.361 23.6077 125.831 23.4819 126.254 23.2483Z" fill="black"/>
<path d="M57.5762 96.4359C57.5592 95.9342 57.4292 95.4439 57.1969 95.0051C56.9647 94.5662 56.6367 94.1913 56.2398 93.9109C56.1097 93.8101 55.9557 93.7491 55.7946 93.7344C55.6336 93.7198 55.4718 93.7522 55.3272 93.8279C55.162 93.9335 54.5009 94.3179 54.3285 94.4309C54.1841 94.5456 54.0706 94.6975 53.9988 94.8718C53.9271 95.0462 53.8995 95.237 53.9189 95.4259V117.827C53.9363 118.328 54.0656 118.817 54.2965 119.256C54.5274 119.694 54.8534 120.07 55.2482 120.352C55.3781 120.443 55.5282 120.499 55.6843 120.512C55.8403 120.525 55.997 120.496 56.1392 120.427C56.326 120.329 56.9942 119.922 57.1739 119.809C57.3182 119.694 57.4317 119.543 57.5035 119.368C57.5753 119.194 57.6028 119.003 57.5834 118.814L57.5762 96.4359Z" fill="#00A991"/>
<path opacity="0.3" d="M57.5762 96.4359C57.5592 95.9342 57.4292 95.4439 57.1969 95.0051C56.9647 94.5662 56.6367 94.1913 56.2398 93.9109C56.1097 93.8101 55.9557 93.7491 55.7946 93.7344C55.6336 93.7198 55.4718 93.7522 55.3272 93.8279C55.162 93.9335 54.5009 94.3179 54.3285 94.4309C54.1841 94.5456 54.0706 94.6975 53.9988 94.8718C53.9271 95.0462 53.8995 95.237 53.9189 95.4259V117.827C53.9363 118.328 54.0656 118.817 54.2965 119.256C54.5274 119.694 54.8534 120.07 55.2482 120.352C55.3781 120.443 55.5282 120.499 55.6843 120.512C55.8403 120.525 55.997 120.496 56.1392 120.427C56.326 120.329 56.9942 119.922 57.1739 119.809C57.3182 119.694 57.4317 119.543 57.5035 119.368C57.5753 119.194 57.6028 119.003 57.5834 118.814L57.5762 96.4359Z" fill="black"/>
<path d="M56.5847 97.0614V119.462C56.5847 120.412 55.9883 120.819 55.2482 120.374C54.8534 120.092 54.5274 119.717 54.2965 119.278C54.0656 118.84 53.9363 118.35 53.9189 117.849V95.4258C53.9189 94.4686 54.5153 94.0616 55.2482 94.5063C55.6481 94.7905 55.9779 95.1704 56.2103 95.6147C56.4426 96.059 56.571 96.5549 56.5847 97.0614Z" fill="#00A991"/>
<path opacity="0.4" d="M56.5847 97.0614V119.462C56.5847 120.412 55.9883 120.819 55.2482 120.374C54.8534 120.092 54.5274 119.717 54.2965 119.278C54.0656 118.84 53.9363 118.35 53.9189 117.849V95.4258C53.9189 94.4686 54.5153 94.0616 55.2482 94.5063C55.6481 94.7905 55.9779 95.1704 56.2103 95.6147C56.4426 96.059 56.571 96.5549 56.5847 97.0614Z" fill="black"/>
<path d="M57.5762 126.457C57.5592 125.955 57.4292 125.465 57.1969 125.026C56.9647 124.587 56.6367 124.212 56.2398 123.932C56.1097 123.831 55.9557 123.77 55.7946 123.756C55.6336 123.741 55.4718 123.773 55.3272 123.849C55.162 123.955 54.5009 124.339 54.3285 124.452C54.1842 124.567 54.0706 124.719 53.9988 124.893C53.9271 125.067 53.8995 125.258 53.9189 125.447V135.999C53.9374 136.499 54.0672 136.987 54.2981 137.424C54.529 137.861 54.8544 138.235 55.2482 138.517C55.3738 138.614 55.522 138.675 55.6774 138.692C55.8328 138.709 55.9897 138.683 56.132 138.615C56.3188 138.517 56.987 138.11 57.1667 137.997C57.3104 137.883 57.4236 137.733 57.4954 137.56C57.5672 137.387 57.595 137.197 57.5762 137.009V126.457Z" fill="#00A991"/>
<path opacity="0.3" d="M57.5762 126.457C57.5592 125.955 57.4292 125.465 57.1969 125.026C56.9647 124.587 56.6367 124.212 56.2398 123.932C56.1097 123.831 55.9557 123.77 55.7946 123.756C55.6336 123.741 55.4718 123.773 55.3272 123.849C55.162 123.955 54.5009 124.339 54.3285 124.452C54.1842 124.567 54.0706 124.719 53.9988 124.893C53.9271 125.067 53.8995 125.258 53.9189 125.447V135.999C53.9374 136.499 54.0672 136.987 54.2981 137.424C54.529 137.861 54.8544 138.235 55.2482 138.517C55.3738 138.614 55.522 138.675 55.6774 138.692C55.8328 138.709 55.9897 138.683 56.132 138.615C56.3188 138.517 56.987 138.11 57.1667 137.997C57.3104 137.883 57.4236 137.733 57.4954 137.56C57.5672 137.387 57.595 137.197 57.5762 137.009V126.457Z" fill="black"/>
<path d="M56.5847 127.022V137.575C56.5847 138.524 55.9883 138.939 55.2482 138.487C54.8534 138.205 54.5274 137.829 54.2965 137.39C54.0656 136.952 53.9363 136.462 53.9189 135.962V125.409C53.9189 124.46 54.5153 124.045 55.2482 124.49C55.6444 124.773 55.9718 125.149 56.2039 125.589C56.4361 126.029 56.5665 126.52 56.5847 127.022Z" fill="#00A991"/>
<path opacity="0.4" d="M56.5847 127.022V137.575C56.5847 138.524 55.9883 138.939 55.2482 138.487C54.8534 138.205 54.5274 137.829 54.2965 137.39C54.0656 136.952 53.9363 136.462 53.9189 135.962V125.409C53.9189 124.46 54.5153 124.045 55.2482 124.49C55.6444 124.773 55.9718 125.149 56.2039 125.589C56.4361 126.029 56.5665 126.52 56.5847 127.022Z" fill="black"/>
<path d="M81.3885 107.757C81.4599 108.123 81.556 108.483 81.6759 108.835C82.1429 110.161 82.9836 111.412 82.9118 112.829C82.8327 114.427 81.6328 115.664 80.7131 116.937C79.5178 118.622 78.7212 120.58 78.3889 122.65C78.0566 124.721 78.1981 126.844 78.8018 128.846C79.6852 131.285 80.9106 133.571 82.4376 135.63L85.9081 140.793C86.9575 142.239 88.2968 143.425 89.8313 144.268C92.8134 146.036 96.1409 147.067 99.5602 147.283C105.181 147.681 110.772 146.143 115.483 142.903C120.477 139.436 118.278 130.542 123.387 127.294C129.566 123.374 132.512 109.762 124.939 104.079C124.939 104.079 126.16 95.7424 123.919 93.6168C121.684 91.6558 118.92 90.48 116.015 90.2552C112.005 89.818 107.989 90.6396 103.986 90.6245C99.8664 90.6106 95.75 90.88 91.6635 91.431C90.2265 91.6345 88.2002 92.1847 87.4242 93.6545C87.2051 94.231 87.1453 94.8605 87.2517 95.471C87.2406 96.4395 86.9106 97.3742 86.3176 98.1166C85.4267 99.2472 84.162 100.008 83.2136 101.071C82.4309 101.957 81.8579 103.024 81.5409 104.186C81.2238 105.347 81.1716 106.57 81.3885 107.757Z" fill="#263238"/>
<path d="M121.267 119.786C127.734 119.975 128.575 121.422 134.366 127.437C139.18 132.434 155.132 147.878 155.132 147.878L174.245 153.215L169.732 165.448C169.732 165.448 165.421 165.259 156.799 165.252C151.503 165.252 149.664 164.008 144.332 160.277C141.616 158.37 126.29 147.848 126.29 147.848L121.267 119.786Z" fill="#E6E6E6"/>
<path d="M195.391 128.477L160.363 141.426L150.706 185.143L151.489 186.017L184.793 172.985L196.167 129.351L195.391 128.477Z" fill="#00A991"/>
<path opacity="0.35" d="M161.139 142.3L151.489 186.017L150.706 185.143L160.363 141.426L161.139 142.3Z" fill="black"/>
<path opacity="0.25" d="M196.167 129.351L161.139 142.3L151.489 186.017L184.793 172.985L196.167 129.351Z" fill="black"/>
<g opacity="0.2">
<path d="M179.584 164.091C179.907 164.95 182.594 166.842 186.481 166.503L187.135 163.985L179.584 164.091Z" fill="black"/>
</g>
<g opacity="0.1">
<path d="M185.619 138.306L185.907 136.836C186.065 136.029 184.01 136.452 181.315 137.786L174.992 139.791C172.298 141.125 169.754 142.12 169.589 142.926L169.301 144.388L185.619 138.306Z" fill="black"/>
</g>
<path d="M187.703 131.673C187.804 131.168 186.984 131.273 185.885 131.582L183.866 132.298C183.866 132.298 184.692 130.173 179.914 131.545C174.662 133.052 174.547 135.788 174.547 135.788C173.725 136.162 172.883 136.484 172.025 136.753C170.278 137.348 170.092 137.703 169.948 138.215L169.689 139.142L187.545 132.555C187.545 132.555 187.631 132.178 187.703 131.673Z" fill="black"/>
<path d="M185.82 134.484C184.168 135.238 183.485 135.653 183.234 136.904C182.953 138.328 182.896 138.924 182.896 138.924L173.598 142.768C173.598 142.768 174.101 140.665 174.223 139.964C174.345 139.263 173.117 139.263 171.507 140.039L171.888 138.291L186.352 132.66L185.82 134.484Z" fill="black"/>
<path d="M186.093 138.328C186.093 138.328 186.23 137.673 186.388 136.859C186.546 136.045 184.491 136.474 181.797 137.808L175.473 139.813C172.779 141.147 170.228 142.142 170.07 142.949L169.783 144.456L186.093 138.328Z" fill="black"/>
<path d="M192.273 144.305C192.273 144.305 191.03 149.099 190.699 150.335C190.369 151.571 184.635 154.323 181.768 154.699C176.278 155.415 175.653 156.659 176.968 160.729C178.19 164.498 181.761 165.93 186.719 165.319C189.047 165.033 192.258 162.87 193.523 159.094C195.133 154.27 194.242 149.122 194.91 146.28C195.578 143.439 193.667 142.625 192.273 144.305Z" fill="#FFA8A7"/>
<path d="M137.995 210.227L134.28 212.488L132.721 213.43L112.286 225.799L109.498 227.457L104.791 230.306L106.228 214.923L108.973 185.135V184.826L109.102 183.492L112.695 144.547L114.269 127.505L114.822 121.392L115.009 119.417H115.109C116.774 118.932 118.532 118.932 120.197 119.417C120.568 119.535 120.928 119.686 121.274 119.869C123.43 120.992 124.867 123.178 126.06 125.477C126.353 126.037 126.617 126.613 126.85 127.203C127.736 129.437 128.419 131.754 128.891 134.122C129.832 138.494 131.046 142.964 131.528 150.011C131.604 151.825 131.512 153.643 131.255 155.438C130.931 160.189 130.876 164.956 131.09 169.714C131.693 180.492 134.28 185.376 137.995 210.227Z" fill="#E0E0E0"/>
<path d="M132.721 213.415L112.286 225.784L109.498 227.457L104.791 230.306L101.551 232.266L81.8771 244.175C82.0855 235.884 82.1789 226.892 81.9921 218.397C81.9346 215.556 81.913 212.654 82.028 209.684C82.4016 199.373 84.2698 188.316 90.9666 176.678L91.2755 176.09C92.0659 181.012 99.2513 184.208 105.718 184.962L106.437 185.03C107.249 185.113 108.089 185.15 108.959 185.15H109.505C114.973 185.097 121.447 183.748 128.905 181.103C129.624 185.474 130.342 191.21 131.111 197.918C131.456 200.933 131.806 204.147 132.16 207.559C132.304 209.466 132.527 211.418 132.721 213.415Z" fill="#FFA8A7"/>
<path d="M134.28 212.473L132.721 213.415L112.286 225.784L109.498 227.457L104.791 230.306L101.551 232.266L81.8771 244.175L79.7215 245.479C79.8293 236.555 79.9011 227.812 79.8939 222.324C79.8939 217.222 80.0017 212.684 80.2676 208.659C80.7921 200.715 81.8843 194.738 83.7094 190.215C85.8508 185.266 88.3841 180.513 91.2827 176.007C91.2827 176.007 93.0791 182.369 106.516 183.371H106.602C107.392 183.432 108.226 183.469 109.102 183.484H110.123C126.85 183.484 128.697 179.06 128.697 179.06C130.331 185.566 131.624 192.161 132.57 198.815C132.924 201.167 133.267 203.68 133.597 206.353C133.842 208.312 134.071 210.348 134.28 212.473Z" fill="#00A991"/>
<path opacity="0.4" d="M134.28 212.473L132.721 213.415L112.286 225.784L109.498 227.457L104.791 230.306L101.551 232.266L81.8771 244.175L79.7215 245.479C79.8293 236.555 79.9011 227.812 79.8939 222.324C79.8939 217.222 80.0017 212.684 80.2676 208.659C80.7921 200.715 81.8843 194.738 83.7094 190.215C85.8508 185.266 88.3841 180.513 91.2827 176.007C91.2827 176.007 93.0791 182.369 106.516 183.371H106.602C107.392 183.432 108.226 183.469 109.102 183.484H110.123C126.85 183.484 128.697 179.06 128.697 179.06C130.331 185.566 131.624 192.161 132.57 198.815C132.924 201.167 133.267 203.68 133.597 206.353C133.842 208.312 134.071 210.348 134.28 212.473Z" fill="black"/>
<path opacity="0.2" d="M124.687 202.471C124.687 202.471 122.819 208.697 114.958 212.187L114.585 214.094L112.286 225.784L109.498 227.457L111.165 214.561L111.883 208.953C116.741 208.425 121.27 206.132 124.687 202.471Z" fill="black"/>
<path d="M100.782 121.219L92.8779 122.093C87.6469 123.435 85.2829 125.862 84.744 130.708C84.4926 132.969 83.192 138.999 85.0171 146.536C86.6697 153.38 91.0815 170.128 91.0815 170.128C91.0815 170.128 80.9286 184.027 79.0892 207.86C97.6705 220.583 126.175 213.747 133.885 206.059C133.238 198.778 128.805 178.796 128.251 172.307C128.251 172.307 128.661 162.169 129.43 157.775C135.307 151.044 134.56 144.607 131.923 139.414C127.051 129.826 119.708 121.399 117.33 121.407L100.782 121.219Z" fill="#00A991"/>
<path opacity="0.7" d="M100.782 121.219L92.8779 122.093C87.6469 123.435 85.2829 125.862 84.744 130.708C84.4926 132.969 83.192 138.999 85.0171 146.536C86.6697 153.38 91.0815 170.128 91.0815 170.128C91.0815 170.128 80.9286 184.027 79.0892 207.86C97.6705 220.583 126.175 213.747 133.885 206.059C133.238 198.778 128.805 178.796 128.251 172.307C128.251 172.307 128.661 162.169 129.43 157.775C135.307 151.044 134.56 144.607 131.923 139.414C127.051 129.826 119.708 121.399 117.33 121.407L100.782 121.219Z" fill="#FCFCFC" fill-opacity="0.988235"/>
<path d="M107.629 173.113C107.629 173.264 107.629 173.4 107.629 173.513V173.709C107.634 173.771 107.634 173.834 107.629 173.897C107.356 176.912 107.033 180.115 106.688 183.379C106.688 183.379 106.688 183.379 106.688 183.424C106.638 183.952 106.58 184.479 106.523 185.015C105.467 194.851 104.209 205.365 103.239 214.938C103.002 217.259 102.786 219.52 102.592 221.721C102.291 225.015 101.967 228.626 101.637 232.274L81.9633 244.183L79.8077 245.487L74.3109 248.811C75.4175 237.391 77.997 210.935 79.4341 198.996C79.5993 197.647 79.8149 196.298 80.0592 194.956L80.2532 193.976L80.3394 193.577C80.4328 193.125 80.5262 192.688 80.6268 192.243C80.7274 191.798 80.8208 191.421 80.9143 191.022C81.137 190.11 81.3741 189.213 81.6328 188.339C81.7549 187.916 81.8699 187.494 81.9992 187.08C82.1286 186.665 82.2364 186.251 82.3657 185.844C82.6244 185.03 82.8759 184.231 83.1417 183.454C83.1386 183.439 83.1386 183.424 83.1417 183.409C83.2639 183.04 83.3932 182.655 83.5225 182.309C83.695 181.796 83.8746 181.299 84.0543 180.801L84.2698 180.206C84.3776 179.934 84.471 179.671 84.5716 179.407C84.9237 178.48 85.2901 177.598 85.6135 176.776C85.6853 176.595 85.7644 176.414 85.8362 176.241C85.9081 176.068 86.023 175.811 86.1093 175.6C86.3248 175.073 86.5404 174.583 86.7488 174.093C86.835 173.882 86.9284 173.678 87.0146 173.482C87.1008 173.286 87.223 173.03 87.3164 172.819L87.4529 172.518L87.5966 172.224C87.606 172.185 87.6232 172.149 87.6469 172.118C87.6665 172.063 87.6906 172.01 87.7188 171.96C87.7362 171.926 87.7506 171.891 87.7619 171.854C87.8217 171.748 87.8745 171.637 87.92 171.523L88.4014 170.543C88.4014 170.49 88.4517 170.452 88.4661 170.407L88.6529 170.045L82.6747 144.042L79.6999 131.123V130.912C79.8365 129.766 80.749 124.362 86.0087 122.718C88.9781 121.914 92.0198 121.439 95.0838 121.301C96.2622 121.226 97.3256 121.196 98.195 121.173H99.5674H100.394C100.396 121.191 100.396 121.209 100.394 121.226C100.437 121.339 100.559 121.678 100.746 122.206C100.766 122.294 100.795 122.38 100.832 122.462C100.833 122.475 100.833 122.487 100.832 122.5C102.125 126.223 105.754 137.062 107.558 146.476C107.874 148.104 108.132 149.695 108.319 151.202C108.858 155.913 108.463 163.797 107.629 173.113Z" fill="#FAFAFA"/>
<path d="M88.8469 157.594C88.8469 157.594 89.5654 153.878 90.6217 145.851C91.8504 136.595 91.4121 132.02 90.0828 129.095L82.5884 144.087L88.5667 170.091C88.5667 170.091 82.4232 181.894 79.9442 194.964C85.8218 177.545 92.2527 172.352 92.2527 172.352L88.8469 157.594Z" fill="#E6E6E6"/>
<path d="M115.102 115.415C117.43 115.415 117.703 115.822 119.708 118.641C120.901 120.322 128.453 133.399 128.453 133.399C128.453 133.399 122.446 125.108 117.912 122.59C117.039 122.054 116.094 121.657 115.109 121.415L115.102 115.415Z" fill="#EBEBEB"/>
<path d="M97.8861 143.205C97.8861 142.451 97.8142 140.823 97.6921 138.773C97.0957 128.718 96.8083 119.673 100.042 118.92L100.322 120.307C97.9651 120.842 98.7411 133.783 99.0357 138.652C99.165 140.748 99.2656 142.421 99.2297 143.235L97.8861 143.205Z" fill="#00A991"/>
<path d="M87.108 77.3739L92.1378 81.6928C92.4112 81.3645 92.6179 80.9811 92.7452 80.5661C92.8724 80.1511 92.9176 79.7132 92.8779 79.2792C92.8382 78.8453 92.7145 78.4244 92.5143 78.0423C92.3142 77.6603 92.0418 77.3251 91.7138 77.0573C91.0526 76.4837 90.2072 76.1969 89.351 76.2558C88.4947 76.3146 87.6923 76.7146 87.108 77.3739Z" fill="#263238"/>
<path d="M100.243 116.056C100.243 112.747 92.8922 107.764 89.0984 100.808C85.3045 93.8506 87.2014 82.4089 92.4036 80.6527C92.4468 80.6527 92.5905 79.1829 92.612 79.0774C92.8997 77.7499 93.3846 76.4781 94.0491 75.3087C96.1688 71.4797 100.66 68.5251 104.827 67.907C121.303 65.3896 128.876 72.1053 131.902 79.4919C132.882 81.9767 133.319 84.6605 133.181 87.3458C133.096 89.3181 132.398 91.2071 131.194 92.7245C129.99 94.2419 128.346 95.3045 126.513 95.75L100.243 116.056Z" fill="#263238"/>
<path d="M123.099 77.0196C126.326 78.5271 129.394 83.6751 129.344 98.1618C129.3 110.448 125.708 113.553 123.897 114.465C122.086 115.377 118.544 114.91 115.102 114.36V121.415C115.102 121.415 117.682 124.075 116.776 125.748C115.871 127.422 112.53 128.839 107.335 127.128C101.45 125.191 100.106 121.098 100.106 121.098L99.9698 105.616C99.9698 105.616 97.9938 107.795 94.5089 104.599C91.6348 101.953 90.6001 97.4232 92.7629 94.9359C94.9257 92.4485 97.6992 92.2526 100.2 95.0338L101.996 94.0389C105.201 93.647 109.9 93.0817 113.363 91.2501C122.244 86.5091 123.164 81.3687 123.099 77.0196Z" fill="#FFA8A7"/>
<path d="M100.25 93.0289L100.293 99.8125C100.708 99.8241 101.122 99.7464 101.507 99.5843C101.893 99.4222 102.243 99.1791 102.536 98.8699C102.828 98.5607 103.058 98.1919 103.21 97.7863C103.361 97.3807 103.433 96.9467 103.419 96.5112C103.411 95.6172 103.079 94.7597 102.491 94.113C101.902 93.4663 101.101 93.0787 100.25 93.0289Z" fill="#263238"/>
<path d="M123.401 93.9937C123.404 94.3124 123.496 94.6232 123.666 94.8875C123.836 95.1518 124.076 95.358 124.357 95.4805C124.637 95.603 124.946 95.6365 125.244 95.5767C125.543 95.5169 125.818 95.3666 126.036 95.1443C126.253 94.922 126.404 94.6375 126.469 94.3261C126.534 94.0148 126.511 93.6903 126.402 93.3928C126.293 93.0953 126.103 92.838 125.855 92.6527C125.608 92.4675 125.314 92.3624 125.011 92.3506C124.802 92.3456 124.594 92.3843 124.399 92.4646C124.205 92.5448 124.027 92.6649 123.877 92.8179C123.727 92.9709 123.608 93.1537 123.526 93.3555C123.445 93.5574 123.402 93.7744 123.401 93.9937Z" fill="black"/>
<path d="M111.007 94.7173C110.994 94.951 111.025 95.185 111.099 95.4059C111.173 95.6268 111.287 95.8302 111.436 96.0046C111.585 96.1789 111.765 96.3207 111.967 96.4219C112.168 96.5231 112.386 96.5816 112.609 96.5941C112.835 96.5961 113.059 96.5512 113.269 96.462C113.478 96.3729 113.669 96.2412 113.83 96.0745C113.991 95.9078 114.119 95.7095 114.206 95.4908C114.294 95.2721 114.34 95.0374 114.341 94.8002C114.348 94.5706 114.311 94.3417 114.234 94.1267C114.157 93.9117 114.04 93.7148 113.89 93.5472C113.741 93.3795 113.561 93.2445 113.361 93.1498C113.162 93.055 112.946 93.0024 112.727 92.995C112.508 92.9876 112.29 93.0255 112.085 93.1065C111.88 93.1875 111.693 93.3101 111.533 93.4672C111.373 93.6244 111.244 93.813 111.154 94.0223C111.064 94.2316 111.014 94.4575 111.007 94.6872V94.7173Z" fill="black"/>
<path d="M127.511 90.9562L123.509 89.2904C123.602 89.008 123.749 88.7486 123.941 88.5285C124.134 88.3084 124.367 88.1324 124.628 88.0114C124.888 87.8904 125.169 87.8271 125.454 87.8254C125.739 87.8237 126.021 87.8837 126.283 88.0015C126.81 88.2343 127.232 88.6709 127.46 89.221C127.689 89.7711 127.707 90.3924 127.511 90.9562Z" fill="black"/>
<path d="M119.607 92.6671L119.406 102.722L124.558 101.524L119.607 92.6671Z" fill="#F28F8F"/>
<path d="M113.536 104.772L118.566 106.408C118.492 106.767 118.349 107.107 118.146 107.407C117.942 107.706 117.682 107.958 117.381 108.148C117.081 108.337 116.746 108.46 116.399 108.508C116.051 108.556 115.698 108.529 115.361 108.428C114.671 108.176 114.098 107.658 113.759 106.979C113.42 106.3 113.34 105.511 113.536 104.772Z" fill="#B16668"/>
<path d="M116.316 108.518C116.311 107.784 116.029 107.083 115.532 106.566C115.036 106.049 114.365 105.759 113.665 105.759C113.596 105.756 113.526 105.756 113.457 105.759C113.482 106.348 113.676 106.916 114.013 107.387C114.35 107.859 114.815 108.214 115.346 108.405C115.659 108.513 115.989 108.552 116.316 108.518Z" fill="#F28F8F"/>
<path d="M115.102 114.397C111.474 113.945 103.994 111.759 102.779 108.571C103.266 110.171 104.2 111.581 105.459 112.618C107.716 114.654 115.102 116.772 115.102 116.772V114.397Z" fill="#F28F8F"/>
<path d="M100.07 115.452C99.1219 115.249 98.2813 115.686 97.5052 117.058C96.7292 118.43 95.0263 121.354 95.0263 121.354C95.0263 121.354 94.1425 130.994 95.0263 133.414C95.7879 135.494 104.188 143.295 104.188 143.295C104.188 143.295 101.996 151.956 101.917 154.797C101.838 157.639 106.947 168.425 107.565 173.942C107.565 173.942 109.383 156.606 108.599 150.358C107.249 139.527 102.406 125.537 100.121 121.09L100.07 115.452Z" fill="#EBEBEB"/>
<path d="M105.208 151.33C104.647 149.931 103.987 148.578 103.232 147.283C102.039 145.21 100.566 143.22 99.2369 142.707C99.0354 142.624 98.8213 142.578 98.6046 142.572H98.5327C98.3139 142.585 98.0993 142.641 97.9004 142.738C96.8514 143.228 95.7448 144.727 94.8466 146.454C93.9268 148.187 93.1688 150.009 92.5833 151.896C92.2384 153.064 92.3893 155.544 92.7988 158.378C93.6036 163.88 95.3927 170.754 96.3915 172.111C97.1235 173.059 97.9884 173.885 98.9567 174.56C98.3638 174.972 97.7241 175.303 97.0526 175.548C96.6727 175.693 96.2713 175.767 95.867 175.766V176.754H95.9819C96.4091 176.747 96.8329 176.673 97.2394 176.535C98.1812 176.214 99.0706 175.744 99.8764 175.141C100.727 175.672 101.65 176.063 102.614 176.301C103.068 176.416 103.537 176.446 104.001 176.392L103.886 175.412C103.483 175.448 103.078 175.415 102.686 175.314C101.995 175.125 101.328 174.846 100.703 174.485C101.615 173.723 102.414 172.824 103.074 171.817C103.634 170.92 104.324 167.829 104.841 164.279C105.158 162.161 105.416 159.885 105.56 157.812C105.718 154.918 105.646 152.438 105.208 151.33ZM102.24 171.274C101.566 172.294 100.739 173.193 99.7902 173.935C98.7825 173.282 97.8843 172.459 97.1316 171.5C96.1975 170.226 94.473 163.518 93.697 158.227C93.3018 155.551 93.1581 153.237 93.4743 152.197C94.0602 150.288 94.8357 148.449 95.7879 146.71C96.7795 144.916 97.8358 143.597 98.5687 143.567C99.4381 143.567 100.846 145.217 102.161 147.335C102.427 147.75 102.679 148.202 102.923 148.654C103.459 149.628 103.939 150.635 104.36 151.669C104.755 152.694 104.798 155.008 104.619 157.699C104.518 159.207 104.36 160.782 104.159 162.35C103.613 166.443 102.844 170.279 102.24 171.251V171.274Z" fill="black"/>
<path d="M105.287 175.811C105.298 176.099 105.228 176.384 105.085 176.63C104.941 176.875 104.732 177.071 104.483 177.191C104.233 177.312 103.956 177.353 103.685 177.308C103.413 177.263 103.161 177.134 102.96 176.939C102.758 176.743 102.616 176.489 102.553 176.209C102.489 175.929 102.506 175.636 102.601 175.366C102.696 175.096 102.866 174.861 103.088 174.692C103.31 174.524 103.576 174.428 103.85 174.417C104.217 174.403 104.574 174.541 104.843 174.803C105.112 175.064 105.272 175.427 105.287 175.811Z" fill="#263238"/>
<path d="M97.2322 176.203C97.2448 176.491 97.1756 176.777 97.0333 177.023C96.8911 177.27 96.6822 177.467 96.4332 177.589C96.1841 177.71 95.9062 177.752 95.6347 177.708C95.3631 177.664 95.1102 177.536 94.908 177.341C94.7057 177.146 94.5634 176.892 94.4989 176.612C94.4344 176.331 94.4507 176.037 94.5457 175.767C94.6408 175.497 94.8103 175.262 95.0327 175.093C95.2552 174.923 95.5205 174.827 95.7951 174.817C95.9763 174.808 96.1573 174.838 96.3276 174.903C96.498 174.969 96.6543 175.069 96.7878 175.197C96.9213 175.326 97.0292 175.481 97.1055 175.654C97.1818 175.827 97.2248 176.013 97.2322 176.203Z" fill="#263238"/>
<path d="M105.445 157.797L104.647 157.737C104.566 157.729 104.491 157.689 104.437 157.624C104.384 157.56 104.356 157.476 104.36 157.39C104.525 154.624 104.439 152.589 104.116 151.775C102.722 148.202 99.8046 143.725 98.5759 143.778C97.3472 143.831 94.8036 148.556 93.697 152.235C93.4455 153.079 93.5246 155.114 93.9054 157.858C93.9179 157.941 93.8986 158.027 93.8516 158.096C93.8045 158.165 93.7336 158.212 93.6539 158.227L92.8635 158.355C92.7807 158.366 92.6971 158.342 92.6312 158.288C92.5652 158.234 92.5222 158.155 92.5114 158.069C92.0731 154.993 92.0228 152.883 92.3533 151.79C92.9425 149.815 95.7233 142.421 98.5184 142.3C101.313 142.18 104.683 149.295 105.431 151.217C105.84 152.272 105.962 154.383 105.776 157.481C105.77 157.568 105.733 157.65 105.671 157.709C105.609 157.768 105.528 157.799 105.445 157.797Z" fill="#00A991"/>
<path d="M88.2146 122.621C82.9549 122.53 80.5263 124.392 77.1922 129.072C74.548 132.788 64.2586 152.868 60.8456 158.732L42.2642 148.315C38.5063 145.594 37.292 141.298 34.9136 138.788C32.5353 136.278 30.0707 135.773 27.4552 133.7C24.8398 131.628 23.7763 130.015 23.0219 131.952C22.2674 133.889 25.1775 137.024 25.7308 137.801C26.284 138.577 29.2013 140.303 25.4146 140.363C21.6279 140.424 14.1336 136.308 12.3085 135.577C10.4834 134.846 10.5912 137.13 11.4894 138.592C12.3876 140.054 12.3444 144.185 13.8605 146.574C15.4629 149.107 16.3395 150.207 19.9106 151.85C23.2303 153.358 30.2 153.961 33.728 156.275C37.2561 158.589 46.0006 166.744 51.3178 171.636C58.0792 177.854 62.7425 178.992 66.5076 175.261C70.165 171.244 73.8726 166.533 75.6833 164.144C80.5622 157.699 88.2792 143.039 88.2792 143.039C88.2792 143.039 91.6204 135.502 88.2146 122.621Z" fill="#FFA8A7"/>
<path d="M88.9403 122.07C81.1945 122.07 78.8808 125.01 74.9145 131.801C70.9482 138.592 60.7737 158.031 60.7737 158.031L46.1228 149.981C46.1228 149.981 43.4858 156.071 40.6835 162.35C40.6835 162.35 48.9754 169.887 52.8986 173.452C56.8218 177.017 62.024 179.814 66.8453 175.45C71.9972 170.792 88.7032 146.589 88.7032 146.589C92.6695 139.037 91.7857 127.588 88.9403 122.07Z" fill="#F0F0F0"/>
<path d="M60.7737 158.031C63.1664 160.986 66.0621 164.31 65.9328 166.925C65.9328 166.925 67.5711 164.603 61.8156 156.049L60.7737 158.031Z" fill="#E0E0E0"/>
<path d="M33.0598 85.5444L27.0672 89.1473L27.0888 81.9265L22.6051 79.2131L12.1504 85.5444V98.2072L1.69575 104.539V117.201L6.17941 119.915L12.1504 116.297V123.54L16.6341 126.254L27.0888 119.915V107.252L37.5435 100.921V88.2579L33.0598 85.5444Z" fill="#00A991"/>
<path d="M6.17941 107.252V119.915L16.6341 113.583V126.254L27.0888 119.915V107.252L37.5435 100.921V88.2579L27.0529 94.6118L27.0888 81.9265L16.6341 88.2579V100.921L6.17941 107.252Z" fill="#00A991"/>
<g opacity="0.2">
<path d="M6.17941 119.915L1.69575 117.201V104.539L6.17941 107.252V119.915Z" fill="black"/>
<path d="M16.6341 88.2579L12.1504 85.5444V98.2071L16.6341 100.921V88.2579Z" fill="black"/>
<path d="M16.6341 126.254L12.1504 123.54V116.297L16.6341 113.583V126.254Z" fill="black"/>
</g>
<g opacity="0.5">
<path d="M16.6341 100.921L12.1504 98.2072L1.69575 104.539L6.17941 107.252L16.6341 100.921Z" fill="#FCFCFC" fill-opacity="0.988235"/>
<path d="M27.0888 81.9265L22.6051 79.2131L12.1504 85.5444L16.6341 88.2579L27.0888 81.9265Z" fill="#FCFCFC" fill-opacity="0.988235"/>
<path d="M37.5435 88.2579L33.0598 85.5444L27.0672 89.1473L27.0529 94.6118L37.5435 88.2579Z" fill="#FCFCFC" fill-opacity="0.988235"/>
</g>
<path d="M205.02 60.1286C204.83 59.9561 204.625 59.8022 204.409 59.6688C203.647 59.1939 200.198 57.1136 200.019 57.0006C198.194 55.7795 195.305 56.0509 192.733 57.4151C189.047 59.3673 185.978 63.4902 183.636 70.3567C183.636 70.3567 181.265 68.5704 180.496 68.0955C178.592 67.0026 176.364 67.5302 173.857 69.2412C171.033 71.1708 169.107 73.6732 167.347 77.4569V77.5247C165.821 80.7376 164.987 84.2627 164.904 87.8509C164.904 95.7877 168.001 99.5714 172.032 102.413C173.181 103.227 176.221 104.938 176.523 105.149C178.955 106.834 181.646 108.068 184.477 108.797L188.45 109.769L192.424 103.988C195.317 99.7257 197.972 95.2914 200.378 90.7075C204.409 82.9818 207.563 75.4143 207.506 67.5076C207.448 64.1234 206.521 61.636 205.02 60.1286Z" fill="#00A991"/>
<path opacity="0.3" d="M205.02 60.1286C204.83 59.9561 204.625 59.8022 204.409 59.6688C203.647 59.1939 200.198 57.1136 200.019 57.0006C198.194 55.7795 195.305 56.0509 192.733 57.4151C189.047 59.3673 185.978 63.4902 183.636 70.3567C183.636 70.3567 181.265 68.5704 180.496 68.0955C178.592 67.0026 176.364 67.5302 173.857 69.2412C171.033 71.1708 169.107 73.6732 167.347 77.4569V77.5247C165.821 80.7376 164.987 84.2627 164.904 87.8509C164.904 95.7877 168.001 99.5714 172.032 102.413C173.181 103.227 176.221 104.938 176.523 105.149C178.955 106.834 181.646 108.068 184.477 108.797L188.45 109.769L192.424 103.988C195.317 99.7257 197.972 95.2914 200.378 90.7075C204.409 82.9818 207.563 75.4143 207.506 67.5076C207.448 64.1234 206.521 61.636 205.02 60.1286Z" fill="black"/>
<path d="M205.02 60.1286C204.83 59.9561 204.625 59.8022 204.409 59.6688C203.647 59.1939 200.198 57.1136 200.019 57.0006C198.194 55.7795 195.305 56.0509 192.733 57.4151C189.047 59.3673 185.978 63.4902 183.636 70.3567C183.636 70.3567 181.265 68.5704 180.496 68.0955C178.592 67.0026 176.364 67.5302 173.857 69.2412C171.033 71.1708 169.107 73.6732 167.347 77.4569V77.5247C167.268 77.6906 167.203 77.8564 167.131 78.0222L197.31 96.2776C198.38 94.4536 199.422 92.6069 200.414 90.7075C204.445 82.9818 207.599 75.4143 207.542 67.5076C207.448 64.1234 206.521 61.636 205.02 60.1286Z" fill="#00A991"/>
<path opacity="0.15" d="M205.02 60.1286C204.83 59.9561 204.625 59.8022 204.409 59.6688C203.647 59.1939 200.198 57.1136 200.019 57.0006C198.194 55.7795 195.305 56.0509 192.733 57.4151C189.047 59.3673 185.978 63.4902 183.636 70.3567C183.636 70.3567 181.265 68.5704 180.496 68.0955C178.592 67.0026 176.364 67.5302 173.857 69.2412C171.033 71.1708 169.107 73.6732 167.347 77.4569V77.5247C167.268 77.6906 167.203 77.8564 167.131 78.0222L197.31 96.2776C198.38 94.4536 199.422 92.6069 200.414 90.7075C204.445 82.9818 207.599 75.4143 207.542 67.5076C207.448 64.1234 206.521 61.636 205.02 60.1286Z" fill="black"/>
<path d="M183.615 70.3266L187.653 75.8514L194.163 67.7714L186.805 63.3169C185.494 65.5207 184.424 67.872 183.615 70.3266Z" fill="#00A991"/>
<path opacity="0.3" d="M183.615 70.3266L187.653 75.8514L194.163 67.7714L186.805 63.3169C185.494 65.5207 184.424 67.872 183.615 70.3266Z" fill="black"/>
<path d="M205.02 60.1286C203.259 58.4779 200.055 58.6211 197.224 60.1286C193.365 62.1787 190.175 66.6031 187.789 74.0952C185.404 69.4975 182.213 69.3543 178.355 71.9848C175.524 73.9143 173.598 76.4167 171.845 80.2005L171.809 80.2683C170.289 83.4855 169.458 87.0124 169.373 90.602C169.373 98.5388 172.477 102.323 176.501 105.164C178.934 106.849 181.624 108.083 184.455 108.812L188.429 109.785L192.402 104.003C195.295 99.7407 197.951 95.3064 200.356 90.7226C204.387 82.9968 207.542 75.4293 207.484 67.5227C207.448 64.1233 206.521 61.636 205.02 60.1286Z" fill="#00A991"/>
<g opacity="0.07">
<path d="M201.628 59.3748C202.736 59.3216 203.825 59.6882 204.696 60.4074C204.711 60.4399 204.734 60.4683 204.761 60.4903C206.241 61.9074 207.067 64.4248 207.075 67.5604C207.075 75.8137 203.482 83.8259 199.997 90.5643C197.609 95.1333 194.97 99.5526 192.093 103.8L188.278 109.37L184.563 108.458C181.774 107.739 179.123 106.526 176.724 104.87C173.131 102.307 169.74 98.8403 169.768 90.6397C169.845 87.1131 170.651 83.6462 172.132 80.4793V80.4115C173.9 76.6052 175.804 74.2007 178.506 72.3616C179.761 71.3853 181.258 70.8095 182.817 70.7034C184.642 70.7034 186.144 71.8868 187.408 74.3213C187.44 74.3865 187.488 74.441 187.548 74.4784C187.608 74.5158 187.676 74.5345 187.746 74.5324H187.782C187.856 74.5252 187.927 74.4957 187.985 74.4476C188.044 74.3995 188.088 74.3348 188.113 74.261C190.39 67.1081 193.415 62.6159 197.353 60.528C198.667 59.8056 200.123 59.411 201.607 59.3748M201.607 58.9753C200.063 59.0087 198.548 59.4163 197.18 60.1662C193.322 62.2164 190.132 66.6408 187.746 74.1329C186.366 71.4647 184.714 70.2964 182.817 70.2964C181.189 70.4087 179.626 71.0076 178.312 72.0225C175.481 73.952 173.555 76.4544 171.802 80.2381L171.766 80.306C170.246 83.5232 169.414 87.0501 169.33 90.6397C169.33 98.5765 172.434 102.36 176.458 105.202C178.891 106.887 181.581 108.121 184.412 108.85L188.386 109.822L192.359 104.041C195.252 99.7784 197.908 95.3441 200.313 90.7603C204.344 83.0345 207.499 75.467 207.441 67.5604C207.441 64.161 206.5 61.636 204.998 60.1888C204.05 59.3784 202.85 58.9626 201.628 59.0206L201.607 58.9753Z" fill="black"/>
</g>
<path d="M204.581 81.4969L196.85 86.1851L193.976 75.2183C193.935 75.0525 193.842 74.9061 193.711 74.8034C193.58 74.7006 193.42 74.6476 193.257 74.653C193.089 74.6494 192.925 74.7078 192.794 74.818C192.663 74.9282 192.572 75.0832 192.539 75.256L188.062 96.7072L184.297 85.8987C184.289 85.6988 184.206 85.5103 184.066 85.3746C183.926 85.2389 183.74 85.1671 183.55 85.1751C183.359 85.1831 183.18 85.2702 183.05 85.4172C182.921 85.5642 182.852 85.7591 182.86 85.959L180.316 95.4334L171.809 100.589C172.089 101.016 172.391 101.426 172.714 101.818L181.337 96.6092C181.503 96.5078 181.627 96.3433 181.682 96.1495L183.686 88.6724L187.545 99.7222C187.596 99.8768 187.694 100.01 187.824 100.101C187.953 100.192 188.108 100.236 188.263 100.227C188.423 100.219 188.575 100.155 188.696 100.046C188.817 99.9366 188.9 99.7883 188.932 99.6242L193.315 78.6553L195.628 87.5569C195.656 87.6714 195.709 87.7776 195.782 87.8668C195.856 87.956 195.949 88.0258 196.053 88.0705C196.157 88.1153 196.27 88.1337 196.382 88.1243C196.494 88.115 196.603 88.0781 196.699 88.0167L203.568 83.8636C203.963 83.0722 204.28 82.2883 204.581 81.4969Z" fill="#FCFCFC" fill-opacity="0.988235"/>
<path d="M237.03 283.075C236.736 284.097 236.711 285.183 236.959 286.218C237.246 286.852 239.042 288.932 242.707 289.686C246.371 290.439 251.408 289.686 253.578 289.55C255.748 289.414 262.56 290.304 264.723 290.59C268.129 291.072 270.744 290.289 272.016 289C272.222 288.74 272.374 288.439 272.462 288.114C272.549 287.79 272.571 287.449 272.526 287.115C272.519 286.255 272.398 285.4 272.167 284.575L237.03 283.075Z" fill="#263238"/>
<path d="M271.606 280.837C271.671 281.131 271.736 281.432 271.793 281.734C272.125 283.25 272.229 284.812 272.102 286.362C271.664 287.492 270.464 288.118 269.494 288.434C266.929 289.294 264.981 289.188 262.143 288.593C259.289 288.156 256.405 287.97 253.521 288.035C251.286 288.193 248.211 288.645 245.976 288.427C244.076 288.344 242.201 287.942 240.422 287.236C238.935 286.573 237.411 285.728 237.045 284.1C236.606 280.709 237.964 279.216 239.495 278.267C241.025 277.317 243.203 277.392 245.531 277.234C247.636 277.083 249.174 277.083 251.049 276.932C252.67 276.85 254.282 276.615 255.863 276.231C257.3 275.764 258.737 273.872 259.327 273.804C259.327 273.804 268.703 273.729 269.594 273.804C270.629 273.895 270.945 277.257 271.075 277.988C271.175 278.561 271.197 279.179 271.34 279.729C271.434 280.098 271.52 280.467 271.606 280.837Z" fill="black"/>
<path d="M242.714 287.975C242.419 285.532 241.995 280.241 246.307 277.181H246.846C244.909 276.593 242.854 276.593 240.918 277.181C237.49 278.138 235.967 281.048 236.822 284.123C236.836 284.093 237.598 287.07 242.714 287.975Z" fill="#FAFAFA"/>
<path d="M255.224 276.405C253.837 277.694 253.356 280.626 253.356 280.626C253.176 281.726 251.279 281.892 251.459 280.829C251.748 279.368 252.307 277.98 253.104 276.744C253.754 276.384 254.501 276.265 255.224 276.405Z" fill="#FAFAFA"/>
<path d="M251.336 276.91C250.291 277.984 249.607 279.386 249.389 280.905C249.195 281.96 247.614 281.945 247.729 280.905C247.729 280.905 247.909 278.304 249.389 277.091C249.676 276.898 250.003 276.781 250.342 276.75C250.681 276.718 251.022 276.773 251.336 276.91Z" fill="#FAFAFA"/>
<path d="M269.882 266.651C269.882 266.651 269.63 272.975 269.3 275.048C269.099 276.284 267.554 277.581 263.71 277.445C261.008 277.347 258.881 277.581 258.989 275.365L259.226 268.905L269.882 266.651Z" fill="#FFA8A7"/>
<path d="M275.91 251.713C275.774 253.439 275.551 254.999 276.226 256.898C277.189 259.627 279.23 260.878 280.43 261.948C281.692 263.26 282.857 264.671 283.915 266.169C285.093 267.677 285.402 268.574 287.17 270.217C288.051 270.928 289.092 271.387 290.193 271.55C291.294 271.712 292.416 271.572 293.45 271.144C294.98 270.458 295.512 269.915 295.419 267.45C295.325 264.986 287.838 264.149 287.838 264.149L275.91 251.713Z" fill="#263238"/>
<path d="M294.449 260.109C295.088 260.35 295.246 261.564 295.347 263.976C295.419 265.8 296.187 268.498 293.665 269.621C291.632 270.548 288.384 269.93 287.012 268.212C285.302 266.064 284.138 264.172 281.695 261.556C279.539 259.295 277.383 258.541 276.428 253.981C275.817 251.057 276.298 249.851 278.267 249.014C280.976 247.861 285.223 251.622 287.349 252.217C289.174 252.722 293.809 259.868 294.449 260.109Z" fill="black"/>
<path d="M287.349 252.218L286.99 252.089C285.779 252.137 284.6 252.516 283.572 253.189C282.543 253.862 281.7 254.805 281.127 255.926C280.768 256.717 281.845 257.335 282.564 256.717C284.073 253.702 287.177 253.054 288.42 252.911C288.114 252.603 287.749 252.366 287.349 252.218Z" fill="#FAFAFA"/>
<path d="M289.095 253.589C287.958 253.701 286.865 254.107 285.914 254.772C284.964 255.436 284.185 256.338 283.649 257.396C283.29 258.149 284.403 258.805 285.086 258.149C285.599 257.206 286.302 256.392 287.146 255.763C287.99 255.134 288.954 254.706 289.972 254.509C289.663 254.207 289.376 253.883 289.095 253.589Z" fill="#FAFAFA"/>
<path d="M294.815 255.753L294.449 260.84C294.449 260.84 291.366 263.199 286.947 261.036C286.818 260.757 286.444 256.205 286.444 256.205L294.815 255.753Z" fill="#FFA8A7"/>
<path d="M277.671 257.335C277.671 257.335 277.879 251.931 285.201 251.185L285.625 251.419C284.792 250.063 283.513 249.076 282.032 248.645C279.604 247.989 277.678 248.645 276.399 250.258C275.12 251.871 276.406 256.288 277.671 257.335Z" fill="#FAFAFA"/>
<path d="M296.949 221.865C295.9 212.963 295.512 208.003 295.512 208.003C295.512 208.003 295.304 195.469 296.029 183.884C296.345 178.804 296.511 173.181 296.611 168.056C296.745 162.411 296.317 156.768 295.332 151.217C295.332 151.217 257.76 143.378 257.293 157.835C256.725 175.171 256.797 204.8 256.158 216.114C255.806 222.468 256.416 227.736 256.797 240.082C257.106 250.318 257.013 275.508 257.013 275.508C261.152 281.47 270.924 276.925 270.924 276.925C270.924 276.925 273.942 241.552 274.387 234.241C274.861 226.38 274.071 222.4 274.071 222.4L277.944 185.776C277.944 185.776 278.238 197.527 278.569 203.866C278.899 210.204 279.783 214.101 281.357 225.927C282.722 236.193 285.625 262.393 285.625 262.393C290.655 265.513 295.512 262.393 295.512 262.393C295.512 262.393 297.998 230.766 296.949 221.865Z" fill="black"/>
<path d="M291.819 171.282C291.819 171.282 287.112 177.583 281.041 180.289C281.041 180.289 278.411 202.441 278.432 202.004L277.75 179.708C277.75 179.708 286.789 175.518 291.819 171.282Z" fill="black"/>
<path d="M291.689 100.076C295.735 99.1267 300.312 102.157 303.358 108.918C306.304 115.385 314.352 131.718 314.546 136.293C314.754 141.034 294.65 155.416 295.146 155.137C295.304 155.054 291.675 144.26 291.675 144.26L301.44 135.781L296.13 124.309L291.689 100.076Z" fill="#FFA8A7"/>
<path d="M289.562 99.0589C292.968 98.6217 299.141 99.9709 301.497 104.267C304.918 110.485 308.036 117.676 312.01 126.97C312.01 126.97 309.064 133.663 300.585 134.296L295.505 124.95L289.562 99.0589Z" fill="black"/>
<path d="M272.418 93.4587L273.007 106.649L285.467 105.948L285.086 90.6246L272.418 93.4587Z" fill="#FFA8A7"/>
<path d="M297.704 105.699C296.654 102.104 293.033 99.1418 288.456 98.9986C287.436 98.9986 285.294 98.9986 285.294 98.9986C284.777 101.222 278.289 102.014 272.742 100.679C271.067 101.147 264.119 102.941 262.682 103.393C258.694 104.78 257.466 109.046 256.848 122.688C256.848 122.688 256.97 149.582 256.848 162.418C263.86 166.299 274.696 165.817 282.406 164.995C294.52 163.714 296.324 159.109 296.324 159.109C295.814 151.624 296.123 148.805 296.324 141.419C296.475 135.864 297.998 129.992 298.48 123.698C299.191 114.345 298.415 108.172 297.704 105.699Z" fill="#00A991"/>
<path d="M270.471 95.9611C267.597 95.7501 264.004 98.1545 263.077 103.302L265.42 102.647L270.471 95.9611Z" fill="#00A991"/>
<path opacity="0.3" d="M270.471 95.9611C267.597 95.7501 264.004 98.1545 263.077 103.302L265.42 102.647L270.471 95.9611Z" fill="black"/>
<path d="M272.576 97.0615C274.732 97.8152 281.019 97.7097 283.124 97.0615C285.23 96.4133 285.208 95.4334 285.208 95.4334V94.3254C286.422 94.3219 287.608 94.7085 288.607 95.4334C289.951 96.5791 292.264 100.71 292.2 102.692C292.135 104.674 288.097 109.905 280.308 109.777C272.519 109.649 268.143 106.626 266.799 104.637L265.448 102.639C265.448 102.639 267.295 98.6594 269.113 96.9861C270.045 96.0384 271.24 95.426 272.526 95.2375L272.576 97.0615Z" fill="#00A991"/>
<path opacity="0.2" d="M272.576 97.0615C274.732 97.8152 281.019 97.7097 283.124 97.0615C285.23 96.4133 285.208 95.4334 285.208 95.4334V94.3254C286.422 94.3219 287.608 94.7085 288.607 95.4334C289.951 96.5791 292.264 100.71 292.2 102.692C292.135 104.674 288.097 109.905 280.308 109.777C272.519 109.649 268.143 106.626 266.799 104.637L265.448 102.639C265.448 102.639 267.295 98.6594 269.113 96.9861C270.045 96.0384 271.24 95.426 272.526 95.2375L272.576 97.0615Z" fill="black"/>
<path d="M264.033 77.2835C264.033 77.2835 261.065 82.0094 261.403 82.4692C261.741 82.929 263.925 83.3586 263.925 83.3586L264.033 77.2835Z" fill="#F28F8F"/>
<path d="M272.282 64.1987C266.275 65.5328 263.875 67.3795 263.501 78.1503C263.142 88.6272 264.399 92.0793 265.707 93.4888C266.591 94.4385 271.513 94.6119 273.992 93.8883C277.096 92.9913 284.116 90.3834 287.4 85.1224C291.265 78.9267 292.279 70.5301 288.118 67.0855C282.32 62.239 274.732 63.656 272.282 64.1987Z" fill="#FFA8A7"/>
<path d="M265.707 93.4813C266.426 94.235 269.867 94.5214 272.454 94.1898L272.418 92.6295C270.275 93.4589 267.977 93.7506 265.707 93.4813Z" fill="#F28F8F"/>
<path d="M262.704 68.2462C264.2 69.3717 266.057 69.8395 267.877 69.5502C267.841 70.3947 268.057 71.2299 268.495 71.9395C269.105 72.9071 270.029 73.609 271.096 73.9143C270.438 75.2665 270.089 76.7604 270.076 78.2784C270.035 78.7549 270.133 79.233 270.356 79.6502C270.425 79.8018 270.533 79.9298 270.669 80.0195C270.804 80.1091 270.961 80.1566 271.121 80.1566C271.281 80.1566 271.438 80.1091 271.574 80.0195C271.709 79.9298 271.818 79.8018 271.887 79.6502C272.224 78.8484 272.649 78.0897 273.151 77.389C273.802 76.5714 274.718 76.0346 275.724 75.8815C279.496 75.4519 279.97 80.6301 278.461 82.7782C275.989 86.2906 273.891 83.9088 273.891 83.9088C273.795 85.5553 274.033 87.2044 274.591 88.7469C275.148 90.2894 276.012 91.6899 277.125 92.8556C279.806 93.6844 282.648 93.7598 285.366 93.0742C288.715 88.2428 290.82 85.8911 292.609 81.723C296.389 72.8968 294.564 67.3568 291.639 65.0202C291.064 60.9576 288.01 59.1336 284.526 58.2969C279.323 57.0382 274.466 60.2793 269.307 59.0507C268.46 58.8648 267.623 58.6333 266.799 58.3572C266.482 58.2011 266.12 58.1769 265.786 58.2894C265.601 58.4183 265.456 58.6012 265.37 58.8156C265.283 59.0299 265.258 59.2663 265.298 59.4954C265.362 60.5355 266.368 61.6887 266.878 62.2465C265.752 62.3546 264.616 62.2861 263.508 62.043C263.124 61.9674 262.729 61.9674 262.344 62.043C261.922 62.2233 261.566 62.5393 261.326 62.9456C261.085 63.3519 260.974 63.8275 261.008 64.3042C261.012 65.0491 261.165 65.7848 261.457 66.4638C261.749 67.1428 262.174 67.75 262.704 68.2462Z" fill="#263238"/>
<path d="M291.732 66.3318L295.325 64.0706C295.039 63.5708 294.576 63.2106 294.037 63.0693C293.498 62.9279 292.927 63.017 292.451 63.3168C291.975 63.6167 291.631 64.1028 291.496 64.6682C291.362 65.2336 291.447 65.832 291.732 66.3318Z" fill="#263238"/>
<path d="M244.913 125.703C244.098 122.347 243.313 118.985 242.556 115.618C241.837 112.521 240.731 108.933 241.744 105.767C242.32 104.385 243.043 103.075 243.9 101.863C244.641 100.585 245.266 99.2378 245.768 97.8379C246.019 97.1595 246.249 96.4661 246.486 95.7802C246.723 95.0943 247.061 94.7023 246.903 94.0466C246.379 91.8984 243.734 94.7174 243.195 95.5993C242.956 96.0622 242.677 96.5012 242.362 96.9108C242.017 97.2952 241.176 97.7776 240.774 97.2123C240.64 96.9855 240.565 96.7254 240.558 96.4585C240.285 93.1496 241.421 90.1875 242.362 87.0972C242.511 86.6914 242.6 86.2646 242.628 85.8309C242.645 85.6143 242.617 85.3965 242.546 85.1922C242.476 84.988 242.364 84.8022 242.218 84.6475C241.984 84.459 241.706 84.3388 241.414 84.2991C241.121 84.2594 240.823 84.3016 240.551 84.4214C240.02 84.6098 239.56 84.9641 239.028 85.1374C238.496 85.3108 238.101 85.3108 237.634 85.4389C236.526 85.698 235.459 86.1219 234.465 86.6977C232.741 87.7604 231.979 89.3131 231.526 91.2879C230.983 93.7135 230.798 96.2126 230.98 98.6971C231.102 100.348 231.383 101.976 231.577 103.604L232.223 109.053C232.662 112.686 232.791 130.836 233.387 134.447C233.984 138.057 235.133 140.477 237.857 141.675C241.809 143.363 248.196 135.736 251.825 131.786L244.913 125.703Z" fill="#FFA8A7"/>
<path d="M243.468 123.646C240.925 125.643 237.756 128.967 237.117 132.299C237.117 132.299 236.484 126.306 243.468 120.993V123.646Z" fill="#F28F8F"/>
<path d="M262.481 103.476C260.038 103.717 256.014 103.807 251.918 108.428C247.169 113.825 239.847 124.467 239.847 124.467C239.847 124.467 240.803 132.939 248.577 135.977C248.577 135.977 259.88 124.671 262.308 119.802C264.737 114.933 265.283 106.86 262.481 103.476Z" fill="black"/>
<path d="M259.226 85.567L256.136 83.8259L257.911 82.2355L251.495 79.0849L254.297 77.3814L247.385 73.5223L251.495 77.3287L248.153 79.0849L255.691 82.5068L253.83 84.459L259.226 85.567Z" fill="#00A991"/>
<path d="M260.8 81.2934L258.788 79.2734L259.887 78.4217L258.119 76.2208L259.815 75.6178L259.226 72.829L260.419 75.8364L259.226 76.3791L261.137 78.58L259.844 79.5447L260.8 81.2934Z" fill="#00A991"/>
<path d="M259.628 88.7553L255.834 91.8607L254.433 89.6975L251.114 91.5893L249.756 88.9136L244.618 90.2929L250.56 87.3081L252.263 89.7728L255.023 88.2201L256.172 90.2929L259.628 88.7553Z" fill="#00A991"/>
<path d="M233.251 144.328C233.366 144.228 233.515 144.179 233.665 144.193C233.814 144.207 233.952 144.283 234.048 144.403C234.783 145.269 235.737 145.897 236.8 146.215C237.862 146.533 238.989 146.526 240.048 146.197C240.121 146.171 240.197 146.16 240.274 146.165C240.35 146.17 240.425 146.191 240.493 146.227C240.562 146.264 240.622 146.314 240.671 146.376C240.721 146.437 240.758 146.508 240.78 146.585C240.802 146.662 240.81 146.743 240.801 146.823C240.793 146.903 240.77 146.98 240.732 147.05C240.695 147.12 240.644 147.182 240.583 147.231C240.523 147.28 240.453 147.315 240.379 147.335C239.108 147.73 237.757 147.735 236.484 147.35C235.211 146.966 234.069 146.208 233.193 145.165C233.144 145.106 233.107 145.038 233.083 144.964C233.059 144.89 233.05 144.812 233.055 144.734C233.06 144.656 233.08 144.58 233.114 144.51C233.148 144.441 233.194 144.379 233.251 144.328Z" fill="#E0E0E0"/>
<path d="M233.826 148.315C233.927 148.227 234.054 148.179 234.185 148.179C234.316 148.179 234.443 148.227 234.544 148.315C235.129 148.759 235.799 149.063 236.508 149.206C237.217 149.349 237.947 149.328 238.647 149.144C238.796 149.116 238.949 149.149 239.074 149.238C239.199 149.327 239.286 149.464 239.315 149.619C239.33 149.696 239.33 149.774 239.315 149.85C239.301 149.927 239.272 149.999 239.231 150.064C239.189 150.128 239.136 150.183 239.074 150.226C239.012 150.269 238.943 150.298 238.87 150.313C238.004 150.524 237.105 150.532 236.236 150.338C235.367 150.144 234.549 149.752 233.84 149.19C233.783 149.139 233.737 149.077 233.703 149.008C233.67 148.938 233.649 148.862 233.644 148.784C233.639 148.706 233.648 148.628 233.672 148.554C233.696 148.48 233.733 148.412 233.783 148.353C233.795 148.339 233.81 148.326 233.826 148.315Z" fill="#E0E0E0"/>
<path d="M304.379 102.632C304.312 102.668 304.24 102.689 304.165 102.696C304.091 102.702 304.016 102.693 303.945 102.668C303.874 102.643 303.808 102.604 303.752 102.553C303.696 102.501 303.65 102.438 303.617 102.368C303.093 101.348 302.303 100.505 301.34 99.9364C300.378 99.3681 299.281 99.0978 298.178 99.1569C298.103 99.1613 298.029 99.1503 297.958 99.1245C297.888 99.0987 297.823 99.0586 297.767 99.0064C297.654 98.9011 297.586 98.7533 297.578 98.5953C297.569 98.4374 297.621 98.2824 297.721 98.1644C297.822 98.0463 297.963 97.975 298.113 97.966C299.438 97.8933 300.754 98.2185 301.909 98.9034C303.063 99.5883 304.007 100.604 304.63 101.833C304.696 101.974 304.706 102.136 304.659 102.286C304.612 102.435 304.512 102.559 304.379 102.632Z" fill="#E0E0E0"/>
<path d="M304.695 98.6368C304.575 98.7032 304.435 98.7214 304.303 98.6882C304.171 98.6549 304.055 98.5723 303.976 98.4559C303.512 97.8874 302.937 97.4303 302.29 97.1156C301.643 96.8009 300.939 96.6359 300.226 96.6319C300.151 96.6289 300.078 96.6106 300.01 96.5779C299.942 96.5452 299.881 96.4989 299.831 96.4415C299.78 96.3841 299.74 96.3168 299.714 96.2434C299.689 96.17 299.677 96.092 299.679 96.0138C299.682 95.9356 299.7 95.8588 299.731 95.7877C299.762 95.7166 299.806 95.6526 299.861 95.5994C299.916 95.5462 299.98 95.5048 300.05 95.4776C300.12 95.4505 300.194 95.438 300.269 95.441C301.155 95.4503 302.028 95.6629 302.828 96.064C303.627 96.465 304.333 97.0447 304.896 97.7625C304.977 97.89 305.007 98.0457 304.98 98.1964C304.954 98.347 304.872 98.4807 304.752 98.569L304.695 98.6368Z" fill="#E0E0E0"/>
<path d="M314.74 142.082C314.668 141.944 314.651 141.782 314.693 141.631C314.734 141.479 314.832 141.352 314.963 141.275C315.909 140.679 316.674 139.812 317.169 138.776C317.664 137.741 317.868 136.579 317.758 135.427C317.749 135.349 317.755 135.27 317.775 135.194C317.796 135.119 317.831 135.049 317.878 134.987C317.924 134.926 317.982 134.876 318.048 134.838C318.114 134.801 318.186 134.778 318.261 134.771C318.41 134.754 318.56 134.8 318.677 134.899C318.795 134.998 318.87 135.141 318.886 135.298C319.014 136.677 318.767 138.065 318.173 139.302C317.579 140.539 316.663 141.573 315.53 142.285C315.466 142.328 315.394 142.356 315.319 142.368C315.244 142.381 315.168 142.378 315.094 142.359C315.021 142.34 314.951 142.306 314.89 142.258C314.83 142.21 314.778 142.151 314.74 142.082Z" fill="#E0E0E0"/>
<path d="M318.555 142.225C318.491 142.102 318.47 141.96 318.495 141.823C318.52 141.685 318.589 141.561 318.692 141.471C319.213 140.96 319.623 140.336 319.892 139.642C320.161 138.949 320.284 138.202 320.251 137.454C320.251 137.296 320.311 137.145 320.417 137.033C320.524 136.921 320.668 136.859 320.819 136.859C320.969 136.859 321.114 136.921 321.22 137.033C321.327 137.145 321.386 137.296 321.386 137.454C321.417 138.382 321.256 139.306 320.914 140.162C320.571 141.018 320.056 141.786 319.403 142.414C319.345 142.462 319.278 142.498 319.206 142.519C319.134 142.541 319.059 142.547 318.985 142.538C318.911 142.529 318.839 142.505 318.774 142.466C318.709 142.428 318.652 142.377 318.606 142.316L318.555 142.225Z" fill="#E0E0E0"/>
<path d="M252.457 213.89C252.592 213.961 252.694 214.085 252.742 214.234C252.79 214.384 252.781 214.547 252.716 214.689C252.261 215.744 252.102 216.913 252.257 218.06C252.412 219.207 252.875 220.283 253.593 221.164C253.69 221.285 253.737 221.442 253.725 221.6C253.713 221.758 253.642 221.904 253.528 222.008C253.414 222.11 253.267 222.161 253.117 222.15C252.968 222.139 252.829 222.066 252.73 221.948C251.869 220.888 251.314 219.592 251.131 218.213C250.947 216.833 251.143 215.428 251.696 214.161C251.764 214.021 251.881 213.914 252.024 213.863C252.166 213.812 252.322 213.822 252.457 213.89Z" fill="#E0E0E0"/>
<path d="M249.238 216.038C249.361 216.099 249.459 216.204 249.514 216.334C249.57 216.464 249.579 216.61 249.54 216.747C249.389 217.479 249.391 218.237 249.546 218.968C249.702 219.699 250.006 220.387 250.438 220.983C250.523 221.112 250.556 221.272 250.531 221.426C250.505 221.581 250.423 221.72 250.302 221.812C250.179 221.903 250.027 221.939 249.878 221.912C249.73 221.885 249.598 221.798 249.511 221.669C248.979 220.923 248.608 220.065 248.424 219.154C248.24 218.243 248.248 217.3 248.448 216.393C248.47 216.317 248.506 216.247 248.554 216.186C248.603 216.125 248.662 216.075 248.729 216.039C248.796 216.002 248.869 215.98 248.944 215.973C249.019 215.967 249.095 215.976 249.166 216.001L249.238 216.038Z" fill="#E0E0E0"/>
<path d="M210.229 6.95262C210.194 6.24978 210 5.56572 209.664 4.95651C209.328 4.34729 208.859 3.83025 208.296 3.44776L206.73 2.49051C206.131 2.17611 205.47 2.01242 204.801 2.01242C204.131 2.01242 203.47 2.17611 202.871 2.49051L166.477 24.5523C165.915 24.9357 165.447 25.4529 165.111 26.062C164.775 26.671 164.581 27.3546 164.545 28.0571V47.7974C164.582 48.4998 164.776 49.1832 165.112 49.7922C165.448 50.4011 165.915 50.9185 166.477 51.3023L168.051 52.252C168.648 52.5716 169.31 52.7382 169.98 52.7382C170.651 52.7382 171.312 52.5716 171.91 52.252L208.296 30.1978C208.859 29.8153 209.328 29.2982 209.664 28.689C210 28.0798 210.194 27.3957 210.229 26.6929V6.95262Z" fill="#00A991"/>
<path opacity="0.5" d="M210.229 6.95262C210.194 6.24978 210 5.56572 209.664 4.95651C209.328 4.34729 208.859 3.83025 208.296 3.44776L206.73 2.49051C206.131 2.17611 205.47 2.01242 204.801 2.01242C204.131 2.01242 203.47 2.17611 202.871 2.49051L166.477 24.5523C165.915 24.9357 165.447 25.4529 165.111 26.062C164.775 26.671 164.581 27.3546 164.545 28.0571V47.7974C164.582 48.4998 164.776 49.1832 165.112 49.7922C165.448 50.4011 165.915 50.9185 166.477 51.3023L168.051 52.252C168.648 52.5716 169.31 52.7382 169.98 52.7382C170.651 52.7382 171.312 52.5716 171.91 52.252L208.296 30.1978C208.859 29.8153 209.328 29.2982 209.664 28.689C210 28.0798 210.194 27.3957 210.229 26.6929V6.95262Z" fill="#FCFCFC" fill-opacity="0.988235"/>
<path opacity="0.2" d="M164.545 47.7974C164.582 48.4998 164.776 49.1832 165.112 49.7922C165.448 50.4011 165.915 50.9185 166.477 51.3023L168.051 52.252C168.595 52.5393 169.19 52.7027 169.798 52.7312C170.406 52.7598 171.013 52.653 171.579 52.4178C170.667 52.7796 169.977 52.2445 169.977 51.0837V31.3434C170 30.6377 170.195 29.95 170.544 29.346L165.112 26.0598C164.762 26.6633 164.567 27.3512 164.545 28.0571V47.7974Z" fill="black"/>
<path opacity="0.3" d="M210.164 6.3798C209.942 5.52055 209.194 5.24167 208.303 5.78436L171.91 27.8386C171.337 28.2073 170.866 28.727 170.544 29.3461L165.119 26.0598C165.44 25.4427 165.908 24.9234 166.477 24.5523L202.864 2.49808C203.462 2.17846 204.123 2.01182 204.793 2.01182C205.464 2.01182 206.125 2.17846 206.723 2.49808L208.303 3.44778C208.786 3.77911 209.2 4.20978 209.52 4.71374C209.84 5.2177 210.059 5.78448 210.164 6.3798Z" fill="#FCFCFC" fill-opacity="0.988235"/>
<path d="M169.984 37.7276L164.559 34.4413L158.02 41.044C157.922 41.1478 157.847 41.2738 157.802 41.4123C157.757 41.5509 157.743 41.6984 157.76 41.8436C157.777 41.9889 157.826 42.1281 157.902 42.2507C157.978 42.3734 158.08 42.4762 158.2 42.5515L163.539 45.8076C163.76 45.9289 164.008 45.9837 164.257 45.9659L170.005 44.8127V37.7276H169.984Z" fill="#00A991"/>
<path opacity="0.5" d="M169.984 37.7276L164.559 34.4413L158.02 41.044C157.922 41.1478 157.847 41.2738 157.802 41.4123C157.757 41.5509 157.743 41.6984 157.76 41.8436C157.777 41.9889 157.826 42.1281 157.902 42.2507C157.978 42.3734 158.08 42.4762 158.2 42.5515L163.539 45.8076C163.76 45.9289 164.008 45.9837 164.257 45.9659L170.005 44.8127V37.7276H169.984Z" fill="#FCFCFC" fill-opacity="0.988235"/>
<path opacity="0.3" d="M163.539 45.8076L160.664 44.0815L160.327 43.8479L158.789 42.9132L158.602 42.7926L158.193 42.5439C158.073 42.4686 157.971 42.3658 157.895 42.2432C157.819 42.1205 157.77 41.9813 157.753 41.8361C157.736 41.6908 157.75 41.5433 157.795 41.4048C157.84 41.2662 157.915 41.1403 158.013 41.0364L164.552 34.4337L169.984 37.7275L163.445 44.3001C163.341 44.3969 163.26 44.5172 163.207 44.652C163.154 44.7868 163.132 44.9324 163.141 45.0778C163.15 45.2232 163.19 45.3645 163.259 45.491C163.328 45.6174 163.424 45.7257 163.539 45.8076Z" fill="#FCFCFC" fill-opacity="0.988235"/>
<path d="M180.611 31.66C179.86 32.1722 179.235 32.8631 178.787 33.6764C178.339 34.4898 178.08 35.4026 178.032 36.3407C178.032 38.0592 179.188 38.7602 180.611 37.9009C181.361 37.3883 181.985 36.6971 182.432 35.8838C182.879 35.0704 183.136 34.1578 183.183 33.2202C183.183 31.4866 182.034 30.8007 180.611 31.66Z" fill="#FCFCFC" fill-opacity="0.988235"/>
<path d="M190.103 25.9015C189.353 26.4141 188.729 27.1052 188.282 27.9186C187.835 28.732 187.578 29.6446 187.531 30.5822C187.531 32.3007 188.68 33.0016 190.103 32.1348C190.852 31.623 191.475 30.933 191.922 30.121C192.369 29.3091 192.627 28.3979 192.675 27.4617C192.661 25.7356 191.526 25.0347 190.103 25.9015Z" fill="#FCFCFC" fill-opacity="0.988235"/>
<path d="M199.595 20.1354C198.846 20.6494 198.223 21.3408 197.776 22.1539C197.33 22.967 197.071 23.879 197.022 24.8161C197.022 26.5422 198.172 27.2356 199.595 26.3763C200.346 25.8634 200.972 25.1713 201.42 24.3565C201.868 23.5418 202.127 22.6275 202.174 21.6881C202.174 19.9771 201.017 19.2762 199.595 20.1354Z" fill="#FCFCFC" fill-opacity="0.988235"/>
<path d="M280.279 45.6493L277.671 40.5315L279.769 34.1775V30.2656L273.345 34.1549V38.0442L276.104 43.064C276.15 43.139 276.215 43.1991 276.291 43.2374L280.279 45.6493Z" fill="#00A991"/>
<path opacity="0.2" d="M280.279 45.6493L277.671 40.5315L279.769 34.1775V30.2656L273.345 34.1549V38.0442L276.104 43.064C276.15 43.139 276.215 43.1991 276.291 43.2374L280.279 45.6493Z" fill="black"/>
<path d="M299.787 4.94018C299.752 4.23932 299.559 3.55721 299.224 2.94944C298.889 2.34167 298.423 1.82545 297.862 1.44286L296.295 0.493158C295.699 0.1736 295.039 0.00697708 294.369 0.00697708C293.7 0.00697708 293.04 0.1736 292.444 0.493158L256.136 22.4946C255.578 22.8819 255.113 23.4003 254.779 24.0086C254.445 24.617 254.25 25.2986 254.211 25.9995V45.6945C254.246 46.3954 254.439 47.0775 254.774 47.6853C255.109 48.2931 255.575 48.8093 256.136 49.1919L257.703 50.1416C258.301 50.4548 258.96 50.6178 259.628 50.6178C260.297 50.6178 260.956 50.4548 261.554 50.1416L277.362 40.4938L280.121 45.4986C280.161 45.5655 280.217 45.6194 280.285 45.6543C280.352 45.6891 280.428 45.7033 280.503 45.6955C280.577 45.6877 280.649 45.658 280.708 45.6099C280.768 45.5617 280.813 45.4971 280.839 45.4232L283.757 36.6121L297.826 28.1326C298.387 27.75 298.853 27.2337 299.188 26.626C299.523 26.0182 299.716 25.3361 299.751 24.6352L299.787 4.94018Z" fill="#00A991"/>
<path d="M265.089 29.8134L294.118 12.2288C294.98 11.7087 295.677 12.078 295.677 13.0579C295.638 13.6057 295.477 14.1361 295.206 14.6062C294.935 15.0763 294.562 15.4729 294.118 15.7638L265.089 33.3484C264.234 33.8685 263.537 33.4991 263.537 32.5193C263.576 31.9723 263.737 31.4426 264.006 30.9726C264.276 30.5026 264.647 30.1056 265.089 29.8134Z" fill="#FCFCFC" fill-opacity="0.988235"/>
<path d="M265.089 37.6447L294.118 20.0676C294.98 19.5475 295.677 19.9169 295.677 20.8892C295.639 21.4383 295.478 21.9702 295.207 22.4417C294.936 22.9132 294.563 23.311 294.118 23.6026L265.089 41.1797C264.234 41.7073 263.537 41.3304 263.537 40.3581C263.575 39.8098 263.735 39.2786 264.005 38.8072C264.274 38.3358 264.646 37.9376 265.089 37.6447Z" fill="#FCFCFC" fill-opacity="0.988235"/>
<path opacity="0.2" d="M254.211 45.6945C254.246 46.3954 254.439 47.0775 254.774 47.6853C255.109 48.2931 255.575 48.8093 256.136 49.1919L257.703 50.1416C258.245 50.4278 258.839 50.5906 259.446 50.6191C260.053 50.6477 260.659 50.5415 261.224 50.3074C260.318 50.6617 259.628 50.1265 259.628 48.9733V29.2782C259.651 28.5758 259.844 27.8911 260.189 27.2884L254.771 24.0021C254.426 24.6076 254.234 25.2947 254.211 25.9995V45.6945Z" fill="black"/>
<path opacity="0.2" d="M299.723 4.35228C299.5 3.49302 298.753 3.22168 297.862 3.75683L261.554 25.7658C260.982 26.1339 260.514 26.654 260.196 27.2733L254.778 23.9946C255.101 23.3785 255.568 22.8595 256.136 22.4871L292.437 0.47809C293.036 0.16369 293.696 0 294.366 0C295.036 0 295.696 0.16369 296.295 0.47809L297.862 1.42779C298.345 1.75663 298.76 2.18564 299.08 2.68853C299.4 3.19141 299.619 3.75757 299.723 4.35228Z" fill="#FCFCFC" fill-opacity="0.988235"/>
</svg>
