<svg width="343" height="399" viewBox="0 0 343 399" fill="none" xmlns="http://www.w3.org/2000/svg">
<path d="M339.761 177.17H336.568V176.608C336.566 175.074 335.973 173.603 334.919 172.518C333.865 171.433 332.435 170.822 330.944 170.82H328.783C327.29 170.82 325.859 171.43 324.803 172.515C323.747 173.6 323.153 175.072 323.151 176.608V177.17H319.966C319.54 177.169 319.119 177.255 318.725 177.422C318.332 177.589 317.974 177.834 317.673 178.144C317.372 178.454 317.134 178.822 316.971 179.227C316.809 179.631 316.726 180.065 316.727 180.503V195.689C316.727 196.573 317.068 197.421 317.676 198.046C318.283 198.671 319.107 199.022 319.966 199.022H339.761C340.619 199.02 341.442 198.669 342.049 198.044C342.656 197.419 342.998 196.573 343 195.689V180.503C343 179.619 342.659 178.772 342.051 178.146C341.444 177.521 340.62 177.17 339.761 177.17ZM324.69 176.608C324.692 175.492 325.124 174.423 325.891 173.635C326.658 172.847 327.698 172.404 328.783 172.404H330.944C332.028 172.404 333.067 172.847 333.833 173.635C334.599 174.424 335.03 175.493 335.03 176.608V177.17H324.69V176.608Z" fill="#263238"/>
<path d="M335.76 186.544H331.683V182.356H328.036V186.544H323.959V190.305H328.036V194.494H331.683V190.305H335.76V186.544Z" fill="#FCFCFC" fill-opacity="0.988235"/>
<path d="M333.452 86.6731C332.818 86.6731 332.19 86.5444 331.605 86.2945C331.019 86.0445 330.487 85.6781 330.039 85.2163C329.591 84.7545 329.236 84.2063 328.994 83.6031C328.752 82.9999 328.628 82.3535 328.629 81.7009V68.3045C328.628 67.6519 328.752 67.0055 328.994 66.4023C329.236 65.7991 329.591 65.2509 330.039 64.7891C330.487 64.3273 331.019 63.9609 331.605 63.7109C332.19 63.461 332.818 63.3323 333.452 63.3323C334.087 63.3323 334.714 63.461 335.3 63.7109C335.886 63.9609 336.418 64.3273 336.866 64.7891C337.314 65.2509 337.669 65.7991 337.911 66.4023C338.153 67.0055 338.277 67.6519 338.276 68.3045V81.6771C338.28 82.3317 338.158 82.9807 337.918 83.5866C337.677 84.1926 337.323 84.7436 336.874 85.2079C336.426 85.6722 335.893 86.0407 335.306 86.2922C334.718 86.5437 334.088 86.6731 333.452 86.6731Z" fill="#FCFCFC" fill-opacity="0.988235" stroke="#263238" stroke-linecap="round" stroke-linejoin="round"/>
<path d="M333.452 86.6731C332.818 86.6731 332.19 86.5444 331.605 86.2944C331.019 86.0445 330.487 85.6781 330.039 85.2163C329.591 84.7545 329.236 84.2063 328.994 83.6031C328.752 82.9998 328.628 82.3535 328.629 81.7009V75.0106H338.276V81.7009C338.277 82.3535 338.153 82.9998 337.911 83.6031C337.669 84.2063 337.314 84.7545 336.866 85.2163C336.418 85.6781 335.886 86.0445 335.3 86.2944C334.714 86.5444 334.087 86.6731 333.452 86.6731Z" fill="#263238" stroke="#263238" stroke-linecap="round" stroke-linejoin="round"/>
<path d="M309.187 66.9427C308.791 66.4329 308.496 65.8474 308.32 65.2199C308.144 64.5925 308.09 63.9354 308.161 63.2865C308.233 62.6375 308.428 62.0095 308.736 61.4385C309.044 60.8676 309.459 60.3649 309.957 59.9594L320.089 51.5827C321.092 50.7619 322.371 50.3843 323.645 50.5327C324.918 50.6812 326.083 51.3435 326.882 52.3745C327.679 53.4058 328.046 54.7205 327.902 56.0299C327.758 57.3393 327.114 58.5362 326.113 59.3577L315.973 67.7265C315.478 68.1341 314.909 68.4373 314.3 68.6185C313.69 68.7998 313.052 68.8556 312.422 68.7828C311.792 68.71 311.182 68.51 310.627 68.1942C310.072 67.8785 309.582 67.4532 309.187 66.9427Z" fill="#FCFCFC" fill-opacity="0.988235" stroke="#263238" stroke-linecap="round" stroke-linejoin="round"/>
<path d="M309.187 66.9427C308.791 66.4328 308.496 65.8474 308.32 65.2199C308.144 64.5925 308.09 63.9354 308.161 63.2864C308.233 62.6375 308.428 62.0095 308.736 61.4385C309.044 60.8676 309.459 60.3649 309.957 59.9594L315.027 55.7711L321.066 63.5223L315.996 67.7027C315.501 68.1154 314.932 68.4232 314.322 68.6084C313.711 68.7936 313.071 68.8526 312.438 68.782C311.805 68.7113 311.192 68.5124 310.634 68.1967C310.076 67.881 309.584 67.4548 309.187 66.9427Z" fill="#263238" stroke="#263238" stroke-linecap="round" stroke-linejoin="round"/>
<path d="M260.942 30.4905C260.34 30.4908 259.754 30.6846 259.265 31.0447L248.055 22.09C248.605 21.0437 248.862 19.8614 248.8 18.6738C248.737 17.4861 248.357 16.3394 247.701 15.3601L254.549 6.35003C255.128 6.57998 255.764 6.61299 256.363 6.44421C256.962 6.27543 257.493 5.91373 257.877 5.41207C258.262 4.91041 258.481 4.29515 258.501 3.65635C258.522 3.01756 258.343 2.38879 257.991 1.86211C257.639 1.33543 257.133 0.938503 256.546 0.729443C255.959 0.520382 255.323 0.51017 254.73 0.700303C254.137 0.890435 253.619 1.27093 253.251 1.78606C252.883 2.3012 252.686 2.92393 252.687 3.56307C252.683 4.17904 252.869 4.78038 253.218 5.28117L246.555 14.0617C245.662 13.2874 244.576 12.7847 243.421 12.6099C242.265 12.4351 241.085 12.5951 240.013 13.0719C238.941 13.5488 238.019 14.3237 237.351 15.3097C236.683 16.2956 236.295 17.4536 236.23 18.6538H228.445C228.36 17.9426 228.029 17.2864 227.514 16.8044C226.999 16.3225 226.333 16.0469 225.637 16.0276C224.94 16.0083 224.261 16.2467 223.721 16.6994C223.181 17.1521 222.817 17.7891 222.695 18.4946C222.573 19.2001 222.701 19.9272 223.056 20.5439C223.411 21.1605 223.968 21.6257 224.628 21.8549C225.288 22.0841 226.006 22.0621 226.651 21.7929C227.296 21.5236 227.826 21.0251 228.145 20.3878H236.377C236.617 21.539 237.159 22.6008 237.942 23.4591C238.726 24.3173 239.722 24.9395 240.823 25.2587C241.924 25.5779 243.09 25.582 244.193 25.2706C245.297 24.9592 246.297 24.3441 247.086 23.4914L258.234 32.4144C258.014 33.0096 257.985 33.6616 258.15 34.2751C258.316 34.8885 258.668 35.4314 259.155 35.8243C259.642 36.2172 260.238 36.4396 260.857 36.4589C261.475 36.4783 262.083 36.2936 262.592 35.9318C263.102 35.5701 263.485 35.0502 263.687 34.4482C263.888 33.8462 263.898 33.1937 263.713 32.5858C263.529 31.978 263.161 31.4468 262.662 31.0698C262.163 30.6928 261.56 30.4898 260.942 30.4905Z" fill="#263238"/>
<path d="M33.239 86.7681C32.3072 86.766 31.4141 86.3841 30.7551 85.706C30.0962 85.0279 29.7251 84.1088 29.7231 83.1498V53.0633H36.7549V83.1498C36.7549 84.1094 36.3845 85.0298 35.7251 85.7083C35.0658 86.3869 34.1715 86.7681 33.239 86.7681Z" fill="#FCFCFC" fill-opacity="0.988235" stroke="#263238" stroke-linecap="round" stroke-linejoin="round"/>
<path d="M33.239 86.7681C32.3072 86.766 31.4141 86.3841 30.7551 85.706C30.0962 85.0279 29.7251 84.1088 29.7231 83.1498V64.6466H36.7549V83.1498C36.7549 84.1094 36.3845 85.0298 35.7251 85.7083C35.0658 86.3869 34.1715 86.7681 33.239 86.7681Z" fill="#263238" stroke="#263238" stroke-linecap="round" stroke-linejoin="round"/>
<path d="M37.7628 51.3056H28.723V53.9421H37.7628V51.3056Z" fill="#FCFCFC" fill-opacity="0.988235" stroke="#263238" stroke-linecap="round" stroke-linejoin="round"/>
<path d="M22.5836 86.7681C21.6518 86.766 20.7587 86.3841 20.0997 85.706C19.4408 85.0279 19.0698 84.1088 19.0677 83.1498V53.0633H26.0995V83.1498C26.0995 84.1094 25.7291 85.0298 25.0697 85.7083C24.4104 86.3869 23.5161 86.7681 22.5836 86.7681Z" fill="#FCFCFC" fill-opacity="0.988235" stroke="#263238" stroke-linecap="round" stroke-linejoin="round"/>
<path d="M22.5836 86.7681C21.6518 86.766 20.7587 86.3841 20.0997 85.706C19.4408 85.0279 19.0698 84.1088 19.0677 83.1498V64.6466H26.0995V83.1498C26.0995 84.1094 25.7291 85.0298 25.0697 85.7083C24.4104 86.3869 23.5161 86.7681 22.5836 86.7681Z" fill="#263238" stroke="#263238" stroke-linecap="round" stroke-linejoin="round"/>
<path d="M27.1074 51.3056H18.0676V53.9421H27.1074V51.3056Z" fill="#FCFCFC" fill-opacity="0.988235" stroke="#263238" stroke-linecap="round" stroke-linejoin="round"/>
<path d="M124.022 21.6466L126.822 14.7267C126.87 14.6153 126.949 14.521 127.049 14.4561C127.149 14.3912 127.265 14.3586 127.384 14.3625C127.502 14.3686 127.616 14.4122 127.71 14.4873C127.803 14.5624 127.872 14.6653 127.907 14.7822L131.3 26.2942L133.885 17.8146C133.92 17.6953 133.991 17.5905 134.088 17.5152C134.185 17.4398 134.302 17.3978 134.423 17.3949C134.543 17.3983 134.659 17.4375 134.757 17.5078C134.856 17.5782 134.932 17.6765 134.977 17.7908L136.416 22.0504H144.194C145.786 20.3384 146.711 18.0844 146.794 15.7164C146.809 13.5046 146.029 11.3651 144.605 9.70894C143.18 8.05273 141.211 6.99655 139.076 6.74324C136.941 6.48993 134.79 7.05735 133.037 8.33653C131.283 9.61571 130.051 11.5165 129.576 13.6737C129.088 11.5316 127.851 9.64903 126.101 8.38412C124.352 7.11922 122.211 6.56019 120.087 6.81338C117.964 7.06656 116.004 8.11429 114.582 9.75729C113.16 11.4003 112.374 13.5239 112.374 15.7243C112.459 17.9173 113.259 20.0171 114.643 21.6862L124.022 21.6466Z" fill="#263238"/>
<path d="M136.008 23.2381C135.888 23.2385 135.771 23.2007 135.674 23.1298C135.576 23.0588 135.502 22.9583 135.462 22.8422L134.462 19.881L131.838 28.4874C131.801 28.6086 131.727 28.7145 131.627 28.7899C131.528 28.8653 131.408 28.9063 131.284 28.907C131.16 28.9066 131.04 28.8646 130.941 28.7874C130.843 28.7103 130.771 28.6022 130.738 28.4794L127.268 16.7061L124.96 22.4701C124.916 22.5778 124.843 22.6698 124.748 22.7345C124.654 22.7993 124.543 22.834 124.429 22.8343H115.574C117.474 25.0195 119.844 26.9514 121.614 28.7486C124.291 31.4723 126.914 34.2909 129.646 36.9195C133.146 33.3645 136.67 29.7938 140.139 26.2388C141.101 25.2491 142.147 24.2673 143.117 23.2381H136.008Z" fill="#263238"/>
<path d="M6.22626 200.205L9.99866 201.552L14.0805 189.441L10.3081 188.094L6.22626 200.205Z" fill="#FCFCFC" fill-opacity="0.988235" stroke="#263238" stroke-miterlimit="10"/>
<path d="M4.43781 202.128L10.2599 204.206L11.0289 201.924L5.20679 199.846L4.43781 202.128Z" fill="#FCFCFC" fill-opacity="0.988235" stroke="#263238" stroke-miterlimit="10"/>
<path d="M6.14834 191.211L15.4739 194.54L22.8687 172.6L13.5431 169.271L6.14834 191.211Z" fill="#FCFCFC" fill-opacity="0.988235" stroke="#263238" stroke-miterlimit="10"/>
<path d="M10.6828 181.825L17.5662 184.283L21.648 172.172L14.7647 169.715L10.6828 181.825Z" fill="#263238" stroke="#263238" stroke-miterlimit="10"/>
<path d="M9.46524 190.604L13.2376 191.951L17.3195 179.84L13.5471 178.494L9.46524 190.604Z" fill="#263238" stroke="#263238" stroke-miterlimit="10"/>
<path d="M5.48994 190.981L16.1457 194.784L17.071 192.039L6.41524 188.235L5.48994 190.981Z" fill="#FCFCFC" fill-opacity="0.988235" stroke="#263238" stroke-miterlimit="10"/>
<path d="M15.817 168.814L21.3702 170.796L22.6031 167.138L17.0499 165.156L15.817 168.814Z" fill="#FCFCFC" fill-opacity="0.988235" stroke="#263238" stroke-miterlimit="10"/>
<path d="M12.6517 169.725L23.3074 173.529L24.2327 170.784L13.577 166.98L12.6517 169.725Z" fill="#FCFCFC" fill-opacity="0.988235" stroke="#263238" stroke-miterlimit="10"/>
<path d="M19.8832 165.65L24.3454 152.396" stroke="#263238" stroke-miterlimit="10"/>
<path d="M267.981 330.374C290.216 330.374 308.241 326.191 308.241 321.031C308.241 315.871 290.216 311.689 267.981 311.689C245.746 311.689 227.721 315.871 227.721 321.031C227.721 326.191 245.746 330.374 267.981 330.374Z" fill="#263238" stroke="#263238" stroke-linecap="round" stroke-linejoin="round"/>
<path d="M236.938 109.856C236.938 109.856 231.491 113.284 231.553 114.788C231.614 116.292 229.522 143.727 229.283 147.155C229.045 150.583 225.875 157.661 225.629 160.876C225.383 164.09 226.167 167.313 227.083 168.793C227.998 170.274 231.36 175.009 231.36 175.009L240.4 160.638C240.622 157.5 240.668 154.352 240.539 151.209C240.4 144.36 236.938 109.856 236.938 109.856Z" fill="#FCFCFC" fill-opacity="0.988235" stroke="#263238" stroke-linecap="round" stroke-linejoin="round"/>
<path d="M271.72 41.8759C271.72 41.8759 262.103 41.2425 256.626 48.1069C251.148 54.9714 252.325 65.47 252.287 68.6924C252.248 71.9149 242.947 81.3604 243.978 85.2083C245.009 89.0563 247.747 89.4917 246.87 92.7062C245.993 95.9207 240.269 97.8526 241.1 101.93C241.931 106.008 244.947 111.787 244.947 111.787L300.34 112.175C300.34 112.175 302.317 106.174 300.209 101.669C298.101 97.1638 295.108 95.6753 295.593 93.5296C296.078 91.384 298.755 86.2376 297.724 82.3818C296.693 78.526 293.108 77.4571 292.731 70.5926C292.354 63.7282 291.369 52.3824 286.076 46.8401C280.783 41.2979 271.72 41.8759 271.72 41.8759Z" fill="#263238" stroke="#263238" stroke-linecap="round" stroke-linejoin="round"/>
<path d="M254.687 306.408C252.986 309.781 250.921 312.947 248.532 315.845C244.993 319.923 241.562 322.068 241.677 324.214C241.793 326.36 249.517 326.779 253.602 325.275C257.687 323.771 260.657 320.77 261.48 320.524C262.303 320.279 264.604 320.524 264.658 317.516C264.712 314.507 264.265 305.94 264.265 305.94L254.687 306.408Z" fill="#FCFCFC" fill-opacity="0.988235" stroke="#263238" stroke-linecap="round" stroke-linejoin="round"/>
<path d="M253.587 325.275C257.68 323.771 260.642 320.77 261.465 320.524C262.288 320.279 264.588 320.524 264.642 317.516C264.642 315.932 264.558 312.765 264.45 310.176C263.845 311.345 262.949 312.327 261.854 313.022C260.759 313.718 259.504 314.102 258.218 314.135C258.218 314.135 258.141 312.631 255.91 310.065C254.472 308.387 253.018 309.709 252.171 310.857L251.487 311.918L251.433 312.021C250.545 313.369 249.573 314.657 248.525 315.877C244.986 319.954 241.554 322.1 241.67 324.246C241.785 326.391 249.502 326.779 253.587 325.275Z" fill="#FCFCFC" fill-opacity="0.988235" stroke="#263238" stroke-linecap="round" stroke-linejoin="round"/>
<path d="M283.191 306.392C285.258 309.777 287.656 312.937 290.346 315.821C294.308 319.891 297.963 322.029 298.04 324.174C298.116 326.32 290.469 326.748 286.222 325.251C281.976 323.755 278.698 320.754 277.86 320.54C277.021 320.326 274.728 320.54 274.367 317.547C274.005 314.555 273.551 305.972 273.551 305.972L283.191 306.392Z" fill="#FCFCFC" fill-opacity="0.988235" stroke="#263238" stroke-linecap="round" stroke-linejoin="round"/>
<path d="M286.253 325.251C282.014 323.755 278.729 320.754 277.89 320.54C277.052 320.326 274.759 320.54 274.398 317.547C274.205 315.964 273.99 312.797 273.828 310.2C274.54 311.361 275.517 312.325 276.675 313.007C277.832 313.688 279.135 314.068 280.468 314.111C280.468 314.111 280.391 312.607 282.337 310.034C283.607 308.363 285.199 309.677 286.184 310.825C286.438 311.174 286.699 311.522 286.953 311.886L287.023 311.989C288.056 313.335 289.161 314.623 290.331 315.845C294.293 319.915 297.947 322.053 298.024 324.198C298.101 326.344 290.5 326.748 286.253 325.251Z" fill="#FCFCFC" fill-opacity="0.988235" stroke="#263238" stroke-linecap="round" stroke-linejoin="round"/>
<path d="M237.954 193.243C237.954 193.243 239.239 237.826 240.947 246.615C242.654 255.403 250.279 305.774 250.279 305.774C252.609 306.789 255.119 307.296 257.649 307.263H265.981L266.75 269.749L267.035 215.301L271.213 307.468C271.213 307.468 282.691 307.888 283.93 307.674C285.168 307.461 286.199 307.247 286.199 307.247L293.577 248.934L297.801 210.139L298.032 194.707C298.032 194.707 262.765 193.449 252.517 192.593C242.27 191.738 238.054 191.525 238.054 191.525L237.954 193.243Z" fill="#00A991" stroke="#263238" stroke-linecap="round" stroke-linejoin="round"/>
<path d="M285.576 271.958C285.484 272.703 285.392 273.392 285.284 274.025" stroke="#263238" stroke-linecap="round" stroke-linejoin="round"/>
<path d="M286.522 218.286C286.522 218.286 287.238 250.051 285.984 267.295" stroke="#263238" stroke-linecap="round" stroke-linejoin="round"/>
<path d="M248.709 215.736C248.709 215.736 249.594 236.749 250.471 241.46" stroke="#263238" stroke-linecap="round" stroke-linejoin="round"/>
<path d="M281.583 202.348V218.389C283.58 218.942 285.623 219.305 287.684 219.473C290.846 219.687 296.747 219.473 296.747 219.473L297.17 213.401L281.583 202.348Z" fill="#263238" stroke="#263238" stroke-linecap="round" stroke-linejoin="round"/>
<path d="M238.608 214.699C238.608 214.699 246.617 217.304 249.986 217.518C253.356 217.732 256.51 218.167 256.51 218.167L256.095 213.836L238.185 212.102L238.608 214.699Z" fill="#263238" stroke="#263238" stroke-linecap="round" stroke-linejoin="round"/>
<path d="M262.919 92.9042L256.633 100.196L239.2 113.284L242.916 192.609C242.916 192.609 256.81 196.457 268.735 197.526C280.66 198.595 295.993 195.784 295.993 195.784L293.739 112.65C293.739 112.65 286.953 102.358 283.476 99.5786C279.998 96.7996 278.406 94.2264 273.797 93.7988C269.189 93.3713 262.919 92.9042 262.919 92.9042Z" fill="#00A991" stroke="#263238" stroke-linecap="round" stroke-linejoin="round"/>
<path d="M255.626 96.8075L236.938 109.895L239.869 158.121L238.877 162.966L231.022 172.277L234.369 188.635L232.876 211.714C232.876 211.714 240.3 214.287 245.332 214.921C249.078 215.334 252.843 215.548 256.61 215.562L257.257 184.05C257.257 184.05 259.742 131.74 260.034 129.42C260.326 127.1 262.919 92.9992 262.919 92.9992L255.626 96.8075Z" fill="#FCFCFC" fill-opacity="0.988235" stroke="#263238" stroke-linecap="round" stroke-linejoin="round"/>
<path d="M255.926 98.779L246.878 122.128L256.641 126.3L247.424 128.026L255.587 160.939" stroke="#263238" stroke-linecap="round" stroke-linejoin="round"/>
<path d="M261.35 86.6889C261.35 86.6889 264.596 108.977 267.15 114.123C269.705 119.269 270.428 120.98 270.428 120.98C270.428 120.98 275.982 103.609 277.098 101.035C278.214 98.4622 279.406 89.2463 279.406 89.2463C279.406 89.2463 268.335 92.8962 261.35 86.6889Z" fill="#FCFCFC" fill-opacity="0.988235" stroke="#263238" stroke-linecap="round" stroke-linejoin="round"/>
<path d="M261.35 86.6889C261.35 86.6889 261.642 88.7158 262.119 91.6848C263.742 92.9596 268.043 96.1107 271.22 96.277C273.644 96.4037 276.721 94.7885 278.767 93.498C279.137 91.1623 279.391 89.2463 279.391 89.2463C279.391 89.2463 268.335 92.8962 261.35 86.6889Z" fill="#263238" stroke="#263238" stroke-linecap="round" stroke-linejoin="round"/>
<path d="M256.941 71.2815C256.941 71.2815 254.725 68.0353 253.233 71.2815C251.74 74.5276 255.541 79.3336 256.603 79.9907C259.618 81.8355 258.818 78.4072 258.818 78.4072L256.941 71.2815Z" fill="#FCFCFC" fill-opacity="0.988235" stroke="#263238" stroke-linecap="round" stroke-linejoin="round"/>
<path d="M284.461 72.6829C284.461 72.6829 286.33 69.3258 288.161 72.4928C289.992 75.6598 286.692 80.6399 285.707 81.3446C282.891 83.3477 283.337 79.9115 283.337 79.9115L284.461 72.6829Z" fill="#FCFCFC" fill-opacity="0.988235" stroke="#263238" stroke-linecap="round" stroke-linejoin="round"/>
<path d="M256.418 68.4153C256.418 68.4153 264.45 66.4835 268.497 64.0211C270.975 62.4805 273.137 60.455 274.859 58.0592C274.859 58.0592 278.337 64.8208 281.399 67.5602C284.461 70.2997 285.099 70.458 285.099 70.458C285.099 70.458 283.63 82.2947 281.968 86.4118C280.306 90.5289 274.882 94.5352 269.82 93.3792C266.943 92.73 261.957 90.5923 260.511 86.9898C259.065 83.3873 256.418 68.4153 256.418 68.4153Z" fill="#FCFCFC" fill-opacity="0.988235" stroke="#263238" stroke-linecap="round" stroke-linejoin="round"/>
<path d="M276.913 77.5125C274.421 77.5759 266.073 77.5917 261.765 74.9156C260.038 73.881 258.421 72.6629 256.941 71.2814C257.095 72.0732 257.28 73.0629 257.48 74.0922L258.418 74.7968L260.772 83.9495L259.672 84.1949C259.904 85.1305 260.184 86.0529 260.511 86.9581C261.957 90.5606 266.943 92.6983 269.82 93.3475C274.875 94.4956 280.283 90.5131 281.96 86.4039C281.564 85.6056 281.448 84.6914 281.629 83.8149C282.114 81.2258 282.714 76.6891 282.714 76.6891L284.43 75.1056C284.522 74.5276 284.599 73.9734 284.676 73.4667C282.599 74.9473 278.706 77.465 276.913 77.5125Z" fill="#00A991" stroke="#263238" stroke-linecap="round" stroke-linejoin="round"/>
<path d="M267.75 73.6884C267.75 73.6884 265.065 70.3313 261.542 70.6401" stroke="#263238" stroke-linecap="round" stroke-linejoin="round"/>
<path d="M274.667 74.3535C275.524 73.4265 276.588 72.7296 277.767 72.3238C278.946 71.918 280.203 71.8157 281.429 72.0257" stroke="#263238" stroke-linecap="round" stroke-linejoin="round"/>
<path d="M259.995 68.9616C259.995 68.9616 263.842 67.3781 267.25 68.1224" stroke="#263238" stroke-linecap="round" stroke-linejoin="round"/>
<path d="M274.982 68.9854C275.996 68.4525 277.144 68.2533 278.271 68.4147C279.398 68.5762 280.45 69.0905 281.283 69.888" stroke="#263238" stroke-linecap="round" stroke-linejoin="round"/>
<path d="M265.165 72.5878C265.183 72.7095 265.177 72.8335 265.147 72.9528C265.118 73.072 265.066 73.1842 264.995 73.2827C264.923 73.3813 264.834 73.4644 264.731 73.5272C264.628 73.59 264.514 73.6313 264.396 73.6488C264.155 73.6209 263.934 73.4999 263.777 73.3102C263.62 73.1205 263.539 72.8764 263.55 72.6274C263.531 72.5056 263.537 72.3812 263.566 72.2615C263.594 72.1419 263.646 72.0293 263.718 71.9305C263.789 71.8317 263.88 71.7486 263.983 71.6861C264.086 71.6236 264.2 71.5829 264.319 71.5665C264.559 71.5961 264.779 71.7177 264.936 71.907C265.093 72.0962 265.175 72.3393 265.165 72.5878Z" fill="#263238"/>
<path d="M279.098 73.6171C279.119 73.7392 279.115 73.8644 279.087 73.9849C279.059 74.1055 279.008 74.2189 278.936 74.3182C278.864 74.4175 278.773 74.5007 278.668 74.5626C278.564 74.6244 278.449 74.6637 278.329 74.6781C278.089 74.6521 277.868 74.5327 277.71 74.3443C277.553 74.1559 277.472 73.9128 277.483 73.6646C277.462 73.5425 277.466 73.4174 277.494 73.2968C277.522 73.1763 277.573 73.0629 277.645 72.9635C277.717 72.8642 277.808 72.7811 277.912 72.7192C278.017 72.6573 278.132 72.618 278.252 72.6037C278.492 72.6297 278.713 72.7491 278.871 72.9375C279.028 73.1258 279.109 73.369 279.098 73.6171Z" fill="#263238"/>
<path d="M299.817 105.311C299.817 105.311 304.302 107.449 305.971 110.853C307.641 114.258 320.989 151.145 320.927 153.932C320.866 156.719 316.45 159.934 312.311 160.369C308.172 160.805 302.14 153.085 301.24 151.802C300.34 150.52 300.178 135.508 300.178 135.508L299.817 105.311Z" fill="#FCFCFC" fill-opacity="0.988235" stroke="#263238" stroke-linecap="round" stroke-linejoin="round"/>
<path d="M278.675 95.4615L280.86 169.205L281.629 215.72C285.818 216.781 290.11 217.352 294.424 217.423C298.021 217.5 301.598 216.844 304.948 215.491C304.948 215.491 303.64 186.552 303.41 181.834C303.179 177.115 301.655 168.113 301.655 168.113L299.84 105.311C299.84 105.311 282.937 97.1717 278.675 95.4615Z" fill="#FCFCFC" fill-opacity="0.988235" stroke="#263238" stroke-linecap="round" stroke-linejoin="round"/>
<path d="M283.476 99.5311L291.223 125.54L284.161 127.512L291.031 130.94L282.46 158.96" fill="#FCFCFC" fill-opacity="0.988235"/>
<path d="M283.476 99.5311L291.223 125.54L284.161 127.512L291.031 130.94L282.46 158.96" stroke="#263238" stroke-linecap="round" stroke-linejoin="round"/>
<path d="M288.877 123.323L279.268 170.702C279.268 170.702 285.838 172.839 290.638 173.077C295.439 173.314 305.441 173.283 305.441 173.283L315.442 129.119C315.442 129.119 295.755 127.179 288.877 123.323Z" fill="#263238" stroke="#263238" stroke-linecap="round" stroke-linejoin="round"/>
<path d="M292.223 167.479L292.539 152.673L300.163 154.328C300.163 154.328 295.124 165.753 292.223 167.479Z" fill="#FCFCFC" fill-opacity="0.988235" stroke="#263238" stroke-linecap="round" stroke-linejoin="round"/>
<path d="M298.063 147.321C298.063 147.321 296.032 144.328 295.378 143.679C294.724 143.03 291.492 141.114 290.869 141.114C290.246 141.114 286.899 140.9 286.253 140.9C285.607 140.9 284.876 142.404 285.538 143.046C286.199 143.687 288.5 143.901 288.5 143.901L290.077 146.276L282.96 145.635C282.96 145.635 281.776 146.925 282.045 148.01C282.246 148.745 282.504 149.462 282.814 150.156C282.787 151.73 282.867 153.304 283.053 154.867C283.33 156.157 284.591 156.585 286.322 157.653C288.053 158.722 293.847 158.081 293.847 158.081H296.524L298.063 147.321Z" fill="#FCFCFC" fill-opacity="0.988235" stroke="#263238" stroke-linecap="round" stroke-linejoin="round"/>
<path d="M315.411 148.81L296.947 146.252C296.947 146.252 295.508 158.477 294.054 162.547C292.6 166.616 292.223 167.479 292.223 167.479C292.223 167.479 311.572 167.036 316.134 166.608C320.697 166.181 323.259 163.386 323.059 159.53C322.859 155.674 320.574 151.81 320.574 151.81" fill="#FCFCFC" fill-opacity="0.988235"/>
<path d="M315.411 148.81L296.947 146.252C296.947 146.252 295.508 158.477 294.054 162.547C292.6 166.616 292.223 167.479 292.223 167.479C292.223 167.479 311.572 167.036 316.134 166.608C320.697 166.181 323.259 163.386 323.059 159.53C322.859 155.674 320.574 151.81 320.574 151.81" stroke="#263238" stroke-linecap="round" stroke-linejoin="round"/>
<path d="M238.415 162.159C238.415 162.159 242.724 164.938 243.801 165.801C244.878 166.664 244.97 172.23 245.655 173.298C246.34 174.367 245.532 175.017 244.285 175.017C243.039 175.017 241.154 170.947 241.154 170.947L241.077 169.443L232.276 172.451L229.968 168.382C229.968 168.382 232.584 162.159 238.415 162.159Z" fill="#FCFCFC" fill-opacity="0.988235" stroke="#263238" stroke-linecap="round" stroke-linejoin="round"/>
<path d="M174.298 330.374C196.533 330.374 214.558 326.191 214.558 321.031C214.558 315.871 196.533 311.688 174.298 311.688C152.063 311.688 134.038 315.871 134.038 321.031C134.038 326.191 152.063 330.374 174.298 330.374Z" fill="#263238" stroke="#263238" stroke-linecap="round" stroke-linejoin="round"/>
<path d="M205.741 99.0164C205.741 99.0164 211.019 126.276 211.958 131.32C212.896 136.363 214.62 148.35 216.574 153.608C218.528 158.865 217.889 165.595 216.912 167.487C215.932 169.131 214.807 170.679 213.55 172.111L206.995 163.314C206.995 163.314 203.095 120.212 202.949 114.107C202.802 108.003 205.741 99.0164 205.741 99.0164Z" fill="#FCFCFC" fill-opacity="0.988235" stroke="#263238" stroke-linecap="round" stroke-linejoin="round"/>
<path d="M209.219 162.238C209.219 162.238 213.373 164.906 214.104 166.038C214.835 167.17 215.358 168.611 214.789 169.838C214.219 171.066 211.119 174.771 210.334 175.492C209.55 176.212 208.888 173.338 208.796 170.868C208.703 168.398 209.219 162.238 209.219 162.238Z" fill="#FCFCFC" fill-opacity="0.988235" stroke="#263238" stroke-linecap="round" stroke-linejoin="round"/>
<path d="M186.877 311.72C186.877 311.72 199.902 318.236 200.725 319.503C201.548 320.77 198.579 322.456 190.816 322.456C183.053 322.456 182.823 321.403 179.738 320.564C176.652 319.725 170.505 320.35 169.674 318.458C168.844 316.566 170.29 310.05 170.29 310.05L186.877 311.72Z" fill="#FCFCFC" fill-opacity="0.988235" stroke="#263238" stroke-linecap="round" stroke-linejoin="round"/>
<path d="M169.582 315.085C169.582 315.085 180.353 321.815 179.407 324.127C178.46 326.439 170.675 326.439 166.574 325.805C162.473 325.172 153.757 319.471 153.295 317.397C152.834 315.323 153.988 312.14 160.304 311.514C166.62 310.889 169.582 315.085 169.582 315.085Z" fill="#FCFCFC" fill-opacity="0.988235" stroke="#263238" stroke-linecap="round" stroke-linejoin="round"/>
<path d="M202.279 205.119C202.279 205.119 196.125 253.899 195.055 261.048C193.986 268.198 190.593 279.551 188.762 288.174C187.724 293.244 186.954 298.369 186.454 303.526C186.267 304.992 186.301 306.48 186.554 307.936C186.815 310.042 186.854 311.72 186.854 311.72C184.114 312.428 181.326 312.92 178.514 313.193C175.044 313.407 170.344 313.407 170.344 313.407L168.805 299.741C168.805 299.741 169.951 279.551 170.628 273.669C171.305 267.786 172.029 221.524 171.998 220.257C171.967 218.99 171.698 207.85 171.698 207.85L192.662 205.539C192.662 205.539 195.524 197.13 199.825 197.55C204.126 197.969 202.279 205.119 202.279 205.119Z" fill="#FCFCFC" fill-opacity="0.988235" stroke="#263238" stroke-linecap="round" stroke-linejoin="round"/>
<path d="M199.856 197.55C195.555 197.13 192.693 205.539 192.693 205.539L171.706 207.85C171.706 207.85 171.775 210.812 171.844 213.852C174.083 214.058 176.152 214.177 177.922 214.177C184.646 214.165 191.365 213.777 198.048 213.013L198.948 203.322L200.356 213.195L201.325 212.87C201.925 208.167 202.31 205.103 202.31 205.103C202.31 205.103 204.156 197.969 199.856 197.55Z" fill="#263238" stroke="#263238" stroke-linecap="round" stroke-linejoin="round"/>
<path d="M149.81 206.592C149.81 206.592 149.81 206.892 149.856 207.439C150.141 213.187 151.833 246.496 152.349 252.64C152.926 259.37 150.041 266.725 150.187 272.821C150.333 278.918 151.726 311.934 151.726 311.934L153.264 317.397C153.264 317.397 156.88 314.879 160.35 314.879C163.82 314.879 169.582 315.085 169.582 315.085C169.582 315.085 169.882 310.667 169.851 309.202C169.821 307.738 169.69 302.473 169.69 302.473C169.69 302.473 175.56 274.927 175.914 272.616C176.268 270.304 180.822 230.352 180.792 229.069C180.761 227.787 181.753 209.933 181.753 209.933L149.81 206.592Z" fill="#FCFCFC" fill-opacity="0.988235" stroke="#263238" stroke-linecap="round" stroke-linejoin="round"/>
<path d="M181.538 214.137C181.669 211.698 181.761 209.956 181.761 209.956L149.81 206.592C149.81 206.592 149.81 206.892 149.856 207.439C149.856 208.135 149.941 209.236 150.018 210.606C157.488 211.983 170.452 214.153 177.922 214.153C179.153 214.177 180.353 214.161 181.538 214.137Z" fill="#263238" stroke="#263238" stroke-linecap="round" stroke-linejoin="round"/>
<path d="M173.352 77.4888C173.352 77.4888 169.975 78.0747 168.69 79.6265C167.402 81.1359 166.244 82.7571 165.228 84.472C165.051 85.0579 145.186 97.4646 145.186 97.4646L146.617 156.624C146.617 156.624 147.21 165.737 146.156 168.841C144.375 174.943 143.511 181.29 143.594 187.661C143.778 195.222 144.255 207.455 144.255 207.455C144.255 207.455 166.989 212.11 177.922 212.11C184.646 212.094 191.365 211.7 198.048 210.93L198.948 201.231L200.317 211.128L204.987 209.545L208.834 180.25C208.834 180.25 211.511 174.043 211.481 172.681C211.45 171.319 212.158 169.577 211.381 168.413C210.604 167.249 209.219 164.922 209.219 164.922C209.219 164.922 205.741 100.766 205.741 99.0164C205.741 97.2667 195.455 86.9977 194.694 86.6097C193.932 86.2218 189.239 79.0406 183.153 77.1087C177.068 75.1768 173.352 77.4888 173.352 77.4888Z" fill="#FCFCFC" fill-opacity="0.988235" stroke="#263238" stroke-linecap="round" stroke-linejoin="round"/>
<path d="M167.159 86.4118L164.881 107.718L174.237 112.191L171.898 119.42L195.294 161.731" stroke="#263238" stroke-linecap="round" stroke-linejoin="round"/>
<path d="M193.293 88.8029L200.31 105.659L197.302 109.784L202.318 117.005L200.31 163.449" stroke="#263238" stroke-linecap="round" stroke-linejoin="round"/>
<path d="M172.483 80.4024C172.653 84.559 173.386 88.6708 174.66 92.6191C176.683 98.4385 190.093 138.588 190.093 138.588L198.763 170.005C198.763 170.005 197.617 138.002 197.586 136.648C197.556 135.294 191.016 90.8693 191.016 90.8693C191.016 90.8693 189.901 83.6961 188.139 80.9804C186.377 78.2647 174.568 73.2212 172.483 80.4024Z" fill="#00A991" stroke="#263238" stroke-linecap="round" stroke-linejoin="round"/>
<path d="M171.652 77.2987C171.652 77.2987 166.197 77.8767 167.159 86.4118C168.12 94.9468 169.39 100.766 169.39 100.766" stroke="#263238" stroke-width="2" stroke-linecap="round" stroke-linejoin="round"/>
<path d="M168.72 112.017C168.72 112.017 171.029 121.906 172.606 124.622C174.183 127.337 178.953 130.053 182.346 130.053" stroke="#263238" stroke-linecap="round" stroke-linejoin="round"/>
<path d="M176.014 109.689C176.014 109.689 178.553 121.13 178.976 123.268C179.399 125.405 177.999 129.467 175.645 133.561" stroke="#263238" stroke-linecap="round" stroke-linejoin="round"/>
<path d="M174.968 134.914C174.725 134.777 174.546 134.547 174.468 134.274C174.39 134.001 174.42 133.708 174.552 133.458L174.821 132.951C174.888 132.83 174.977 132.723 175.083 132.638C175.19 132.553 175.312 132.49 175.442 132.454C175.573 132.418 175.709 132.409 175.843 132.428C175.976 132.446 176.105 132.492 176.222 132.563C176.464 132.7 176.644 132.93 176.723 133.202C176.802 133.475 176.774 133.768 176.645 134.02L176.375 134.519C176.309 134.641 176.22 134.748 176.113 134.834C176.006 134.92 175.883 134.983 175.752 135.02C175.621 135.057 175.484 135.067 175.35 135.049C175.215 135.03 175.085 134.985 174.968 134.914Z" fill="#263238"/>
<path d="M183.607 130.267C183.607 130.406 183.58 130.545 183.527 130.673C183.474 130.802 183.396 130.918 183.299 131.015C183.201 131.111 183.085 131.187 182.958 131.237C182.832 131.286 182.697 131.309 182.561 131.304H181.999C181.723 131.298 181.459 131.18 181.266 130.975C181.073 130.771 180.966 130.496 180.968 130.211C180.967 130.072 180.994 129.934 181.046 129.806C181.098 129.677 181.175 129.561 181.272 129.464C181.369 129.367 181.484 129.291 181.611 129.242C181.737 129.192 181.872 129.169 182.007 129.174H182.569C182.846 129.182 183.109 129.301 183.302 129.505C183.496 129.708 183.605 129.982 183.607 130.267Z" fill="#263238"/>
<path d="M168.736 112.793L167.443 104.361C167.299 103.491 167.482 102.598 167.955 101.863C168.428 101.127 169.156 100.605 169.99 100.402C170.889 100.192 171.832 100.348 172.621 100.838C173.41 101.328 173.983 102.114 174.221 103.031L176.429 111.423" stroke="#263238" stroke-width="2" stroke-linecap="round" stroke-linejoin="round"/>
<path d="M199.147 118.492C200.999 118.301 202.327 116.365 202.113 114.168C201.899 111.97 200.224 110.344 198.373 110.535C196.521 110.726 195.193 112.662 195.407 114.859C195.621 117.056 197.295 118.683 199.147 118.492Z" fill="#FCFCFC" fill-opacity="0.988235" stroke="#263238" stroke-linecap="round" stroke-linejoin="round"/>
<path d="M189.685 80.8537C189.685 80.8537 197.094 91.5819 199.456 113.45" stroke="#263238" stroke-width="2" stroke-linecap="round" stroke-linejoin="round"/>
<path d="M199.653 115.982C200.664 115.885 201.394 114.822 201.285 113.607C201.175 112.392 200.266 111.486 199.255 111.583C198.244 111.68 197.513 112.743 197.623 113.957C197.733 115.172 198.641 116.079 199.653 115.982Z" fill="#FCFCFC" fill-opacity="0.988235" stroke="#263238" stroke-linecap="round" stroke-linejoin="round"/>
<path d="M210.48 163.908C210.026 165.358 209.654 166.833 209.365 168.326C209.365 168.96 209.219 170.852 207.78 170.424C206.341 169.997 206.772 162.436 206.957 161.596C207.142 160.757 210.642 163.473 210.642 163.473" fill="#FCFCFC" fill-opacity="0.988235"/>
<path d="M210.48 163.908C210.026 165.358 209.654 166.833 209.365 168.326C209.365 168.96 209.219 170.852 207.78 170.424C206.341 169.997 206.772 162.436 206.957 161.596C207.142 160.757 210.642 163.473 210.642 163.473" stroke="#263238" stroke-linecap="round" stroke-linejoin="round"/>
<path d="M163.781 157.21C165.061 157.935 166.491 158.334 167.951 158.374C170.213 158.374 174.344 157.582 175.86 157.986C177.376 158.39 181.245 163.409 181.245 163.409C181.245 163.409 182.399 164.573 181.853 165.159C181.307 165.745 180.191 166.743 179.422 166.125C178.653 165.508 174.806 162.246 174.806 162.246L165.105 166.323L161.119 164.185L163.781 157.21Z" fill="#FCFCFC" fill-opacity="0.988235" stroke="#263238" stroke-linecap="round" stroke-linejoin="round"/>
<path d="M148.925 96.1107C148.925 96.1107 142.532 96.9025 141.447 98.6285C140.362 100.355 122.845 139.942 122.883 141.692C122.921 143.442 157.911 171.778 157.911 171.778L165.466 156.98L146.563 138.944L154.765 119.357" fill="#FCFCFC" fill-opacity="0.988235"/>
<path d="M148.925 96.1107C148.925 96.1107 142.532 96.9025 141.447 98.6285C140.362 100.355 122.845 139.942 122.883 141.692C122.921 143.442 157.911 171.778 157.911 171.778L165.466 156.98L146.563 138.944L154.765 119.357" stroke="#263238" stroke-linecap="round" stroke-linejoin="round"/>
<path d="M160.719 178.928L179.199 179.316L179.107 167.487" stroke="#263238" stroke-linecap="round" stroke-linejoin="round"/>
<path d="M165.128 166.323L160.242 168.2" stroke="#263238" stroke-linecap="round" stroke-linejoin="round"/>
<path d="M170.698 68.9537C170.698 68.9537 172.798 85.8338 174.183 88.3516C175.568 90.8693 185.415 100.956 185.415 100.956C185.415 100.956 188.493 89.3254 188.839 86.6097C189.185 83.894 189.454 73.0312 189.454 73.0312L170.659 67.5998L170.698 68.9537Z" fill="#FCFCFC" fill-opacity="0.988235" stroke="#263238" stroke-linecap="round" stroke-linejoin="round"/>
<path d="M170.698 68.9537C170.698 68.9537 170.944 70.933 171.321 73.6329C172.794 75.0446 174.477 76.2047 176.306 77.0691C178.73 78.1696 185.192 78.7872 189.277 78.2963C189.385 75.4539 189.454 73.0312 189.454 73.0312L170.659 67.5998L170.698 68.9537Z" fill="#263238" stroke="#263238" stroke-linecap="round" stroke-linejoin="round"/>
<path d="M165.251 54.2192C165.251 54.2192 162.735 51.5035 161.489 54.5993C160.242 57.695 163.027 62.3584 164.512 62.5564C165.393 62.6746 166.288 62.6072 167.143 62.3584C167.143 62.3584 168.197 66.8239 169.167 68.1778C171.075 70.6604 173.519 72.6504 176.306 73.9892C179.738 75.5727 191.224 76.1349 192.678 73.9892C194.132 71.8436 194.047 60.4107 194.024 59.4448C194.001 58.4788 193.84 44.6549 193.84 44.6549C193.84 44.6549 194.87 39.8569 193.47 36.5553C192.07 33.2537 178.014 28.6378 174.483 30.5459C170.952 32.454 166.882 35.7794 166.605 40.0469C166.328 44.3144 166.497 51.2977 166.497 51.2977L165.251 54.2192Z" fill="#FCFCFC" fill-opacity="0.988235" stroke="#263238" stroke-linecap="round" stroke-linejoin="round"/>
<path d="M186.023 48.2019C186.023 48.2019 188.37 59.2864 187.831 60.6166C187.292 61.9467 185.608 61.9705 183.5 60.8066C181.392 59.6427 182.492 58.0909 182.492 58.0909" stroke="#263238" stroke-linecap="round" stroke-linejoin="round"/>
<path d="M177.853 61.0045C177.853 61.0045 178.868 63.9102 180.753 64.1082C182.638 64.3061 187.369 64.6862 187.369 64.6862" stroke="#263238" stroke-linecap="round" stroke-linejoin="round"/>
<path d="M171.121 48.5899L171.421 53.2454C171.421 53.2454 173.144 54.2192 177.099 54.2192C181.053 54.2192 182.353 53.2454 182.353 53.2454L182.246 48.5899C182.246 48.5899 176.506 45.0982 171.121 48.5899Z" stroke="#263238" stroke-linecap="round" stroke-linejoin="round"/>
<path d="M186.038 48.5899L187.469 53.4433C187.469 53.4433 188.054 54.235 192.016 54.235C195.978 54.235 197.279 53.2612 197.279 53.2612L197.163 48.6057C197.163 48.6057 191.416 45.0982 186.038 48.5899Z" stroke="#263238" stroke-linecap="round" stroke-linejoin="round"/>
<path d="M182.269 48.5899H186.038" stroke="#263238" stroke-linecap="round" stroke-linejoin="round"/>
<path d="M171.144 48.5899L163.712 53.0553" stroke="#263238" stroke-linecap="round" stroke-linejoin="round"/>
<path d="M172.975 46.2621C172.975 46.2621 174.991 43.9344 179.561 45.8742" stroke="#263238" stroke-linecap="round" stroke-linejoin="round"/>
<path d="M186.731 46.2621C187.409 45.7018 188.228 45.3502 189.092 45.2479C189.957 45.1457 190.832 45.2969 191.616 45.6841" stroke="#263238" stroke-linecap="round" stroke-linejoin="round"/>
<path d="M177.791 50.7276C177.791 51.5827 177.491 52.3111 177.076 52.3111C176.66 52.3111 176.306 51.6144 176.306 50.7276C176.306 49.8408 176.606 49.1441 177.029 49.1441C177.453 49.1441 177.776 49.8646 177.791 50.7276Z" fill="#263238"/>
<path d="M189.854 50.5297C189.854 51.3848 189.554 52.1132 189.139 52.1132C188.723 52.1132 188.37 51.4164 188.37 50.5297C188.37 49.6429 188.67 48.9462 189.085 48.9462C189.5 48.9462 189.831 49.6746 189.854 50.5297Z" fill="#263238"/>
<path d="M176.945 32.5886C176.945 32.5886 178.76 36.7136 176.506 38.2179C175.811 38.6322 175.021 38.8503 174.217 38.8503C173.414 38.8503 172.624 38.6322 171.929 38.2179C172.528 39.0699 172.863 40.0885 172.889 41.1399C172.915 42.1914 172.631 43.2263 172.075 44.1086C170.97 46.0034 169.681 47.778 168.228 49.4054C168.228 49.4054 168.636 54.4172 167.79 55.003C166.943 55.5889 164.635 54.7101 164.597 53.2374C164.558 51.7648 163.635 48.8195 163.597 47.3468C163.558 45.8742 162.897 42.0421 162.897 42.0421C162.897 42.0421 157.111 39.3897 160.181 36.1515C163.25 32.9132 169.767 30.2609 169.767 30.2609C169.767 30.2609 169.913 24.3702 173.875 22.6046C177.837 20.839 186.362 18.1867 186.431 21.132C186.539 22.6478 186.275 24.1672 185.661 25.5499C185.661 25.5499 192.809 25.257 197.794 30.3004C202.779 35.3439 202.61 40.0231 200.033 40.0231C197.455 40.0231 196.617 40.609 196.617 40.609C196.617 40.609 201.548 43.5543 199.01 45.027C196.471 46.4997 193.855 44.7341 193.855 44.7341C193.855 44.7341 194.947 42.6755 191.732 39.9836C188.516 37.2916 176.945 32.5886 176.945 32.5886Z" fill="#263238" stroke="#263238" stroke-linecap="round" stroke-linejoin="round"/>
<path d="M79.3227 330.374C101.558 330.374 119.582 326.191 119.582 321.031C119.582 315.871 101.558 311.688 79.3227 311.688C57.0879 311.688 39.063 315.871 39.063 321.031C39.063 326.191 57.0879 330.374 79.3227 330.374Z" fill="#263238" stroke="#263238" stroke-linecap="round" stroke-linejoin="round"/>
<path d="M105.834 127.789V135.358L116.528 140.401C116.528 140.401 117.644 135.358 116.751 126.411L105.834 127.789Z" fill="#999999" stroke="#263238" stroke-linecap="round" stroke-linejoin="round"/>
<path d="M52.7573 309.424C50.3096 311.586 47.9969 313.906 45.8332 316.368C42.7558 319.939 42.1557 323.493 45.0177 325.196C47.8796 326.898 52.3726 326.455 57.2733 323.303C62.174 320.152 61.974 318.886 64.836 317.84C67.6979 316.795 69.5367 314.673 69.5367 311.316C69.5367 307.959 59.1121 307.532 56.8656 307.358C54.6191 307.183 52.7573 309.424 52.7573 309.424Z" fill="#FCFCFC" fill-opacity="0.988235" stroke="#263238" stroke-linecap="round" stroke-linejoin="round"/>
<path d="M69.5136 311.316C69.5136 311.316 64.8975 313.422 62.6588 315.338C60.42 317.254 55.9578 324.151 50.7416 324.151C48.0853 324.153 45.4731 323.452 43.1559 322.116C43.1593 322.753 43.3325 323.377 43.6567 323.92C43.9809 324.463 44.4437 324.905 44.9946 325.196C47.8566 326.874 52.3495 326.455 57.2503 323.303C62.151 320.152 61.951 318.885 64.8129 317.84C67.6749 316.795 69.5136 314.681 69.5136 311.316Z" stroke="#263238" stroke-linecap="round" stroke-linejoin="round"/>
<path d="M104.603 309.424C107.051 311.586 109.364 313.906 111.527 316.368C114.605 319.939 115.205 323.493 112.343 325.196C109.481 326.898 104.988 326.455 100.087 323.303C95.1866 320.152 95.3866 318.886 92.5247 317.84C89.6627 316.795 87.824 314.673 87.824 311.316C87.824 307.959 98.2486 307.532 100.495 307.358C102.742 307.183 104.603 309.424 104.603 309.424Z" fill="#FCFCFC" fill-opacity="0.988235" stroke="#263238" stroke-linecap="round" stroke-linejoin="round"/>
<path d="M87.847 311.316C87.847 311.316 92.4631 313.422 94.7019 315.338C96.9407 317.254 101.403 324.151 106.619 324.151C109.275 324.153 111.888 323.452 114.205 322.116C114.201 322.753 114.028 323.377 113.704 323.92C113.38 324.463 112.917 324.905 112.366 325.196C109.504 326.874 105.011 326.455 100.11 323.303C95.2097 320.152 95.4097 318.885 92.5477 317.84C89.6858 316.795 87.847 314.681 87.847 311.316Z" stroke="#263238" stroke-linecap="round" stroke-linejoin="round"/>
<path d="M46.8333 189.996C46.8333 189.996 48.0566 237.304 48.6721 244.247C49.2876 251.191 51.1032 266.955 51.1032 267.826C51.1032 268.696 52.1187 303.573 52.1187 303.573L50.28 306.74L50.8955 311.158L59.0659 312.837C63.1511 313.676 68.4673 314.943 69.2828 314.103C70.0983 313.264 70.306 311.578 70.7138 309.266C71.1215 306.954 71.937 302.742 71.1215 299.385C70.306 296.028 72.1448 260.272 72.3525 259.433C72.5602 258.594 77.2609 224.058 77.2609 224.058C77.2609 224.058 80.3383 252.45 82.5694 261.064C84.8005 269.678 84.0004 282.513 84.8159 287.556C85.6314 292.599 87.2701 309.638 87.4778 310.897C87.6855 312.156 88.0856 314.064 88.0856 314.064C88.0856 314.064 98.3025 312.591 100.141 311.744C102.005 311.037 103.919 310.476 105.865 310.065C105.865 310.065 106.473 298.078 105.657 293.241C105.063 289.841 104.721 286.401 104.634 282.948C104.634 281.475 105.657 234.802 105.657 234.802L104.634 189.593C104.634 189.593 77.0532 192.538 66.4285 190.432C55.8039 188.326 47.0411 187.067 47.0411 187.067L46.8333 189.996Z" fill="#00A991" stroke="#263238" stroke-linecap="round" stroke-linejoin="round"/>
<path d="M66.4439 190.416C55.8193 188.318 47.0411 187.067 47.0411 187.067L46.8333 190.004C46.8333 190.004 46.9026 192.72 47.018 196.932C51.8879 198.334 61.7817 200.796 71.3446 200.796C81.4538 200.796 97.5562 197.629 104.803 196.117L104.65 189.585C104.65 189.585 77.0686 192.522 66.4439 190.416Z" fill="#263238" stroke="#263238" stroke-linecap="round" stroke-linejoin="round"/>
<path d="M101.934 296.954C102.065 298.403 102.149 299.234 102.149 299.234" stroke="#263238" stroke-linecap="round" stroke-linejoin="round"/>
<path d="M98.8025 201.097C98.8025 201.097 99.5719 241.729 99.5719 257.066C99.5719 267.675 100.818 283.779 101.588 292.694" stroke="#263238" stroke-linecap="round" stroke-linejoin="round"/>
<path d="M57.4503 198.801L59.3121 242.885" stroke="#263238" stroke-linecap="round" stroke-linejoin="round"/>
<path d="M58.9351 246.33V253.614" stroke="#263238" stroke-linecap="round" stroke-linejoin="round"/>
<path d="M68.6212 78.9456C67.6153 78.9511 66.6251 79.2032 65.7327 79.681C64.8403 80.1587 64.0714 80.8485 63.4896 81.693C62.2173 83.4207 60.8015 85.0313 59.2582 86.5068L40.9863 96.6016L42.7712 168.382L43.4405 192.926C43.4405 192.926 57.4734 197.74 70.8446 197.74C84.2158 197.74 108.058 192.198 108.058 192.198C108.058 192.198 106.057 96.5699 106.727 96.5699C107.396 96.5699 93.5787 84.2186 87.3393 80.9725C81.0999 77.7263 68.6212 78.9456 68.6212 78.9456Z" fill="#00A991" stroke="#263238" stroke-linecap="round" stroke-linejoin="round"/>
<path d="M63.4127 87.6232C63.4127 87.6232 70.4907 101.043 73.4757 107.179C76.4608 113.315 82.0308 122.143 82.0308 122.143L91.3476 96.4591" stroke="#263238" stroke-linecap="round" stroke-linejoin="round"/>
<path d="M68.6442 172.744L68.2826 162.032L47.2565 160.773C47.2565 160.773 47.4642 176.545 47.8719 177.4" stroke="#263238" stroke-linecap="round" stroke-linejoin="round"/>
<path d="M68.8981 180.329L68.7981 177.321" stroke="#263238" stroke-linecap="round" stroke-linejoin="round"/>
<path d="M93.8249 178.643L93.2094 160.987C93.2094 160.987 100.564 161.612 106.696 157.408" stroke="#263238" stroke-linecap="round" stroke-linejoin="round"/>
<path d="M62.2971 118.913C62.9434 121.011 64.9129 122.246 66.6901 121.66C68.4673 121.075 69.3674 118.897 68.7135 116.799C68.0595 114.701 66.0977 113.466 64.3205 114.052C62.5433 114.638 61.6432 116.815 62.2971 118.913Z" stroke="#263238" stroke-linecap="round" stroke-linejoin="round"/>
<path d="M62.5049 82.1759C62.5049 82.1759 60.143 91.5186 65.513 116.878" stroke="#263238" stroke-width="2" stroke-linecap="round" stroke-linejoin="round"/>
<path d="M67.1671 117.749C67.0088 118.078 66.7622 118.353 66.4566 118.541C66.151 118.73 65.7993 118.824 65.4432 118.813C65.087 118.802 64.7414 118.686 64.4474 118.479C64.1534 118.272 63.9233 117.982 63.7845 117.644C63.6457 117.307 63.6039 116.935 63.6642 116.574C63.7245 116.212 63.8843 115.876 64.1246 115.606C64.3649 115.335 64.6756 115.141 65.0199 115.046C65.3642 114.952 65.7276 114.961 66.0669 115.073C66.5557 115.28 66.9453 115.678 67.1513 116.179C67.3572 116.68 67.3629 117.244 67.1671 117.749Z" stroke="#263238" stroke-linecap="round" stroke-linejoin="round"/>
<path d="M105.834 95.224C105.834 95.224 109.173 97.7497 109.396 98.6681C109.62 99.5865 120.983 127.559 120.983 127.559L104.496 130.061L104.719 113.545" fill="#00A991"/>
<path d="M105.834 95.224C105.834 95.224 109.173 97.7497 109.396 98.6681C109.62 99.5865 120.983 127.559 120.983 127.559L104.496 130.061L104.719 113.545" stroke="#263238" stroke-linecap="round" stroke-linejoin="round"/>
<path d="M43.2174 95.6832C43.2174 95.6832 39.4246 96.1424 38.5321 99.1194C37.6397 102.096 31.1849 132.373 31.1849 132.373L54.8037 130.061L52.5726 107.354" fill="#00A991"/>
<path d="M43.2174 95.6832C43.2174 95.6832 39.4246 96.1424 38.5321 99.1194C37.6397 102.096 31.1849 132.373 31.1849 132.373L54.8037 130.061L52.5726 107.354" stroke="#263238" stroke-linecap="round" stroke-linejoin="round"/>
<path d="M88.8395 80.7508C88.8395 80.7508 94.6942 84.187 95.2712 92.7379C95.8482 101.289 95.2712 103.458 95.2712 103.458" stroke="#263238" stroke-width="2" stroke-linecap="round" stroke-linejoin="round"/>
<path d="M97.9178 114.408C97.9178 114.408 97.3946 124.519 96.3252 127.44C95.2558 130.362 91.0244 133.822 87.6701 134.376" stroke="#263238" stroke-linecap="round" stroke-linejoin="round"/>
<path d="M90.3397 113.315C90.3397 113.315 89.8704 124.978 89.8243 127.147C89.7781 129.317 91.9015 133.093 94.9481 136.712" stroke="#263238" stroke-linecap="round" stroke-linejoin="round"/>
<path d="M95.8219 137.982L95.9115 137.907C96.3306 137.557 96.3949 136.924 96.055 136.493L95.6237 135.946C95.2838 135.514 94.6685 135.448 94.2494 135.798L94.1597 135.873C93.7406 136.222 93.6764 136.856 94.0163 137.287L94.4475 137.834C94.7874 138.266 95.4027 138.332 95.8219 137.982Z" fill="#263238"/>
<path d="M86.4656 134.746L86.4871 134.862C86.5875 135.408 87.0988 135.766 87.629 135.663L88.3017 135.532C88.8319 135.428 89.1802 134.902 89.0798 134.357L89.0583 134.24C88.9578 133.694 88.4466 133.336 87.9164 133.439L87.2437 133.57C86.7135 133.674 86.3651 134.2 86.4656 134.746Z" fill="#263238"/>
<path d="M98.0332 115.176L97.8101 106.681C97.7893 105.794 97.4482 104.948 96.8536 104.307C96.2589 103.666 95.4534 103.276 94.5942 103.213C93.6817 103.143 92.7793 103.447 92.0845 104.06C91.3896 104.673 90.9587 105.544 90.886 106.483L90.1936 115.097" stroke="#263238" stroke-width="2" stroke-linecap="round" stroke-linejoin="round"/>
<path d="M117.198 134.669L111.881 133.521L93.1632 130.314L66.9132 125.168L60.6892 122.341C60.6892 122.341 54.8038 114.424 54.296 113.632C53.7882 112.84 47.1334 115.604 47.3719 116.657C47.6104 117.71 48.3951 128.232 48.9106 128.897C49.426 129.562 55.173 129.554 55.173 129.554C55.173 129.554 82.5925 143.172 83.7311 143.671C99.5565 150.536 107.188 150.472 109.889 150.924C112.589 151.375 114.351 150.251 115.905 148.414C117.459 146.577 117.198 134.669 117.198 134.669Z" fill="#999999" stroke="#263238" stroke-linecap="round" stroke-linejoin="round"/>
<path d="M53.4959 113.521C53.4959 113.521 50.3031 113.656 45.5716 116.942C43.8098 118.169 42.8866 119.048 42.8866 119.578C42.9874 120.209 43.1604 120.826 43.4021 121.415C46.4696 119.895 49.6822 118.706 52.9881 117.868" fill="#999999"/>
<path d="M53.4959 113.521C53.4959 113.521 50.3031 113.656 45.5716 116.942C43.8098 118.169 42.8866 119.048 42.8866 119.578C42.9874 120.209 43.1604 120.826 43.4021 121.415C46.4696 119.895 49.6822 118.706 52.9881 117.868" stroke="#263238" stroke-linecap="round" stroke-linejoin="round"/>
<path d="M54.773 121.946C54.773 121.946 46.0871 124.178 44.6792 124.447C43.2713 124.717 43.0174 123.26 43.0174 122.737C43.0174 122.215 43.4021 121.415 44.9331 120.631C46.4641 119.847 54.1652 117.733 54.1652 117.733" fill="#999999"/>
<path d="M54.773 121.946C54.773 121.946 46.0871 124.178 44.6792 124.447C43.2713 124.717 43.0174 123.26 43.0174 122.737C43.0174 122.215 43.4021 121.415 44.9331 120.631C46.4641 119.847 54.1652 117.733 54.1652 117.733" stroke="#263238" stroke-linecap="round" stroke-linejoin="round"/>
<path d="M55.6731 126.023C55.6731 126.023 45.5716 127.076 44.8023 126.419C44.5669 126.155 44.3883 125.843 44.2782 125.503C44.1682 125.164 44.1292 124.804 44.1637 124.447L53.242 122.468" fill="#999999"/>
<path d="M55.6731 126.023C55.6731 126.023 45.5716 127.076 44.8023 126.419C44.5669 126.155 44.3883 125.843 44.2782 125.503C44.1682 125.164 44.1292 124.804 44.1637 124.447L53.242 122.468" stroke="#263238" stroke-linecap="round" stroke-linejoin="round"/>
<path d="M52.8573 126.546L45.0638 126.941C45.0638 126.941 45.4408 128.129 45.8332 128.256C47.6795 128.725 49.5607 129.035 51.4571 129.182C52.7007 129.224 53.9398 129.356 55.1653 129.578" fill="#999999"/>
<path d="M52.8573 126.546L45.0638 126.941C45.0638 126.941 45.4408 128.129 45.8332 128.256C47.6795 128.725 49.5607 129.035 51.4571 129.182C52.7007 129.224 53.9398 129.356 55.1653 129.578" stroke="#263238" stroke-linecap="round" stroke-linejoin="round"/>
<path d="M36.0856 131.914C36.0856 131.914 39.6477 147.749 40.5401 148.889C41.4325 150.029 48.7875 148.889 56.1424 146.593C63.4973 144.297 94.6942 130.544 94.6942 130.544L99.1487 131.454C99.1487 131.454 97.3638 125.722 94.248 125.493C91.1322 125.263 54.8037 130.061 54.8037 130.061L36.0856 131.914Z" fill="#999999" stroke="#263238" stroke-linecap="round" stroke-linejoin="round"/>
<path d="M67.2594 68.8508C67.2594 68.8508 67.2594 69.1912 67.2594 69.7692C67.3287 72.7858 67.6133 82.3659 68.3596 84.6778C69.252 87.4252 81.2846 110.592 82.2078 108.755C83.131 106.918 88.6703 81.9226 88.6703 81.9226V72.0653C88.6703 72.0653 85.7698 74.583 80.4229 74.583C75.076 74.583 67.2594 68.8508 67.2594 68.8508Z" fill="#999999" stroke="#263238" stroke-linecap="round" stroke-linejoin="round"/>
<path d="M85.1082 82.4372C86.3559 81.6531 87.5487 80.78 88.678 79.8244V72.0653C88.678 72.0653 85.7775 74.583 80.4306 74.583C75.0837 74.583 67.2594 68.8508 67.2594 68.8508C67.2594 68.8508 67.2594 69.1912 67.2594 69.7692C67.2594 70.8301 67.3364 72.7066 67.4287 74.7968C67.6397 75.1448 67.8763 75.4757 68.1365 75.7865C69.6752 77.6154 77.0455 82.2076 78.8304 82.6668C80.6152 83.126 83.1002 83.5773 85.1082 82.4372Z" fill="#263238" stroke="#263238" stroke-linecap="round" stroke-linejoin="round"/>
<path d="M94.0249 55.5494C94.0249 55.5494 97.587 53.4829 97.587 57.3862C97.587 61.2896 94.248 65.8738 94.248 65.8738L94.0249 55.5494Z" fill="#999999" stroke="#263238" stroke-linecap="round" stroke-linejoin="round"/>
<path d="M62.1587 55.779C62.1587 55.779 57.2502 54.4013 57.2502 58.9935C57.2502 63.5856 61.7124 66.5547 61.7124 66.5547H64.7898C64.7898 66.5547 66.5747 71.1469 68.1365 72.9758C69.6982 74.8047 77.0455 79.3969 78.8303 79.8561C80.6152 80.3153 83.0617 80.7745 85.0697 79.6265C87.5925 78.008 89.9172 76.0835 91.9938 73.8942C92.8863 72.7541 94.448 64.9554 94.448 64.9554C94.448 64.9554 94.8942 50.9651 94.0018 46.1513C93.1094 41.3375 87.3162 33.7683 79.292 32.8499C71.2677 31.9315 63.6897 38.5822 62.5818 43.8552C61.4739 49.1283 62.1587 55.779 62.1587 55.779Z" fill="#999999" stroke="#263238" stroke-linecap="round" stroke-linejoin="round"/>
<path d="M76.6377 59.4527C76.6377 59.4527 75.099 62.6593 77.7533 63.5777C80.4075 64.4961 83.7695 64.2665 84.4389 62.8889C85.1082 61.5112 83.9926 59.9119 83.9926 59.9119" stroke="#263238" stroke-linecap="round" stroke-linejoin="round"/>
<path d="M73.9681 65.185C73.9681 65.185 79.5382 69.9988 87.1162 65.4146" stroke="#263238" stroke-linecap="round" stroke-linejoin="round"/>
<path d="M77.0839 69.5396C77.0839 69.5396 81.7692 72.2949 84.8851 69.0804" stroke="#263238" stroke-linecap="round" stroke-linejoin="round"/>
<path d="M74.4143 56.6974C75.0304 56.6974 75.5299 55.875 75.5299 54.8605C75.5299 53.8461 75.0304 53.0237 74.4143 53.0237C73.7982 53.0237 73.2988 53.8461 73.2988 54.8605C73.2988 55.875 73.7982 56.6974 74.4143 56.6974Z" fill="#263238"/>
<path d="M86.4469 54.6309C86.4469 55.6444 85.9468 56.4678 85.3313 56.4678C84.7158 56.4678 84.2158 55.676 84.2158 54.6309C84.2158 53.5858 84.7158 52.802 85.3313 52.802C85.9468 52.802 86.4469 53.6175 86.4469 54.6309Z" fill="#263238"/>
<path d="M71.2908 52.3428C71.2908 52.3428 72.4064 50.5059 76.6762 51.1947" stroke="#263238" stroke-linecap="round" stroke-linejoin="round"/>
<path d="M83.5464 51.4244C83.5464 51.4244 85.5544 48.2098 88.678 51.4244" stroke="#263238" stroke-linecap="round" stroke-linejoin="round"/>
<path d="M94.0249 46.1354C93.7355 44.7736 93.2341 43.4689 92.5401 42.2717C92.2805 43.5411 92.1899 44.8409 92.2708 46.1354C92.5939 47.814 93.7402 50.1575 93.7402 51.3293C93.7402 52.5011 93.571 57.1962 94.3865 56.5311C94.4673 56.4432 94.5324 56.3414 94.5788 56.2303C94.6298 52.856 94.4446 49.4823 94.0249 46.1354Z" fill="#263238" stroke="#263238" stroke-linecap="round" stroke-linejoin="round"/>
<path d="M82.8232 36.6344C84.2539 36.5565 85.6779 36.3792 87.0854 36.104C84.8124 34.3528 82.1334 33.2446 79.315 32.8895C71.2908 31.971 63.7127 38.6217 62.6049 43.8948C61.497 49.1679 62.1587 55.8186 62.1587 55.8186C62.1587 55.8186 63.9282 57.0854 64.5821 55.7473C65.236 54.4092 64.5821 52.224 65.236 49.8804C65.89 47.5369 66.8594 46.3571 67.0209 44.5124C67.1825 42.6676 66.0439 39.9915 66.6978 38.4792C67.3517 36.967 71.4216 34.1246 74.0296 35.1301C76.8357 36.2239 79.8243 36.7351 82.8232 36.6344Z" fill="#263238" stroke="#263238" stroke-linecap="round" stroke-linejoin="round"/>
<rect x="123.5" y="383" width="16" height="16" rx="8" fill="#00A991"/>
<rect x="163.5" y="383" width="16" height="16" rx="8" fill="#B0E4DD"/>
<rect x="203.5" y="383" width="16" height="16" rx="8" fill="#B0E4DD"/>
</svg>
