<svg width="343" height="335" viewBox="0 0 343 335" fill="none" xmlns="http://www.w3.org/2000/svg">
<path d="M339.761 177.17H336.568V176.608C336.566 175.074 335.973 173.603 334.919 172.518C333.865 171.433 332.435 170.822 330.945 170.82H328.783C327.29 170.82 325.859 171.43 324.803 172.515C323.747 173.6 323.153 175.072 323.151 176.608V177.17H319.966C319.54 177.169 319.119 177.255 318.725 177.422C318.332 177.589 317.974 177.834 317.673 178.144C317.372 178.454 317.134 178.822 316.972 179.227C316.809 179.631 316.726 180.065 316.727 180.503V195.689C316.727 196.573 317.068 197.421 317.676 198.046C318.283 198.671 319.107 199.022 319.966 199.022H339.761C340.62 199.02 341.442 198.669 342.049 198.044C342.656 197.419 342.998 196.573 343 195.689V180.503C343 179.619 342.659 178.772 342.051 178.146C341.444 177.521 340.62 177.17 339.761 177.17ZM324.69 176.608C324.692 175.492 325.124 174.423 325.891 173.635C326.659 172.847 327.698 172.404 328.783 172.404H330.945C332.028 172.404 333.067 172.847 333.833 173.635C334.599 174.424 335.03 175.493 335.03 176.608V177.17H324.69V176.608Z" fill="#263238"/>
<path d="M335.761 186.544H331.683V182.356H328.036V186.544H323.959V190.305H328.036V194.494H331.683V190.305H335.761V186.544Z" fill="#FCFCFC" fill-opacity="0.988235"/>
<path d="M333.453 86.6731C332.819 86.6731 332.191 86.5444 331.605 86.2944C331.019 86.0445 330.487 85.6781 330.039 85.2163C329.591 84.7545 329.236 84.2063 328.994 83.6031C328.752 82.9998 328.628 82.3535 328.629 81.7009V68.3045C328.628 67.6519 328.752 67.0055 328.994 66.4023C329.236 65.7991 329.591 65.2509 330.039 64.7891C330.487 64.3273 331.019 63.9609 331.605 63.7109C332.191 63.4609 332.819 63.3323 333.453 63.3323C334.087 63.3323 334.715 63.4609 335.3 63.7109C335.886 63.9609 336.418 64.3273 336.866 64.7891C337.314 65.2509 337.67 65.7991 337.911 66.4023C338.153 67.0055 338.277 67.6519 338.276 68.3045V81.6771C338.281 82.3317 338.159 82.9806 337.918 83.5866C337.678 84.1926 337.323 84.7436 336.875 85.2079C336.426 85.6722 335.893 86.0407 335.306 86.2922C334.719 86.5436 334.089 86.6731 333.453 86.6731Z" fill="#FCFCFC" fill-opacity="0.988235" stroke="#263238" stroke-linecap="round" stroke-linejoin="round"/>
<path d="M333.453 86.6731C332.819 86.6731 332.191 86.5444 331.605 86.2945C331.019 86.0445 330.487 85.6781 330.039 85.2163C329.591 84.7545 329.236 84.2063 328.994 83.6031C328.752 82.9999 328.628 82.3535 328.629 81.7009V75.0106H338.276V81.7009C338.277 82.3535 338.153 82.9999 337.911 83.6031C337.67 84.2063 337.314 84.7545 336.866 85.2163C336.418 85.6781 335.886 86.0445 335.3 86.2945C334.715 86.5444 334.087 86.6731 333.453 86.6731Z" fill="#263238" stroke="#263238" stroke-linecap="round" stroke-linejoin="round"/>
<path d="M309.187 66.9427C308.791 66.4329 308.496 65.8474 308.32 65.2199C308.144 64.5925 308.09 63.9354 308.162 63.2865C308.233 62.6375 308.428 62.0095 308.737 61.4386C309.045 60.8676 309.459 60.3649 309.957 59.9594L320.089 51.5827C321.092 50.7619 322.371 50.3843 323.645 50.5327C324.918 50.6812 326.083 51.3435 326.882 52.3745C327.68 53.4058 328.046 54.7206 327.902 56.0299C327.758 57.3393 327.114 58.5363 326.113 59.3577L315.973 67.7265C315.478 68.1342 314.909 68.4373 314.3 68.6185C313.691 68.7998 313.053 68.8556 312.422 68.7828C311.792 68.71 311.182 68.51 310.627 68.1942C310.072 67.8785 309.583 67.4532 309.187 66.9427Z" fill="#FCFCFC" fill-opacity="0.988235" stroke="#263238" stroke-linecap="round" stroke-linejoin="round"/>
<path d="M309.187 66.9427C308.791 66.4329 308.496 65.8474 308.32 65.22C308.144 64.5925 308.09 63.9354 308.162 63.2865C308.233 62.6376 308.428 62.0096 308.737 61.4386C309.045 60.8676 309.459 60.365 309.957 59.9595L315.027 55.7711L321.066 63.5224L315.996 67.7028C315.502 68.1154 314.933 68.4232 314.322 68.6085C313.711 68.7937 313.071 68.8527 312.438 68.782C311.805 68.7114 311.192 68.5125 310.634 68.1968C310.076 67.8811 309.585 67.4549 309.187 66.9427Z" fill="#263238" stroke="#263238" stroke-linecap="round" stroke-linejoin="round"/>
<path d="M260.942 30.4905C260.34 30.4908 259.754 30.6846 259.265 31.0447L248.055 22.09C248.605 21.0437 248.863 19.8614 248.8 18.6738C248.738 17.4861 248.357 16.3394 247.702 15.3602L254.549 6.35004C255.128 6.57999 255.764 6.61299 256.363 6.44421C256.962 6.27544 257.493 5.91374 257.878 5.41208C258.262 4.91042 258.481 4.29515 258.502 3.65636C258.522 3.01756 258.343 2.3888 257.991 1.86212C257.64 1.33544 257.133 0.938511 256.546 0.72945C255.959 0.52039 255.323 0.510178 254.73 0.70031C254.137 0.890443 253.619 1.27093 253.251 1.78607C252.884 2.30121 252.686 2.92393 252.687 3.56307C252.683 4.17905 252.869 4.78039 253.218 5.28117L246.555 14.0617C245.662 13.2875 244.576 12.7847 243.421 12.6099C242.265 12.4351 241.085 12.5951 240.013 13.072C238.941 13.5488 238.019 14.3237 237.351 15.3097C236.683 16.2956 236.295 17.4536 236.231 18.6538H228.445C228.36 17.9426 228.03 17.2864 227.514 16.8045C226.999 16.3225 226.333 16.0469 225.637 16.0276C224.941 16.0083 224.261 16.2467 223.721 16.6994C223.182 17.1521 222.818 17.7891 222.695 18.4946C222.573 19.2001 222.701 19.9272 223.056 20.5439C223.411 21.1605 223.969 21.6257 224.628 21.8549C225.288 22.0841 226.006 22.0621 226.651 21.7929C227.296 21.5236 227.826 21.0251 228.145 20.3878H236.377C236.618 21.539 237.159 22.6008 237.942 23.4591C238.726 24.3173 239.722 24.9395 240.823 25.2587C241.925 25.5779 243.09 25.582 244.193 25.2706C245.297 24.9592 246.297 24.3441 247.086 23.4914L258.234 32.4145C258.014 33.0096 257.985 33.6616 258.151 34.2751C258.316 34.8885 258.668 35.4314 259.155 35.8243C259.642 36.2172 260.238 36.4396 260.857 36.4589C261.475 36.4783 262.083 36.2936 262.593 35.9318C263.102 35.5701 263.485 35.0502 263.687 34.4482C263.889 33.8462 263.898 33.1937 263.714 32.5858C263.529 31.978 263.161 31.4468 262.662 31.0698C262.163 30.6929 261.561 30.4899 260.942 30.4905Z" fill="#263238"/>
<path d="M33.239 86.7682C32.3072 86.7661 31.4141 86.3842 30.7552 85.7061C30.0963 85.028 29.7252 84.1089 29.7231 83.1499V53.0634H36.7549V83.1499C36.7549 84.1095 36.3845 85.0298 35.7252 85.7084C35.0658 86.3869 34.1715 86.7682 33.239 86.7682Z" fill="#FCFCFC" fill-opacity="0.988235" stroke="#263238" stroke-linecap="round" stroke-linejoin="round"/>
<path d="M33.239 86.7681C32.3072 86.766 31.4141 86.3841 30.7552 85.706C30.0963 85.0279 29.7252 84.1088 29.7231 83.1498V64.6466H36.7549V83.1498C36.7549 84.1094 36.3845 85.0298 35.7252 85.7083C35.0658 86.3869 34.1715 86.7681 33.239 86.7681Z" fill="#263238" stroke="#263238" stroke-linecap="round" stroke-linejoin="round"/>
<path d="M37.7629 51.3055H28.7231V53.9421H37.7629V51.3055Z" fill="#FCFCFC" fill-opacity="0.988235" stroke="#263238" stroke-linecap="round" stroke-linejoin="round"/>
<path d="M22.5838 86.7682C21.6519 86.7661 20.7588 86.3842 20.0999 85.7061C19.441 85.028 19.0699 84.1089 19.0679 83.1499V53.0634H26.0997V83.1499C26.0997 84.1095 25.7292 85.0298 25.0699 85.7084C24.4105 86.3869 23.5162 86.7682 22.5838 86.7682Z" fill="#FCFCFC" fill-opacity="0.988235" stroke="#263238" stroke-linecap="round" stroke-linejoin="round"/>
<path d="M22.5838 86.7681C21.6519 86.766 20.7588 86.3841 20.0999 85.706C19.441 85.0279 19.0699 84.1088 19.0679 83.1498V64.6466H26.0997V83.1498C26.0997 84.1094 25.7292 85.0298 25.0699 85.7083C24.4105 86.3869 23.5162 86.7681 22.5838 86.7681Z" fill="#263238" stroke="#263238" stroke-linecap="round" stroke-linejoin="round"/>
<path d="M27.1077 51.3055H18.0679V53.9421H27.1077V51.3055Z" fill="#FCFCFC" fill-opacity="0.988235" stroke="#263238" stroke-linecap="round" stroke-linejoin="round"/>
<path d="M124.022 21.6466L126.822 14.7268C126.87 14.6153 126.949 14.521 127.049 14.4561C127.149 14.3912 127.266 14.3586 127.384 14.3625C127.502 14.3686 127.616 14.4122 127.71 14.4873C127.804 14.5624 127.872 14.6653 127.907 14.7822L131.3 26.2942L133.885 17.8146C133.92 17.6953 133.992 17.5905 134.088 17.5152C134.185 17.4399 134.302 17.3978 134.423 17.3949C134.543 17.3983 134.659 17.4375 134.758 17.5079C134.856 17.5782 134.932 17.6765 134.977 17.7908L136.416 22.0504H144.194C145.786 20.3384 146.711 18.0844 146.794 15.7164C146.809 13.5046 146.029 11.3652 144.605 9.70895C143.18 8.05274 141.211 6.99656 139.076 6.74325C136.941 6.48994 134.79 7.05736 133.037 8.33654C131.284 9.61572 130.051 11.5165 129.577 13.6737C129.088 11.5316 127.851 9.64904 126.101 8.38413C124.352 7.11923 122.212 6.56021 120.088 6.81339C117.964 7.06657 116.004 8.1143 114.582 9.7573C113.16 11.4003 112.374 13.524 112.374 15.7244C112.46 17.9173 113.259 20.0171 114.644 21.6862L124.022 21.6466Z" fill="#263238"/>
<path d="M136.008 23.2381C135.888 23.2386 135.771 23.2007 135.674 23.1298C135.576 23.0589 135.502 22.9584 135.462 22.8422L134.462 19.8811L131.838 28.4874C131.801 28.6086 131.727 28.7145 131.627 28.7899C131.528 28.8653 131.408 28.9063 131.284 28.907C131.16 28.9066 131.04 28.8647 130.941 28.7875C130.843 28.7103 130.771 28.6022 130.738 28.4795L127.268 16.7062L124.96 22.4701C124.916 22.5778 124.843 22.6698 124.748 22.7346C124.654 22.7994 124.543 22.8341 124.429 22.8343H115.574C117.474 25.0196 119.844 26.9514 121.614 28.7487C124.291 31.4723 126.914 34.2909 129.646 36.9196C133.146 33.3646 136.67 29.7938 140.139 26.2389C141.101 25.2492 142.147 24.2674 143.117 23.2381H136.008Z" fill="#263238"/>
<path d="M6.22663 200.205L9.99902 201.552L14.0809 189.441L10.3085 188.094L6.22663 200.205Z" fill="#FCFCFC" fill-opacity="0.988235" stroke="#263238" stroke-miterlimit="10"/>
<path d="M4.43812 202.127L10.2603 204.206L11.0292 201.924L5.2071 199.846L4.43812 202.127Z" fill="#FCFCFC" fill-opacity="0.988235" stroke="#263238" stroke-miterlimit="10"/>
<path d="M6.14853 191.211L15.4741 194.54L22.8689 172.6L13.5433 169.271L6.14853 191.211Z" fill="#FCFCFC" fill-opacity="0.988235" stroke="#263238" stroke-miterlimit="10"/>
<path d="M10.6831 181.825L17.5664 184.282L21.6483 172.172L14.7649 169.715L10.6831 181.825Z" fill="#263238" stroke="#263238" stroke-miterlimit="10"/>
<path d="M9.4654 190.604L13.2378 191.951L17.3197 179.84L13.5473 178.494L9.4654 190.604Z" fill="#263238" stroke="#263238" stroke-miterlimit="10"/>
<path d="M5.49025 190.981L16.146 194.785L17.0713 192.039L6.41554 188.235L5.49025 190.981Z" fill="#FCFCFC" fill-opacity="0.988235" stroke="#263238" stroke-miterlimit="10"/>
<path d="M15.8174 168.814L21.3706 170.796L22.6035 167.138L17.0503 165.156L15.8174 168.814Z" fill="#FCFCFC" fill-opacity="0.988235" stroke="#263238" stroke-miterlimit="10"/>
<path d="M12.6519 169.725L23.3076 173.529L24.2329 170.784L13.5772 166.98L12.6519 169.725Z" fill="#FCFCFC" fill-opacity="0.988235" stroke="#263238" stroke-miterlimit="10"/>
<path d="M19.8833 165.65L24.3455 152.396" stroke="#263238" stroke-miterlimit="10"/>
<path d="M267.981 330.374C290.216 330.374 308.241 326.191 308.241 321.031C308.241 315.871 290.216 311.688 267.981 311.688C245.746 311.688 227.721 315.871 227.721 321.031C227.721 326.191 245.746 330.374 267.981 330.374Z" fill="#263238" stroke="#263238" stroke-linecap="round" stroke-linejoin="round"/>
<path d="M236.938 109.855C236.938 109.855 231.491 113.284 231.553 114.788C231.614 116.292 229.522 143.727 229.283 147.155C229.045 150.583 225.875 157.661 225.629 160.876C225.383 164.09 226.167 167.313 227.083 168.793C227.998 170.274 231.36 175.009 231.36 175.009L240.4 160.638C240.622 157.5 240.668 154.352 240.539 151.209C240.4 144.36 236.938 109.855 236.938 109.855Z" fill="#FCFCFC" fill-opacity="0.988235" stroke="#263238" stroke-linecap="round" stroke-linejoin="round"/>
<path d="M271.72 41.8759C271.72 41.8759 262.103 41.2425 256.626 48.1069C251.148 54.9714 252.325 65.47 252.287 68.6924C252.248 71.9149 242.947 81.3604 243.978 85.2083C245.009 89.0563 247.747 89.4917 246.87 92.7062C245.993 95.9207 240.269 97.8526 241.1 101.93C241.931 106.008 244.947 111.787 244.947 111.787L300.34 112.175C300.34 112.175 302.317 106.174 300.209 101.669C298.101 97.1638 295.108 95.6753 295.593 93.5296C296.078 91.384 298.755 86.2376 297.724 82.3818C296.693 78.526 293.108 77.4571 292.731 70.5926C292.354 63.7282 291.369 52.3824 286.076 46.8401C280.783 41.2979 271.72 41.8759 271.72 41.8759Z" fill="#263238" stroke="#263238" stroke-linecap="round" stroke-linejoin="round"/>
<path d="M254.687 306.408C252.986 309.781 250.921 312.947 248.532 315.845C244.993 319.923 241.562 322.068 241.677 324.214C241.793 326.36 249.517 326.779 253.602 325.275C257.687 323.771 260.657 320.77 261.48 320.524C262.303 320.279 264.604 320.524 264.657 317.516C264.711 314.507 264.265 305.94 264.265 305.94L254.687 306.408Z" fill="#FCFCFC" fill-opacity="0.988235" stroke="#263238" stroke-linecap="round" stroke-linejoin="round"/>
<path d="M253.587 325.275C257.68 323.771 260.642 320.77 261.465 320.524C262.288 320.279 264.589 320.524 264.642 317.516C264.642 315.932 264.558 312.765 264.45 310.176C263.845 311.345 262.949 312.327 261.854 313.022C260.759 313.718 259.505 314.102 258.218 314.135C258.218 314.135 258.141 312.631 255.91 310.065C254.472 308.387 253.018 309.709 252.171 310.857L251.487 311.918L251.433 312.021C250.545 313.369 249.573 314.657 248.525 315.877C244.986 319.954 241.554 322.1 241.67 324.246C241.785 326.391 249.502 326.779 253.587 325.275Z" fill="#FCFCFC" fill-opacity="0.988235" stroke="#263238" stroke-linecap="round" stroke-linejoin="round"/>
<path d="M283.191 306.392C285.258 309.777 287.656 312.937 290.346 315.821C294.308 319.891 297.963 322.029 298.039 324.174C298.116 326.32 290.469 326.748 286.222 325.251C281.976 323.755 278.698 320.754 277.86 320.54C277.021 320.326 274.728 320.54 274.367 317.547C274.005 314.555 273.551 305.972 273.551 305.972L283.191 306.392Z" fill="#FCFCFC" fill-opacity="0.988235" stroke="#263238" stroke-linecap="round" stroke-linejoin="round"/>
<path d="M286.253 325.251C282.014 323.755 278.729 320.754 277.89 320.54C277.052 320.326 274.759 320.54 274.397 317.547C274.205 315.964 273.99 312.797 273.828 310.2C274.54 311.361 275.517 312.325 276.675 313.007C277.832 313.688 279.134 314.068 280.468 314.111C280.468 314.111 280.391 312.607 282.337 310.034C283.606 308.363 285.199 309.677 286.184 310.825C286.438 311.174 286.699 311.522 286.953 311.886L287.022 311.989C288.056 313.335 289.161 314.623 290.331 315.845C294.293 319.915 297.947 322.052 298.024 324.198C298.101 326.344 290.5 326.748 286.253 325.251Z" fill="#FCFCFC" fill-opacity="0.988235" stroke="#263238" stroke-linecap="round" stroke-linejoin="round"/>
<path d="M237.954 193.243C237.954 193.243 239.238 237.826 240.946 246.615C242.654 255.403 250.279 305.774 250.279 305.774C252.609 306.789 255.119 307.296 257.649 307.263H265.981L266.75 269.749L267.035 215.301L271.212 307.468C271.212 307.468 282.691 307.888 283.93 307.674C285.168 307.461 286.199 307.247 286.199 307.247L293.577 248.934L297.801 210.139L298.032 194.707C298.032 194.707 262.765 193.448 252.517 192.593C242.27 191.738 238.054 191.525 238.054 191.525L237.954 193.243Z" fill="#00A991" stroke="#263238" stroke-linecap="round" stroke-linejoin="round"/>
<path d="M285.576 271.958C285.484 272.703 285.391 273.392 285.284 274.025" stroke="#263238" stroke-linecap="round" stroke-linejoin="round"/>
<path d="M286.522 218.286C286.522 218.286 287.238 250.051 285.984 267.295" stroke="#263238" stroke-linecap="round" stroke-linejoin="round"/>
<path d="M248.709 215.736C248.709 215.736 249.594 236.749 250.471 241.46" stroke="#263238" stroke-linecap="round" stroke-linejoin="round"/>
<path d="M281.583 202.348V218.389C283.58 218.942 285.622 219.305 287.684 219.473C290.846 219.687 296.747 219.473 296.747 219.473L297.17 213.401L281.583 202.348Z" fill="#263238" stroke="#263238" stroke-linecap="round" stroke-linejoin="round"/>
<path d="M238.608 214.699C238.608 214.699 246.617 217.304 249.986 217.518C253.356 217.732 256.51 218.167 256.51 218.167L256.095 213.836L238.185 212.102L238.608 214.699Z" fill="#263238" stroke="#263238" stroke-linecap="round" stroke-linejoin="round"/>
<path d="M262.919 92.9042L256.634 100.196L239.2 113.284L242.916 192.609C242.916 192.609 256.81 196.457 268.735 197.526C280.66 198.595 295.993 195.784 295.993 195.784L293.739 112.65C293.739 112.65 286.953 102.358 283.476 99.5786C279.999 96.7996 278.406 94.2264 273.798 93.7988C269.189 93.3713 262.919 92.9042 262.919 92.9042Z" fill="#00A991" stroke="#263238" stroke-linecap="round" stroke-linejoin="round"/>
<path d="M255.626 96.8075L236.938 109.895L239.869 158.121L238.877 162.966L231.022 172.277L234.369 188.635L232.876 211.714C232.876 211.714 240.3 214.287 245.332 214.921C249.078 215.334 252.843 215.548 256.61 215.562L257.257 184.05C257.257 184.05 259.742 131.739 260.034 129.42C260.326 127.1 262.919 92.9991 262.919 92.9991L255.626 96.8075Z" fill="#FCFCFC" fill-opacity="0.988235" stroke="#263238" stroke-linecap="round" stroke-linejoin="round"/>
<path d="M255.925 98.7789L246.878 122.128L256.641 126.3L247.424 128.026L255.587 160.939" stroke="#263238" stroke-linecap="round" stroke-linejoin="round"/>
<path d="M261.35 86.689C261.35 86.689 264.596 108.977 267.15 114.123C269.705 119.269 270.428 120.98 270.428 120.98C270.428 120.98 275.983 103.609 277.098 101.035C278.214 98.4623 279.406 89.2463 279.406 89.2463C279.406 89.2463 268.335 92.8963 261.35 86.689Z" fill="#FCFCFC" fill-opacity="0.988235" stroke="#263238" stroke-linecap="round" stroke-linejoin="round"/>
<path d="M261.35 86.689C261.35 86.689 261.642 88.7158 262.119 91.6849C263.742 92.9596 268.043 96.1108 271.22 96.2771C273.644 96.4037 276.721 94.7886 278.768 93.498C279.137 91.1624 279.391 89.2463 279.391 89.2463C279.391 89.2463 268.335 92.8963 261.35 86.689Z" fill="#263238" stroke="#263238" stroke-linecap="round" stroke-linejoin="round"/>
<path d="M256.941 71.2815C256.941 71.2815 254.725 68.0353 253.233 71.2815C251.74 74.5277 255.541 79.3336 256.603 79.9907C259.618 81.8355 258.818 78.4072 258.818 78.4072L256.941 71.2815Z" fill="#FCFCFC" fill-opacity="0.988235" stroke="#263238" stroke-linecap="round" stroke-linejoin="round"/>
<path d="M284.461 72.6829C284.461 72.6829 286.33 69.3259 288.161 72.4929C289.992 75.6599 286.692 80.64 285.707 81.3446C282.891 83.3478 283.337 79.9116 283.337 79.9116L284.461 72.6829Z" fill="#FCFCFC" fill-opacity="0.988235" stroke="#263238" stroke-linecap="round" stroke-linejoin="round"/>
<path d="M256.418 68.4153C256.418 68.4153 264.45 66.4834 268.497 64.0211C270.975 62.4804 273.137 60.455 274.859 58.0592C274.859 58.0592 278.337 64.8208 281.399 67.5602C284.461 70.2997 285.099 70.458 285.099 70.458C285.099 70.458 283.63 82.2947 281.968 86.4118C280.306 90.5289 274.882 94.5351 269.82 93.3792C266.943 92.7299 261.957 90.5922 260.511 86.9898C259.065 83.3873 256.418 68.4153 256.418 68.4153Z" fill="#FCFCFC" fill-opacity="0.988235" stroke="#263238" stroke-linecap="round" stroke-linejoin="round"/>
<path d="M276.913 77.5126C274.42 77.5759 266.073 77.5918 261.765 74.9156C260.038 73.881 258.421 72.663 256.941 71.2815C257.095 72.0732 257.279 73.0629 257.479 74.0922L258.418 74.7969L260.772 83.9495L259.672 84.195C259.904 85.1306 260.184 86.0529 260.511 86.9581C261.957 90.5606 266.942 92.6983 269.82 93.3476C274.874 94.4956 280.283 90.5131 281.96 86.4039C281.564 85.6056 281.447 84.6914 281.629 83.8149C282.114 81.2259 282.714 76.6891 282.714 76.6891L284.43 75.1056C284.522 74.5277 284.599 73.9735 284.676 73.4667C282.599 74.9473 278.706 77.4651 276.913 77.5126Z" fill="#00A991" stroke="#263238" stroke-linecap="round" stroke-linejoin="round"/>
<path d="M267.75 73.6884C267.75 73.6884 265.065 70.3314 261.542 70.6402" stroke="#263238" stroke-linecap="round" stroke-linejoin="round"/>
<path d="M274.667 74.3534C275.523 73.4264 276.588 72.7296 277.766 72.3238C278.945 71.918 280.203 71.8157 281.429 72.0257" stroke="#263238" stroke-linecap="round" stroke-linejoin="round"/>
<path d="M259.995 68.9617C259.995 68.9617 263.842 67.3782 267.25 68.1224" stroke="#263238" stroke-linecap="round" stroke-linejoin="round"/>
<path d="M274.982 68.9854C275.995 68.4525 277.143 68.2533 278.271 68.4147C279.398 68.5762 280.449 69.0905 281.283 69.888" stroke="#263238" stroke-linecap="round" stroke-linejoin="round"/>
<path d="M265.165 72.5879C265.183 72.7096 265.177 72.8336 265.147 72.9528C265.118 73.0721 265.066 73.1842 264.995 73.2828C264.923 73.3814 264.834 73.4644 264.731 73.5273C264.628 73.5901 264.514 73.6314 264.396 73.6488C264.155 73.621 263.934 73.4999 263.777 73.3102C263.62 73.1206 263.539 72.8765 263.55 72.6275C263.531 72.5057 263.537 72.3813 263.566 72.2616C263.594 72.1419 263.646 72.0294 263.718 71.9306C263.789 71.8318 263.88 71.7487 263.983 71.6862C264.086 71.6236 264.2 71.583 264.319 71.5665C264.559 71.5962 264.779 71.7177 264.936 71.907C265.093 72.0963 265.175 72.3394 265.165 72.5879Z" fill="#263238"/>
<path d="M279.098 73.6171C279.119 73.7392 279.115 73.8643 279.087 73.9849C279.059 74.1054 279.008 74.2189 278.936 74.3182C278.863 74.4175 278.773 74.5007 278.668 74.5625C278.564 74.6244 278.448 74.6637 278.329 74.678C278.089 74.652 277.867 74.5326 277.71 74.3442C277.553 74.1559 277.471 73.9127 277.482 73.6646C277.462 73.5425 277.465 73.4173 277.493 73.2968C277.521 73.1762 277.573 73.0628 277.645 72.9635C277.717 72.8642 277.808 72.781 277.912 72.7191C278.017 72.6573 278.132 72.618 278.252 72.6036C278.492 72.6296 278.713 72.749 278.87 72.9374C279.028 73.1258 279.109 73.369 279.098 73.6171Z" fill="#263238"/>
<path d="M299.816 105.311C299.816 105.311 304.302 107.449 305.971 110.853C307.641 114.258 320.989 151.145 320.927 153.932C320.866 156.719 316.45 159.934 312.311 160.369C308.171 160.805 302.14 153.085 301.24 151.802C300.34 150.52 300.178 135.508 300.178 135.508L299.816 105.311Z" fill="#FCFCFC" fill-opacity="0.988235" stroke="#263238" stroke-linecap="round" stroke-linejoin="round"/>
<path d="M278.675 95.4615L280.86 169.205L281.629 215.72C285.818 216.781 290.11 217.352 294.423 217.423C298.021 217.5 301.598 216.844 304.948 215.491C304.948 215.491 303.64 186.552 303.409 181.834C303.178 177.115 301.655 168.113 301.655 168.113L299.839 105.311C299.839 105.311 282.937 97.1717 278.675 95.4615Z" fill="#FCFCFC" fill-opacity="0.988235" stroke="#263238" stroke-linecap="round" stroke-linejoin="round"/>
<path d="M283.476 99.5311L291.223 125.54L284.16 127.512L291.03 130.94L282.46 158.96" fill="#FCFCFC" fill-opacity="0.988235"/>
<path d="M283.476 99.5311L291.223 125.54L284.16 127.512L291.03 130.94L282.46 158.96" stroke="#263238" stroke-linecap="round" stroke-linejoin="round"/>
<path d="M288.877 123.323L279.268 170.702C279.268 170.702 285.838 172.839 290.638 173.077C295.439 173.314 305.441 173.283 305.441 173.283L315.442 129.119C315.442 129.119 295.755 127.179 288.877 123.323Z" fill="#263238" stroke="#263238" stroke-linecap="round" stroke-linejoin="round"/>
<path d="M292.223 167.479L292.539 152.673L300.163 154.328C300.163 154.328 295.124 165.753 292.223 167.479Z" fill="#FCFCFC" fill-opacity="0.988235" stroke="#263238" stroke-linecap="round" stroke-linejoin="round"/>
<path d="M298.062 147.321C298.062 147.321 296.031 144.328 295.377 143.679C294.723 143.03 291.492 141.114 290.869 141.114C290.246 141.114 286.899 140.9 286.253 140.9C285.607 140.9 284.876 142.404 285.538 143.046C286.199 143.687 288.5 143.901 288.5 143.901L290.077 146.276L282.96 145.635C282.96 145.635 281.775 146.925 282.045 148.01C282.246 148.745 282.503 149.462 282.814 150.156C282.787 151.73 282.867 153.304 283.053 154.866C283.329 156.157 284.591 156.585 286.322 157.653C288.053 158.722 293.846 158.081 293.846 158.081H296.524L298.062 147.321Z" fill="#FCFCFC" fill-opacity="0.988235" stroke="#263238" stroke-linecap="round" stroke-linejoin="round"/>
<path d="M315.411 148.81L296.947 146.252C296.947 146.252 295.508 158.477 294.054 162.547C292.6 166.616 292.223 167.479 292.223 167.479C292.223 167.479 311.572 167.036 316.134 166.608C320.697 166.181 323.258 163.386 323.058 159.53C322.858 155.674 320.573 151.81 320.573 151.81" fill="#FCFCFC" fill-opacity="0.988235"/>
<path d="M315.411 148.81L296.947 146.252C296.947 146.252 295.508 158.477 294.054 162.547C292.6 166.616 292.223 167.479 292.223 167.479C292.223 167.479 311.572 167.036 316.134 166.608C320.697 166.181 323.258 163.386 323.058 159.53C322.858 155.674 320.573 151.81 320.573 151.81" stroke="#263238" stroke-linecap="round" stroke-linejoin="round"/>
<path d="M238.415 162.159C238.415 162.159 242.724 164.938 243.801 165.801C244.878 166.664 244.97 172.23 245.655 173.298C246.339 174.367 245.532 175.017 244.285 175.017C243.039 175.017 241.154 170.947 241.154 170.947L241.077 169.443L232.276 172.451L229.968 168.382C229.968 168.382 232.584 162.159 238.415 162.159Z" fill="#FCFCFC" fill-opacity="0.988235" stroke="#263238" stroke-linecap="round" stroke-linejoin="round"/>
<path d="M174.298 330.374C196.533 330.374 214.558 326.191 214.558 321.031C214.558 315.871 196.533 311.688 174.298 311.688C152.063 311.688 134.039 315.871 134.039 321.031C134.039 326.191 152.063 330.374 174.298 330.374Z" fill="#263238" stroke="#263238" stroke-linecap="round" stroke-linejoin="round"/>
<path d="M205.741 99.0164C205.741 99.0164 211.019 126.276 211.958 131.32C212.896 136.363 214.62 148.35 216.574 153.608C218.528 158.865 217.889 165.595 216.912 167.487C215.932 169.131 214.807 170.679 213.55 172.111L206.995 163.314C206.995 163.314 203.095 120.212 202.949 114.107C202.802 108.003 205.741 99.0164 205.741 99.0164Z" fill="#FCFCFC" fill-opacity="0.988235" stroke="#263238" stroke-linecap="round" stroke-linejoin="round"/>
<path d="M209.218 162.238C209.218 162.238 213.373 164.906 214.104 166.038C214.835 167.17 215.358 168.611 214.788 169.838C214.219 171.066 211.119 174.771 210.334 175.492C209.549 176.212 208.888 173.338 208.795 170.868C208.703 168.397 209.218 162.238 209.218 162.238Z" fill="#FCFCFC" fill-opacity="0.988235" stroke="#263238" stroke-linecap="round" stroke-linejoin="round"/>
<path d="M186.877 311.72C186.877 311.72 199.902 318.236 200.725 319.503C201.548 320.77 198.579 322.456 190.816 322.456C183.053 322.456 182.823 321.403 179.737 320.564C176.652 319.725 170.505 320.35 169.674 318.458C168.844 316.566 170.29 310.05 170.29 310.05L186.877 311.72Z" fill="#FCFCFC" fill-opacity="0.988235" stroke="#263238" stroke-linecap="round" stroke-linejoin="round"/>
<path d="M169.582 315.085C169.582 315.085 180.353 321.815 179.407 324.127C178.46 326.439 170.675 326.439 166.574 325.805C162.473 325.172 153.757 319.471 153.295 317.397C152.833 315.323 153.987 312.14 160.304 311.514C166.62 310.889 169.582 315.085 169.582 315.085Z" fill="#FCFCFC" fill-opacity="0.988235" stroke="#263238" stroke-linecap="round" stroke-linejoin="round"/>
<path d="M202.279 205.119C202.279 205.119 196.125 253.899 195.055 261.048C193.986 268.198 190.593 279.551 188.762 288.173C187.724 293.244 186.954 298.369 186.454 303.526C186.267 304.992 186.301 306.48 186.554 307.936C186.816 310.042 186.854 311.72 186.854 311.72C184.114 312.428 181.326 312.92 178.514 313.193C175.045 313.407 170.344 313.407 170.344 313.407L168.805 299.741C168.805 299.741 169.951 279.551 170.629 273.669C171.306 267.786 172.029 221.524 171.998 220.257C171.967 218.99 171.698 207.85 171.698 207.85L192.663 205.539C192.663 205.539 195.524 197.13 199.825 197.55C204.126 197.969 202.279 205.119 202.279 205.119Z" fill="#FCFCFC" fill-opacity="0.988235" stroke="#263238" stroke-linecap="round" stroke-linejoin="round"/>
<path d="M199.856 197.55C195.555 197.13 192.693 205.539 192.693 205.539L171.706 207.85C171.706 207.85 171.775 210.812 171.844 213.852C174.083 214.058 176.152 214.177 177.922 214.177C184.646 214.165 191.365 213.777 198.048 213.013L198.948 203.322L200.356 213.195L201.325 212.87C201.925 208.167 202.31 205.103 202.31 205.103C202.31 205.103 204.157 197.969 199.856 197.55Z" fill="#263238" stroke="#263238" stroke-linecap="round" stroke-linejoin="round"/>
<path d="M149.81 206.592C149.81 206.592 149.81 206.892 149.856 207.439C150.141 213.187 151.833 246.496 152.349 252.64C152.926 259.37 150.041 266.725 150.187 272.821C150.333 278.918 151.726 311.934 151.726 311.934L153.264 317.397C153.264 317.397 156.88 314.879 160.35 314.879C163.82 314.879 169.582 315.085 169.582 315.085C169.582 315.085 169.882 310.667 169.851 309.202C169.821 307.738 169.69 302.473 169.69 302.473C169.69 302.473 175.56 274.927 175.914 272.616C176.268 270.304 180.822 230.352 180.792 229.069C180.761 227.787 181.753 209.933 181.753 209.933L149.81 206.592Z" fill="#FCFCFC" fill-opacity="0.988235" stroke="#263238" stroke-linecap="round" stroke-linejoin="round"/>
<path d="M181.538 214.137C181.669 211.698 181.761 209.956 181.761 209.956L149.81 206.592C149.81 206.592 149.81 206.892 149.856 207.439C149.856 208.135 149.941 209.236 150.018 210.606C157.488 211.983 170.452 214.153 177.922 214.153C179.153 214.177 180.353 214.161 181.538 214.137Z" fill="#263238" stroke="#263238" stroke-linecap="round" stroke-linejoin="round"/>
<path d="M173.352 77.4887C173.352 77.4887 169.975 78.0746 168.69 79.6265C167.402 81.1359 166.244 82.7571 165.228 84.472C165.051 85.0579 145.186 97.4646 145.186 97.4646L146.617 156.624C146.617 156.624 147.21 165.737 146.156 168.841C144.375 174.943 143.511 181.29 143.594 187.661C143.778 195.222 144.255 207.455 144.255 207.455C144.255 207.455 166.99 212.11 177.922 212.11C184.646 212.094 191.365 211.7 198.048 210.93L198.948 201.231L200.318 211.128L204.987 209.545L208.834 180.25C208.834 180.25 211.511 174.043 211.481 172.681C211.45 171.319 212.158 169.577 211.381 168.413C210.604 167.249 209.219 164.922 209.219 164.922C209.219 164.922 205.741 100.766 205.741 99.0164C205.741 97.2666 195.455 86.9976 194.694 86.6097C193.932 86.2217 189.239 79.0406 183.153 77.1087C177.068 75.1768 173.352 77.4887 173.352 77.4887Z" fill="#FCFCFC" fill-opacity="0.988235" stroke="#263238" stroke-linecap="round" stroke-linejoin="round"/>
<path d="M167.159 86.4117L164.881 107.718L174.237 112.191L171.898 119.42L195.294 161.731" stroke="#263238" stroke-linecap="round" stroke-linejoin="round"/>
<path d="M193.293 88.8029L200.309 105.659L197.301 109.784L202.317 117.005L200.309 163.449" stroke="#263238" stroke-linecap="round" stroke-linejoin="round"/>
<path d="M172.482 80.4024C172.653 84.5589 173.386 88.6707 174.66 92.6191C176.683 98.4384 190.093 138.588 190.093 138.588L198.763 170.005C198.763 170.005 197.617 138.002 197.586 136.648C197.555 135.294 191.016 90.8693 191.016 90.8693C191.016 90.8693 189.9 83.696 188.139 80.9803C186.377 78.2646 174.567 73.2212 172.482 80.4024Z" fill="#00A991" stroke="#263238" stroke-linecap="round" stroke-linejoin="round"/>
<path d="M171.652 77.2987C171.652 77.2987 166.197 77.8767 167.159 86.4117C168.12 94.9468 169.39 100.766 169.39 100.766" stroke="#263238" stroke-width="2" stroke-linecap="round" stroke-linejoin="round"/>
<path d="M168.72 112.017C168.72 112.017 171.028 121.906 172.605 124.622C174.183 127.337 178.952 130.053 182.345 130.053" stroke="#263238" stroke-linecap="round" stroke-linejoin="round"/>
<path d="M176.014 109.689C176.014 109.689 178.553 121.13 178.976 123.268C179.399 125.405 177.999 129.467 175.645 133.56" stroke="#263238" stroke-linecap="round" stroke-linejoin="round"/>
<path d="M174.967 134.914C174.725 134.777 174.545 134.547 174.468 134.274C174.39 134.001 174.42 133.708 174.552 133.458L174.821 132.951C174.887 132.83 174.976 132.723 175.083 132.638C175.19 132.553 175.312 132.49 175.442 132.454C175.572 132.418 175.709 132.409 175.842 132.428C175.976 132.446 176.105 132.492 176.221 132.563C176.463 132.7 176.643 132.93 176.722 133.202C176.802 133.475 176.774 133.768 176.644 134.02L176.375 134.518C176.309 134.64 176.22 134.748 176.113 134.834C176.006 134.92 175.883 134.983 175.752 135.02C175.621 135.057 175.484 135.067 175.349 135.048C175.215 135.03 175.085 134.985 174.967 134.914Z" fill="#263238"/>
<path d="M183.607 130.267C183.607 130.406 183.58 130.544 183.527 130.673C183.474 130.801 183.396 130.918 183.298 131.014C183.201 131.111 183.085 131.187 182.958 131.237C182.832 131.286 182.696 131.309 182.561 131.304H181.999C181.722 131.298 181.459 131.18 181.266 130.975C181.073 130.771 180.966 130.496 180.968 130.211C180.967 130.072 180.993 129.934 181.046 129.806C181.098 129.677 181.175 129.561 181.272 129.464C181.369 129.367 181.484 129.291 181.611 129.241C181.737 129.192 181.872 129.169 182.007 129.174H182.569C182.845 129.182 183.108 129.301 183.302 129.505C183.496 129.708 183.605 129.982 183.607 130.267Z" fill="#263238"/>
<path d="M168.736 112.793L167.443 104.361C167.299 103.491 167.482 102.598 167.955 101.863C168.428 101.127 169.156 100.605 169.99 100.402C170.888 100.192 171.831 100.348 172.62 100.838C173.409 101.328 173.983 102.114 174.221 103.031L176.429 111.423" stroke="#263238" stroke-width="2" stroke-linecap="round" stroke-linejoin="round"/>
<path d="M199.147 118.492C200.999 118.301 202.327 116.365 202.113 114.168C201.899 111.97 200.224 110.344 198.372 110.535C196.521 110.726 195.193 112.662 195.407 114.859C195.621 117.056 197.295 118.682 199.147 118.492Z" fill="#FCFCFC" fill-opacity="0.988235" stroke="#263238" stroke-linecap="round" stroke-linejoin="round"/>
<path d="M189.685 80.8536C189.685 80.8536 197.094 91.5819 199.456 113.45" stroke="#263238" stroke-width="2" stroke-linecap="round" stroke-linejoin="round"/>
<path d="M199.652 115.982C200.664 115.885 201.394 114.822 201.285 113.607C201.175 112.392 200.266 111.486 199.255 111.583C198.244 111.679 197.513 112.743 197.623 113.957C197.733 115.172 198.641 116.078 199.652 115.982Z" fill="#FCFCFC" fill-opacity="0.988235" stroke="#263238" stroke-linecap="round" stroke-linejoin="round"/>
<path d="M210.48 163.908C210.026 165.357 209.653 166.833 209.365 168.326C209.365 168.96 209.218 170.852 207.78 170.424C206.341 169.997 206.772 162.436 206.957 161.596C207.141 160.757 210.642 163.473 210.642 163.473" fill="#FCFCFC" fill-opacity="0.988235"/>
<path d="M210.48 163.908C210.026 165.357 209.653 166.833 209.365 168.326C209.365 168.96 209.218 170.852 207.78 170.424C206.341 169.997 206.772 162.436 206.957 161.596C207.141 160.757 210.642 163.473 210.642 163.473" stroke="#263238" stroke-linecap="round" stroke-linejoin="round"/>
<path d="M163.781 157.21C165.061 157.935 166.491 158.334 167.951 158.374C170.213 158.374 174.344 157.582 175.86 157.986C177.375 158.39 181.245 163.409 181.245 163.409C181.245 163.409 182.399 164.573 181.853 165.159C181.307 165.745 180.191 166.743 179.422 166.125C178.652 165.508 174.806 162.246 174.806 162.246L165.104 166.323L161.119 164.185L163.781 157.21Z" fill="#FCFCFC" fill-opacity="0.988235" stroke="#263238" stroke-linecap="round" stroke-linejoin="round"/>
<path d="M148.925 96.1107C148.925 96.1107 142.532 96.9025 141.447 98.6285C140.362 100.355 122.844 139.942 122.883 141.692C122.921 143.442 157.911 171.778 157.911 171.778L165.466 156.98L146.563 138.944L154.764 119.357" fill="#FCFCFC" fill-opacity="0.988235"/>
<path d="M148.925 96.1107C148.925 96.1107 142.532 96.9025 141.447 98.6285C140.362 100.355 122.844 139.942 122.883 141.692C122.921 143.442 157.911 171.778 157.911 171.778L165.466 156.98L146.563 138.944L154.764 119.357" stroke="#263238" stroke-linecap="round" stroke-linejoin="round"/>
<path d="M160.719 178.928L179.199 179.316L179.107 167.487" stroke="#263238" stroke-linecap="round" stroke-linejoin="round"/>
<path d="M165.128 166.323L160.242 168.2" stroke="#263238" stroke-linecap="round" stroke-linejoin="round"/>
<path d="M170.698 68.9536C170.698 68.9536 172.798 85.8337 174.183 88.3515C175.568 90.8693 185.415 100.956 185.415 100.956C185.415 100.956 188.493 89.3254 188.839 86.6097C189.185 83.8939 189.454 73.0311 189.454 73.0311L170.659 67.5997L170.698 68.9536Z" fill="#FCFCFC" fill-opacity="0.988235" stroke="#263238" stroke-linecap="round" stroke-linejoin="round"/>
<path d="M170.698 68.9536C170.698 68.9536 170.944 70.933 171.321 73.6329C172.794 75.0445 174.477 76.2046 176.306 77.0691C178.73 78.1696 185.192 78.7872 189.277 78.2963C189.385 75.4539 189.454 73.0311 189.454 73.0311L170.659 67.5997L170.698 68.9536Z" fill="#263238" stroke="#263238" stroke-linecap="round" stroke-linejoin="round"/>
<path d="M165.25 54.2191C165.25 54.2191 162.735 51.5034 161.488 54.5992C160.242 57.6949 163.027 62.3583 164.512 62.5562C165.393 62.6745 166.288 62.6071 167.143 62.3583C167.143 62.3583 168.197 66.8238 169.166 68.1777C171.074 70.6603 173.519 72.6503 176.306 73.9891C179.737 75.5726 191.223 76.1348 192.677 73.9891C194.132 71.8435 194.047 60.4106 194.024 59.4447C194.001 58.4787 193.839 44.6548 193.839 44.6548C193.839 44.6548 194.87 39.8568 193.47 36.5552C192.07 33.2536 178.014 28.6377 174.483 30.5458C170.951 32.4539 166.881 35.7792 166.604 40.0468C166.327 44.3143 166.497 51.2975 166.497 51.2975L165.25 54.2191Z" fill="#FCFCFC" fill-opacity="0.988235" stroke="#263238" stroke-linecap="round" stroke-linejoin="round"/>
<path d="M186.023 48.2019C186.023 48.2019 188.369 59.2864 187.831 60.6165C187.292 61.9467 185.607 61.9704 183.499 60.8066C181.391 59.6427 182.492 58.0909 182.492 58.0909" stroke="#263238" stroke-linecap="round" stroke-linejoin="round"/>
<path d="M177.853 61.0045C177.853 61.0045 178.868 63.9102 180.753 64.1082C182.638 64.3061 187.369 64.6862 187.369 64.6862" stroke="#263238" stroke-linecap="round" stroke-linejoin="round"/>
<path d="M171.121 48.5898L171.421 53.2453C171.421 53.2453 173.144 54.2191 177.098 54.2191C181.053 54.2191 182.353 53.2453 182.353 53.2453L182.245 48.5898C182.245 48.5898 176.506 45.0982 171.121 48.5898Z" stroke="#263238" stroke-linecap="round" stroke-linejoin="round"/>
<path d="M186.038 48.5898L187.469 53.4433C187.469 53.4433 188.054 54.235 192.016 54.235C195.978 54.235 197.278 53.2612 197.278 53.2612L197.163 48.6057C197.163 48.6057 191.416 45.0982 186.038 48.5898Z" stroke="#263238" stroke-linecap="round" stroke-linejoin="round"/>
<path d="M182.269 48.5898H186.038" stroke="#263238" stroke-linecap="round" stroke-linejoin="round"/>
<path d="M171.144 48.5898L163.712 53.0553" stroke="#263238" stroke-linecap="round" stroke-linejoin="round"/>
<path d="M172.975 46.262C172.975 46.262 174.99 43.9343 179.56 45.8741" stroke="#263238" stroke-linecap="round" stroke-linejoin="round"/>
<path d="M186.73 46.2621C187.409 45.7017 188.228 45.3501 189.092 45.2479C189.956 45.1456 190.831 45.2968 191.616 45.6841" stroke="#263238" stroke-linecap="round" stroke-linejoin="round"/>
<path d="M177.791 50.7275C177.791 51.5826 177.491 52.311 177.075 52.311C176.66 52.311 176.306 51.6143 176.306 50.7275C176.306 49.8408 176.606 49.144 177.029 49.144C177.452 49.144 177.776 49.8645 177.791 50.7275Z" fill="#263238"/>
<path d="M189.854 50.5297C189.854 51.3848 189.554 52.1132 189.139 52.1132C188.724 52.1132 188.37 51.4164 188.37 50.5297C188.37 49.6429 188.67 48.9462 189.085 48.9462C189.501 48.9462 189.831 49.6746 189.854 50.5297Z" fill="#263238"/>
<path d="M176.945 32.5886C176.945 32.5886 178.76 36.7136 176.506 38.2179C175.811 38.6321 175.021 38.8503 174.217 38.8503C173.414 38.8503 172.624 38.6321 171.929 38.2179C172.528 39.0698 172.863 40.0885 172.889 41.1399C172.915 42.1913 172.631 43.2262 172.075 44.1085C170.97 46.0033 169.681 47.778 168.228 49.4053C168.228 49.4053 168.636 54.4171 167.789 55.003C166.943 55.5889 164.635 54.7101 164.597 53.2374C164.558 51.7647 163.635 48.8194 163.597 47.3468C163.558 45.8741 162.896 42.0421 162.896 42.0421C162.896 42.0421 157.111 39.3897 160.181 36.1514C163.25 32.9132 169.767 30.2608 169.767 30.2608C169.767 30.2608 169.913 24.3702 173.875 22.6046C177.837 20.839 186.361 18.1866 186.431 21.1319C186.539 22.6477 186.275 24.1672 185.661 25.5499C185.661 25.5499 192.809 25.2569 197.794 30.3004C202.779 35.3438 202.61 40.0231 200.033 40.0231C197.455 40.0231 196.617 40.609 196.617 40.609C196.617 40.609 201.548 43.5543 199.009 45.027C196.471 46.4996 193.855 44.734 193.855 44.734C193.855 44.734 194.947 42.6755 191.731 39.9835C188.516 37.2916 176.945 32.5886 176.945 32.5886Z" fill="#263238" stroke="#263238" stroke-linecap="round" stroke-linejoin="round"/>
<path d="M79.3228 330.374C101.558 330.374 119.583 326.191 119.583 321.031C119.583 315.871 101.558 311.688 79.3228 311.688C57.0879 311.688 39.063 315.871 39.063 321.031C39.063 326.191 57.0879 330.374 79.3228 330.374Z" fill="#263238" stroke="#263238" stroke-linecap="round" stroke-linejoin="round"/>
<path d="M105.834 127.789V135.358L116.528 140.401C116.528 140.401 117.644 135.358 116.751 126.411L105.834 127.789Z" fill="#999999" stroke="#263238" stroke-linecap="round" stroke-linejoin="round"/>
<path d="M52.7575 309.424C50.3098 311.586 47.9972 313.906 45.8334 316.368C42.756 319.938 42.156 323.493 45.0179 325.196C47.8799 326.898 52.3728 326.455 57.2736 323.303C62.1743 320.152 61.9743 318.885 64.8362 317.84C67.6982 316.795 69.5369 314.673 69.5369 311.316C69.5369 307.959 59.1123 307.532 56.8658 307.358C54.6193 307.183 52.7575 309.424 52.7575 309.424Z" fill="#FCFCFC" fill-opacity="0.988235" stroke="#263238" stroke-linecap="round" stroke-linejoin="round"/>
<path d="M69.514 311.316C69.514 311.316 64.8979 313.422 62.6591 315.338C60.4203 317.254 55.9581 324.151 50.742 324.151C48.0857 324.153 45.4734 323.452 43.1562 322.116C43.1596 322.753 43.3329 323.377 43.6571 323.92C43.9813 324.463 44.444 324.905 44.995 325.196C47.8569 326.874 52.3499 326.455 57.2506 323.303C62.1514 320.152 61.9513 318.885 64.8133 317.84C67.6752 316.795 69.514 314.681 69.514 311.316Z" stroke="#263238" stroke-linecap="round" stroke-linejoin="round"/>
<path d="M104.604 309.424C107.051 311.586 109.364 313.906 111.528 316.368C114.605 319.938 115.205 323.493 112.343 325.196C109.481 326.898 104.988 326.455 100.088 323.303C95.1868 320.152 95.3869 318.885 92.5249 317.84C89.663 316.795 87.8242 314.673 87.8242 311.316C87.8242 307.959 98.2488 307.532 100.495 307.358C102.742 307.183 104.604 309.424 104.604 309.424Z" fill="#FCFCFC" fill-opacity="0.988235" stroke="#263238" stroke-linecap="round" stroke-linejoin="round"/>
<path d="M87.8472 311.316C87.8472 311.316 92.4632 313.422 94.702 315.338C96.9408 317.254 101.403 324.151 106.619 324.151C109.275 324.153 111.888 323.452 114.205 322.116C114.202 322.753 114.028 323.377 113.704 323.92C113.38 324.463 112.917 324.905 112.366 325.196C109.504 326.874 105.011 326.455 100.111 323.303C95.2098 320.152 95.4098 318.885 92.5479 317.84C89.6859 316.795 87.8472 314.681 87.8472 311.316Z" stroke="#263238" stroke-linecap="round" stroke-linejoin="round"/>
<path d="M46.8335 189.996C46.8335 189.996 48.0568 237.303 48.6722 244.247C49.2877 251.191 51.1034 266.954 51.1034 267.825C51.1034 268.696 52.1189 303.573 52.1189 303.573L50.2802 306.74L50.8956 311.158L59.0661 312.836C63.1513 313.676 68.4674 314.942 69.283 314.103C70.0985 313.264 70.3062 311.578 70.7139 309.266C71.1217 306.954 71.9372 302.742 71.1217 299.385C70.3062 296.028 72.1449 260.272 72.3526 259.433C72.5604 258.594 77.261 224.057 77.261 224.057C77.261 224.057 80.3384 252.45 82.5695 261.064C84.8006 269.678 84.0005 282.512 84.816 287.556C85.6315 292.599 87.2702 309.638 87.4779 310.897C87.6857 312.156 88.0857 314.064 88.0857 314.064C88.0857 314.064 98.3026 312.591 100.141 311.744C102.006 311.037 103.919 310.476 105.865 310.065C105.865 310.065 106.473 298.078 105.658 293.241C105.063 289.841 104.721 286.401 104.634 282.948C104.634 281.475 105.658 234.802 105.658 234.802L104.634 189.593C104.634 189.593 77.0533 192.538 66.4287 190.432C55.804 188.326 47.0412 187.067 47.0412 187.067L46.8335 189.996Z" fill="#00A991" stroke="#263238" stroke-linecap="round" stroke-linejoin="round"/>
<path d="M66.4441 190.416C55.8194 188.318 47.0412 187.067 47.0412 187.067L46.8335 190.004C46.8335 190.004 46.9027 192.72 47.0181 196.932C51.8881 198.333 61.7818 200.796 71.3448 200.796C81.454 200.796 97.5563 197.629 104.804 196.117L104.65 189.585C104.65 189.585 77.0687 192.522 66.4441 190.416Z" fill="#263238" stroke="#263238" stroke-linecap="round" stroke-linejoin="round"/>
<path d="M101.934 296.954C102.065 298.403 102.149 299.234 102.149 299.234" stroke="#263238" stroke-linecap="round" stroke-linejoin="round"/>
<path d="M98.8027 201.097C98.8027 201.097 99.5721 241.729 99.5721 257.066C99.5721 267.675 100.818 283.779 101.588 292.694" stroke="#263238" stroke-linecap="round" stroke-linejoin="round"/>
<path d="M57.4507 198.801L59.3125 242.885" stroke="#263238" stroke-linecap="round" stroke-linejoin="round"/>
<path d="M58.9355 246.329V253.614" stroke="#263238" stroke-linecap="round" stroke-linejoin="round"/>
<path d="M68.6212 78.9456C67.6153 78.9511 66.6251 79.2032 65.7327 79.6809C64.8403 80.1587 64.0714 80.8484 63.4896 81.6929C62.2173 83.4206 60.8015 85.0313 59.2582 86.5068L40.9863 96.6016L42.7712 168.382L43.4405 192.926C43.4405 192.926 57.4734 197.74 70.8446 197.74C84.2158 197.74 108.058 192.198 108.058 192.198C108.058 192.198 106.057 96.5699 106.727 96.5699C107.396 96.5699 93.5787 84.2186 87.3393 80.9724C81.0999 77.7263 68.6212 78.9456 68.6212 78.9456Z" fill="#00A991" stroke="#263238" stroke-linecap="round" stroke-linejoin="round"/>
<path d="M63.4131 87.6232C63.4131 87.6232 70.4911 101.043 73.4761 107.179C76.4612 113.315 82.0312 122.143 82.0312 122.143L91.348 96.4591" stroke="#263238" stroke-linecap="round" stroke-linejoin="round"/>
<path d="M68.6446 172.744L68.283 162.032L47.2568 160.773C47.2568 160.773 47.4646 176.545 47.8723 177.4" stroke="#263238" stroke-linecap="round" stroke-linejoin="round"/>
<path d="M68.8984 180.329L68.7983 177.321" stroke="#263238" stroke-linecap="round" stroke-linejoin="round"/>
<path d="M93.825 178.643L93.2095 160.987C93.2095 160.987 100.564 161.612 106.696 157.408" stroke="#263238" stroke-linecap="round" stroke-linejoin="round"/>
<path d="M62.2971 118.913C62.9434 121.011 64.9129 122.246 66.6901 121.66C68.4673 121.075 69.3674 118.897 68.7135 116.799C68.0595 114.701 66.0977 113.466 64.3205 114.052C62.5433 114.638 61.6432 116.815 62.2971 118.913Z" stroke="#263238" stroke-linecap="round" stroke-linejoin="round"/>
<path d="M62.5051 82.1759C62.5051 82.1759 60.1432 91.5186 65.5132 116.878" stroke="#263238" stroke-width="2" stroke-linecap="round" stroke-linejoin="round"/>
<path d="M67.1674 117.749C67.0091 118.078 66.7625 118.353 66.457 118.541C66.1514 118.73 65.7996 118.824 65.4435 118.813C65.0873 118.802 64.7418 118.686 64.4478 118.479C64.1537 118.272 63.9237 117.982 63.7848 117.644C63.646 117.307 63.6043 116.935 63.6645 116.574C63.7248 116.212 63.8846 115.876 64.1249 115.606C64.3652 115.335 64.676 115.141 65.0203 115.046C65.3646 114.952 65.7279 114.961 66.0673 115.073C66.556 115.28 66.9456 115.678 67.1516 116.179C67.3576 116.68 67.3632 117.244 67.1674 117.749Z" stroke="#263238" stroke-linecap="round" stroke-linejoin="round"/>
<path d="M105.835 95.2239C105.835 95.2239 109.174 97.7496 109.397 98.668C109.62 99.5864 120.983 127.559 120.983 127.559L104.496 130.061L104.719 113.545" fill="#00A991"/>
<path d="M105.835 95.2239C105.835 95.2239 109.174 97.7496 109.397 98.668C109.62 99.5864 120.983 127.559 120.983 127.559L104.496 130.061L104.719 113.545" stroke="#263238" stroke-linecap="round" stroke-linejoin="round"/>
<path d="M43.2176 95.6831C43.2176 95.6831 39.4247 96.1423 38.5323 99.1193C37.6399 102.096 31.1851 132.373 31.1851 132.373L54.8039 130.061L52.5728 107.354" fill="#00A991"/>
<path d="M43.2176 95.6831C43.2176 95.6831 39.4247 96.1423 38.5323 99.1193C37.6399 102.096 31.1851 132.373 31.1851 132.373L54.8039 130.061L52.5728 107.354" stroke="#263238" stroke-linecap="round" stroke-linejoin="round"/>
<path d="M88.8398 80.7507C88.8398 80.7507 94.6946 84.1869 95.2716 92.7378C95.8486 101.289 95.2716 103.458 95.2716 103.458" stroke="#263238" stroke-width="2" stroke-linecap="round" stroke-linejoin="round"/>
<path d="M97.9181 114.408C97.9181 114.408 97.3949 124.519 96.3255 127.44C95.2561 130.362 91.0247 133.822 87.6704 134.376" stroke="#263238" stroke-linecap="round" stroke-linejoin="round"/>
<path d="M90.3399 113.315C90.3399 113.315 89.8706 124.978 89.8245 127.147C89.7783 129.317 91.9017 133.093 94.9483 136.712" stroke="#263238" stroke-linecap="round" stroke-linejoin="round"/>
<path d="M95.8219 137.982L95.9115 137.907C96.3306 137.557 96.3949 136.924 96.055 136.493L95.6237 135.945C95.2838 135.514 94.6685 135.448 94.2494 135.798L94.1598 135.873C93.7406 136.222 93.6764 136.856 94.0163 137.287L94.4476 137.834C94.7875 138.266 95.4028 138.332 95.8219 137.982Z" fill="#263238"/>
<path d="M86.4655 134.746L86.487 134.862C86.5875 135.408 87.0987 135.766 87.6289 135.663L88.3017 135.532C88.8319 135.428 89.1802 134.902 89.0797 134.357L89.0583 134.24C88.9578 133.694 88.4466 133.336 87.9164 133.439L87.2436 133.57C86.7134 133.674 86.3651 134.2 86.4655 134.746Z" fill="#263238"/>
<path d="M98.0335 115.176L97.8104 106.681C97.7896 105.794 97.4485 104.948 96.8539 104.307C96.2592 103.666 95.4537 103.276 94.5945 103.213C93.682 103.143 92.7796 103.447 92.0847 104.06C91.3899 104.673 90.959 105.544 90.8863 106.483L90.1938 115.097" stroke="#263238" stroke-width="2" stroke-linecap="round" stroke-linejoin="round"/>
<path d="M117.198 134.669L111.881 133.521L93.1633 130.314L66.9133 125.168L60.6893 122.341C60.6893 122.341 54.8038 114.424 54.2961 113.632C53.7883 112.84 47.1335 115.604 47.372 116.657C47.6105 117.71 48.3952 128.232 48.9107 128.897C49.4261 129.562 55.1731 129.554 55.1731 129.554C55.1731 129.554 82.5925 143.172 83.7312 143.671C99.5566 150.536 107.188 150.472 109.889 150.924C112.589 151.375 114.351 150.251 115.905 148.414C117.459 146.577 117.198 134.669 117.198 134.669Z" fill="#999999" stroke="#263238" stroke-linecap="round" stroke-linejoin="round"/>
<path d="M53.496 113.521C53.496 113.521 50.3032 113.656 45.5717 116.942C43.8099 118.169 42.8867 119.048 42.8867 119.578C42.9875 120.209 43.1606 120.826 43.4022 121.415C46.4698 119.895 49.6823 118.706 52.9882 117.868" fill="#999999"/>
<path d="M53.496 113.521C53.496 113.521 50.3032 113.656 45.5717 116.942C43.8099 118.169 42.8867 119.048 42.8867 119.578C42.9875 120.209 43.1606 120.826 43.4022 121.415C46.4698 119.895 49.6823 118.706 52.9882 117.868" stroke="#263238" stroke-linecap="round" stroke-linejoin="round"/>
<path d="M54.7732 121.946C54.7732 121.946 46.0873 124.178 44.6794 124.447C43.2715 124.717 43.0176 123.26 43.0176 122.737C43.0176 122.215 43.4023 121.415 44.9332 120.631C46.4642 119.847 54.1654 117.733 54.1654 117.733" fill="#999999"/>
<path d="M54.7732 121.946C54.7732 121.946 46.0873 124.178 44.6794 124.447C43.2715 124.717 43.0176 123.26 43.0176 122.737C43.0176 122.215 43.4023 121.415 44.9332 120.631C46.4642 119.847 54.1654 117.733 54.1654 117.733" stroke="#263238" stroke-linecap="round" stroke-linejoin="round"/>
<path d="M55.6734 126.023C55.6734 126.023 45.5719 127.076 44.8026 126.419C44.5672 126.155 44.3886 125.843 44.2786 125.503C44.1685 125.164 44.1295 124.804 44.1641 124.447L53.2423 122.468" fill="#999999"/>
<path d="M55.6734 126.023C55.6734 126.023 45.5719 127.076 44.8026 126.419C44.5672 126.155 44.3886 125.843 44.2786 125.503C44.1685 125.164 44.1295 124.804 44.1641 124.447L53.2423 122.468" stroke="#263238" stroke-linecap="round" stroke-linejoin="round"/>
<path d="M52.8574 126.546L45.064 126.941C45.064 126.941 45.4409 128.129 45.8333 128.256C47.6796 128.725 49.5608 129.035 51.4572 129.182C52.7008 129.224 53.94 129.356 55.1654 129.578" fill="#999999"/>
<path d="M52.8574 126.546L45.064 126.941C45.064 126.941 45.4409 128.129 45.8333 128.256C47.6796 128.725 49.5608 129.035 51.4572 129.182C52.7008 129.224 53.94 129.356 55.1654 129.578" stroke="#263238" stroke-linecap="round" stroke-linejoin="round"/>
<path d="M36.0859 131.914C36.0859 131.914 39.648 147.749 40.5404 148.889C41.4329 150.029 48.7878 148.889 56.1427 146.593C63.4977 144.297 94.6946 130.544 94.6946 130.544L99.1491 131.454C99.1491 131.454 97.3642 125.722 94.2483 125.492C91.1325 125.263 54.8041 130.061 54.8041 130.061L36.0859 131.914Z" fill="#999999" stroke="#263238" stroke-linecap="round" stroke-linejoin="round"/>
<path d="M67.2598 68.8507C67.2598 68.8507 67.2598 69.1912 67.2598 69.7691C67.329 72.7857 67.6137 82.3659 68.3599 84.6778C69.2524 87.4252 81.2849 110.592 82.2081 108.755C83.1313 106.918 88.6706 81.9225 88.6706 81.9225V72.0652C88.6706 72.0652 85.7702 74.583 80.4232 74.583C75.0763 74.583 67.2598 68.8507 67.2598 68.8507Z" fill="#999999" stroke="#263238" stroke-linecap="round" stroke-linejoin="round"/>
<path d="M85.1085 82.4371C86.3562 81.653 87.5491 80.7799 88.6783 79.8244V72.0652C88.6783 72.0652 85.7779 74.583 80.4309 74.583C75.084 74.583 67.2598 68.8507 67.2598 68.8507C67.2598 68.8507 67.2598 69.1912 67.2598 69.7691C67.2598 70.8301 67.3367 72.7065 67.429 74.7967C67.64 75.1448 67.8767 75.4756 68.1368 75.7864C69.6755 77.6154 77.0458 82.2075 78.8307 82.6667C80.6156 83.126 83.1006 83.5773 85.1085 82.4371Z" fill="#263238" stroke="#263238" stroke-linecap="round" stroke-linejoin="round"/>
<path d="M94.0249 55.5494C94.0249 55.5494 97.587 53.4829 97.587 57.3862C97.587 61.2896 94.248 65.8738 94.248 65.8738L94.0249 55.5494Z" fill="#999999" stroke="#263238" stroke-linecap="round" stroke-linejoin="round"/>
<path d="M62.1589 55.7789C62.1589 55.7789 57.2505 54.4013 57.2505 58.9934C57.2505 63.5856 61.7127 66.5547 61.7127 66.5547H64.7901C64.7901 66.5547 66.5749 71.1468 68.1367 72.9757C69.6985 74.8047 77.0457 79.3968 78.8306 79.8561C80.6155 80.3153 83.062 80.7745 85.07 79.6265C87.5928 78.008 89.9174 76.0834 91.9941 73.8942C92.8865 72.7541 94.4483 64.9553 94.4483 64.9553C94.4483 64.9553 94.8945 50.9651 94.002 46.1513C93.1096 41.3374 87.3165 33.7683 79.2922 32.8499C71.2679 31.9314 63.6899 38.5821 62.582 43.8552C61.4742 49.1282 62.1589 55.7789 62.1589 55.7789Z" fill="#999999" stroke="#263238" stroke-linecap="round" stroke-linejoin="round"/>
<path d="M76.6379 59.4526C76.6379 59.4526 75.0992 62.6592 77.7534 63.5777C80.4077 64.4961 83.7697 64.2665 84.439 62.8888C85.1084 61.5112 83.9928 59.9119 83.9928 59.9119" stroke="#263238" stroke-linecap="round" stroke-linejoin="round"/>
<path d="M73.9683 65.1849C73.9683 65.1849 79.5383 69.9988 87.1163 65.4146" stroke="#263238" stroke-linecap="round" stroke-linejoin="round"/>
<path d="M77.084 69.5395C77.084 69.5395 81.7693 72.2948 84.8851 69.0803" stroke="#263238" stroke-linecap="round" stroke-linejoin="round"/>
<path d="M74.4144 56.6974C75.0305 56.6974 75.5299 55.875 75.5299 54.8605C75.5299 53.8461 75.0305 53.0237 74.4144 53.0237C73.7983 53.0237 73.2988 53.8461 73.2988 54.8605C73.2988 55.875 73.7983 56.6974 74.4144 56.6974Z" fill="#263238"/>
<path d="M86.4469 54.6308C86.4469 55.6443 85.9469 56.4677 85.3314 56.4677C84.7159 56.4677 84.2158 55.6759 84.2158 54.6308C84.2158 53.5857 84.7159 52.8019 85.3314 52.8019C85.9469 52.8019 86.4469 53.6174 86.4469 54.6308Z" fill="#263238"/>
<path d="M71.291 52.3428C71.291 52.3428 72.4066 50.5059 76.6764 51.1947" stroke="#263238" stroke-linecap="round" stroke-linejoin="round"/>
<path d="M83.5469 51.4243C83.5469 51.4243 85.5549 48.2098 88.6784 51.4243" stroke="#263238" stroke-linecap="round" stroke-linejoin="round"/>
<path d="M94.0249 46.1353C93.7355 44.7735 93.2341 43.4688 92.5401 42.2716C92.2806 43.541 92.19 44.8408 92.2708 46.1353C92.5939 47.8139 93.7403 50.1574 93.7403 51.3292C93.7403 52.501 93.571 57.1961 94.3865 56.531C94.4673 56.4431 94.5324 56.3413 94.5789 56.2302C94.6298 52.8559 94.4447 49.4822 94.0249 46.1353Z" fill="#263238" stroke="#263238" stroke-linecap="round" stroke-linejoin="round"/>
<path d="M82.8235 36.6344C84.2542 36.5564 85.6781 36.3792 87.0857 36.1039C84.8126 34.3527 82.1337 33.2445 79.3153 32.8894C71.291 31.971 63.713 38.6217 62.6051 43.8947C61.4973 49.1678 62.1589 55.8185 62.1589 55.8185C62.1589 55.8185 63.9284 57.0853 64.5823 55.7472C65.2363 54.4092 64.5823 52.224 65.2363 49.8804C65.8902 47.5368 66.8596 46.3571 67.0212 44.5123C67.1827 42.6675 66.0441 39.9914 66.698 38.4792C67.352 36.9669 71.4218 34.1245 74.0299 35.1301C76.8359 36.2238 79.8245 36.7351 82.8235 36.6344Z" fill="#263238" stroke="#263238" stroke-linecap="round" stroke-linejoin="round"/>
</svg>
