<svg width="15" height="16" viewBox="0 0 15 16" fill="none" xmlns="http://www.w3.org/2000/svg">
<path fill-rule="evenodd" clip-rule="evenodd" d="M7.5 0.833496C7.12187 0.833496 6.77375 0.933496 6.39313 1.1015C6.025 1.26416 5.5975 1.5035 5.06562 1.8015L3.77313 2.52483C3.12 2.89016 2.59813 3.18283 2.19375 3.47016C1.77625 3.76816 1.45375 4.0815 1.21937 4.50616C0.985625 4.9295 0.880625 5.38816 0.83 5.93416C0.78125 6.46416 0.78125 7.1155 0.78125 7.9355V8.06483C0.78125 8.88483 0.78125 9.53616 0.83 10.0662C0.880625 10.6128 0.98625 11.0708 1.21937 11.4942C1.45375 11.9188 1.77562 12.2322 2.19437 12.5302C2.5975 12.8175 3.12 13.1102 3.77313 13.4755L5.06562 14.1988C5.5975 14.4968 6.025 14.7362 6.39313 14.8988C6.77438 15.0668 7.12187 15.1668 7.5 15.1668C7.87813 15.1668 8.22625 15.0668 8.60687 14.8988C8.975 14.7362 9.4025 14.4968 9.93438 14.1988L11.2269 13.4762C11.88 13.1102 12.4019 12.8175 12.8056 12.5302C13.2244 12.2322 13.5462 11.9188 13.7806 11.4942C14.0144 11.0708 14.1194 10.6122 14.17 10.0662C14.2188 9.53616 14.2188 8.88483 14.2188 8.0655V7.93483C14.2188 7.1155 14.2188 6.46416 14.17 5.93416C14.1194 5.3875 14.0137 4.9295 13.7806 4.50616C13.5462 4.0815 13.2244 3.76816 12.8056 3.47016C12.4025 3.18283 11.88 2.89016 11.2269 2.52483L9.93438 1.8015C9.4025 1.5035 8.975 1.26416 8.60687 1.1015C8.22562 0.933496 7.87813 0.833496 7.5 0.833496ZM5.48125 2.6975C6.0375 2.38616 6.4275 2.16883 6.75125 2.02616C7.06625 1.88683 7.28813 1.8335 7.5 1.8335C7.7125 1.8335 7.93375 1.88683 8.24875 2.02616C8.5725 2.16883 8.96188 2.38616 9.51813 2.6975L10.7681 3.3975C11.4494 3.77816 11.9275 4.04683 12.2856 4.3015C12.4619 4.4275 12.6 4.54416 12.7125 4.6615L10.6306 5.7715L5.31812 2.78883L5.48125 2.6975ZM4.34063 3.33616L4.23187 3.3975C3.55062 3.77816 3.0725 4.04683 2.715 4.3015C2.56257 4.40715 2.41967 4.52767 2.28813 4.6615L7.5 7.4415L9.59813 6.3215L4.46938 3.44283C4.42128 3.41503 4.37778 3.37899 4.34063 3.33616ZM1.83625 5.53816C1.805 5.68083 1.78063 5.84283 1.76313 6.0315C1.71938 6.5075 1.71875 7.1095 1.71875 7.96083V8.03883C1.71875 8.89083 1.71875 9.49283 1.76313 9.96816C1.80625 10.4328 1.88812 10.7335 2.0275 10.9868C2.16625 11.2382 2.36687 11.4508 2.715 11.6988C3.0725 11.9535 3.55062 12.2222 4.23187 12.6028L5.48187 13.3028C6.03812 13.6142 6.4275 13.8315 6.75125 13.9742C6.85292 14.0191 6.94625 14.0557 7.03125 14.0842V8.30883L1.83625 5.53816ZM7.96875 14.0835C8.05375 14.0555 8.14708 14.0191 8.24875 13.9742C8.5725 13.8315 8.96188 13.6142 9.51813 13.3028L10.7681 12.6028C11.4494 12.2215 11.9275 11.9535 12.2856 11.6988C12.6331 11.4508 12.8337 11.2382 12.9731 10.9868C13.1125 10.7335 13.1938 10.4335 13.2369 9.96816C13.2806 9.49283 13.2812 8.89083 13.2812 8.0395V7.9615C13.2812 7.1095 13.2813 6.5075 13.2369 6.03216C13.2222 5.86625 13.1977 5.70149 13.1638 5.53883L11.0938 6.64216V8.66683C11.0938 8.79944 11.0444 8.92661 10.9565 9.02038C10.8685 9.11415 10.7493 9.16683 10.625 9.16683C10.5007 9.16683 10.3815 9.11415 10.2935 9.02038C10.2056 8.92661 10.1562 8.79944 10.1562 8.66683V7.14283L7.96875 8.3095V14.0835Z" fill="#FCFCFC" fill-opacity="0.988235"/>
</svg>
