<svg width="15" height="16" viewBox="0 0 15 16" fill="none" xmlns="http://www.w3.org/2000/svg">
<path d="M13.125 7.33333H11.25V2.66667C11.25 2.48986 11.1842 2.32029 11.0669 2.19526C10.9497 2.07024 10.7908 2 10.625 2H1.875C1.70924 2 1.55027 2.07024 1.43306 2.19526C1.31585 2.32029 1.25 2.48986 1.25 2.66667V12C1.25 13.1027 2.09125 14 3.125 14H11.875C12.9088 14 13.75 13.1027 13.75 12V8C13.75 7.82319 13.6842 7.65362 13.5669 7.5286C13.4497 7.40357 13.2908 7.33333 13.125 7.33333ZM3.125 12.6667C2.95924 12.6667 2.80027 12.5964 2.68306 12.4714C2.56585 12.3464 2.5 12.1768 2.5 12V3.33333H10V12C10 12.234 10.0381 12.4587 10.1069 12.6667H3.125ZM12.5 12C12.5 12.1768 12.4342 12.3464 12.3169 12.4714C12.1997 12.5964 12.0408 12.6667 11.875 12.6667C11.7092 12.6667 11.5503 12.5964 11.4331 12.4714C11.3158 12.3464 11.25 12.1768 11.25 12V8.66667H12.5V12Z" fill="#D9F2EF"/>
<path d="M3.75 4.6665H8.75V5.99984H3.75V4.6665ZM3.75 7.33317H8.75V8.6665H3.75V7.33317ZM6.875 9.99984H8.75V11.3332H6.875V9.99984Z" fill="#D9F2EF"/>
</svg>
