<svg width="53" height="45" viewBox="0 0 53 45" fill="none" xmlns="http://www.w3.org/2000/svg">
<path d="M17.3232 39C15.7407 39 14.3914 38.4438 13.2755 37.3314C12.1595 36.219 11.603 34.8705 11.6061 33.2857H6.50639L7.00492 31H12.1915C12.6047 29.9836 13.2717 29.1577 14.1925 28.5223C15.1133 27.8884 16.1569 27.5714 17.3232 27.5714C18.4895 27.5714 19.5338 27.8884 20.4562 28.5223C21.3755 29.1577 22.0417 29.9836 22.4549 31H33.0156L38.0375 9.28571H12.9965L13.0491 9.06171C13.1604 8.46438 13.45 7.97143 13.9181 7.58286C14.3861 7.19429 14.938 7 15.5738 7H40.896L39.0437 15H43.7981L50 23.2651L48.0196 33.2857H45.3806C45.3806 34.8689 44.8241 36.2175 43.7112 37.3314C42.5982 38.4453 41.249 39.0015 39.6634 39C38.0779 38.9985 36.7294 38.4423 35.618 37.3314C34.5066 36.2206 33.9501 34.872 33.9486 33.2857H23.0403C23.0403 34.8689 22.4839 36.2175 21.3709 37.3314C20.258 38.4453 18.9087 39.0015 17.3232 39ZM36.503 25.8571H47.1392L47.5439 23.8229L42.6546 17.2857H38.4971L36.503 25.8571ZM37.4818 11.576L38.0375 9.28571L33.0156 31L33.5713 28.7097L35.3825 20.7189L37.4818 11.576ZM4 25.2811L4.57171 22.9954H14.8168L14.2451 25.2811H4ZM8.5737 17.2903L9.14541 15.0046H21.6774L21.1056 17.2903H8.5737ZM17.3232 36.7143C18.2639 36.7143 19.0711 36.3783 19.745 35.7063C20.4173 35.0328 20.7535 34.2259 20.7535 33.2857C20.7535 32.3455 20.4173 31.5387 19.745 30.8651C19.0726 30.1916 18.2654 29.8556 17.3232 29.8571C16.381 29.8587 15.5738 30.1947 14.9014 30.8651C14.2291 31.5387 13.8929 32.3455 13.8929 33.2857C13.8929 34.2259 14.2291 35.0328 14.9014 35.7063C15.5753 36.3783 16.3825 36.7143 17.3232 36.7143ZM39.6657 36.7143C40.6064 36.7143 41.4129 36.3783 42.0852 35.7063C42.7575 35.0328 43.0937 34.2259 43.0937 33.2857C43.0937 32.3455 42.7575 31.5387 42.0852 30.8651C41.4129 30.1916 40.6056 29.8556 39.6634 29.8571C38.7213 29.8587 37.9148 30.1947 37.2439 30.8651C36.5701 31.5387 36.2332 32.3455 36.2332 33.2857C36.2332 34.2259 36.5693 35.0328 37.2417 35.7063C37.9155 36.3783 38.7235 36.7143 39.6657 36.7143Z" fill="#00A991"/>
</svg>
